G04 #@! TF.GenerationSoftware,KiCad,Pcbnew,5.0.2-bee76a0~70~ubuntu18.04.1*
G04 #@! TF.CreationDate,2019-02-23T22:01:51+01:00*
G04 #@! TF.ProjectId,led-spindel,6c65642d-7370-4696-9e64-656c2e6b6963,rev?*
G04 #@! TF.SameCoordinates,Original*
G04 #@! TF.FileFunction,Legend,Bot*
G04 #@! TF.FilePolarity,Positive*
%FSLAX46Y46*%
G04 Gerber Fmt 4.6, Leading zero omitted, Abs format (unit mm)*
G04 Created by KiCad (PCBNEW 5.0.2-bee76a0~70~ubuntu18.04.1) date Sa 23 Feb 2019 22:01:51 CET*
%MOMM*%
%LPD*%
G01*
G04 APERTURE LIST*
%ADD10C,0.127000*%
%ADD11C,0.120000*%
%ADD12C,0.150000*%
G04 APERTURE END LIST*
D10*
G04 #@! TO.C,BT1*
X120048278Y-122000000D02*
G75*
G03X120048278Y-122000000I-12048278J0D01*
G01*
X99790591Y-117940886D02*
X101990295Y-116670886D01*
X100255443Y-116206034D02*
X101525443Y-118405739D01*
D11*
G04 #@! TO.C,J1*
X59783777Y-132946814D02*
X62383777Y-128443482D01*
X64235148Y-135516814D02*
X59783777Y-132946814D01*
X69086814Y-132313482D02*
X62383777Y-128443482D01*
X64235148Y-135516814D02*
X65535148Y-133265148D01*
X65535148Y-133265148D02*
X67786814Y-134565148D01*
X67786814Y-134565148D02*
X69086814Y-132313482D01*
X65335000Y-136151814D02*
X66486814Y-136816814D01*
X66486814Y-136816814D02*
X67151814Y-135665000D01*
G04 #@! TO.C,BT1*
D12*
X99950602Y-123155177D02*
X99837934Y-123055268D01*
X99772885Y-123037839D01*
X99666597Y-123044218D01*
X99542879Y-123115647D01*
X99484210Y-123204505D01*
X99466780Y-123269554D01*
X99473160Y-123375842D01*
X99663636Y-123705757D01*
X100529661Y-123205757D01*
X100362995Y-122917082D01*
X100274136Y-122858412D01*
X100209087Y-122840983D01*
X100102799Y-122847362D01*
X100020321Y-122894981D01*
X99961652Y-122983840D01*
X99944222Y-123048889D01*
X99950602Y-123155177D01*
X100117268Y-123443852D01*
X100101090Y-122463449D02*
X99815376Y-121968577D01*
X99092207Y-122716013D02*
X99958233Y-122216013D01*
X98520779Y-121726270D02*
X98806493Y-122221142D01*
X98663636Y-121973706D02*
X99529661Y-121473706D01*
X99453562Y-121627613D01*
X99418703Y-121757711D01*
X99425083Y-121863999D01*
G04 #@! TO.C,J1*
X68345253Y-134502663D02*
X68963843Y-134859806D01*
X69111370Y-134889995D01*
X69241468Y-134855135D01*
X69354136Y-134755227D01*
X69401755Y-134672748D01*
X68711279Y-135868688D02*
X68996993Y-135373817D01*
X68854136Y-135621252D02*
X67988110Y-135121252D01*
X68159447Y-135110202D01*
X68289545Y-135075343D01*
X68378403Y-135016674D01*
G04 #@! TD*
M02*
