M48
;DRILL file {KiCad 5.0.2-bee76a0~70~ubuntu18.04.1} date Sa 23 Feb 2019 22:01:46 CET
;FORMAT={-:-/ absolute / inch / decimal}
FMAT,2
INCH,TZ
T1C0.0295
T2C0.0300
T3C0.0315
T4C0.0354
T5C0.0394
%
G90
G05
T1
X1.5001Y-6.1516
X1.807Y-5.9744
X3.4252Y-3.7205
X3.4252Y-4.0748
X4.256Y-6.4075
X4.5629Y-6.5846
X2.0119Y-4.6752
X2.3188Y-4.8524
T2
X1.6929Y-4.8425
X1.752Y-4.7402
X2.674Y-4.7244
X2.774Y-4.7244
X2.874Y-4.7244
X4.052Y-4.4567
X4.452Y-5.1496
T3
X3.1004Y-6.0728
X3.1988Y-6.0728
X3.002Y-6.3386
X3.002Y-6.4386
X3.002Y-6.5386
X3.002Y-6.6386
X3.002Y-6.7386
X3.002Y-6.8386
X3.002Y-6.9386
X3.002Y-7.0386
X3.002Y-7.1386
X3.002Y-7.2386
X3.302Y-6.3386
X3.302Y-6.4386
X3.302Y-6.5386
X3.302Y-6.6386
X3.302Y-6.7386
X3.302Y-6.8386
X3.302Y-6.9386
X3.302Y-7.0386
X3.302Y-7.1386
X3.302Y-7.2386
X2.0866Y-5.0394
X2.1358Y-4.9541
T4
X4.4851Y-6.3108
X4.5351Y-6.2242
X4.1441Y-6.1139
X4.1941Y-6.0273
X1.7754Y-6.2477
X1.8254Y-6.3343
X3.4622Y-5.7202
X3.5122Y-5.6336
X3.1004Y-4.1339
X3.2004Y-4.1339
X2.2868Y-5.9525
X2.3368Y-6.0391
X3.8032Y-5.9171
X3.8532Y-5.8305
X3.1004Y-4.5276
X3.2004Y-4.5276
X4.3146Y-6.2124
X4.3646Y-6.1258
X3.9737Y-6.0155
X4.0237Y-5.9289
X1.9458Y-6.1493
X1.9958Y-6.2359
X1.6049Y-6.3462
X1.6549Y-6.4328
X3.6327Y-5.8187
X3.6827Y-5.7321
X3.1004Y-3.937
X3.2004Y-3.937
X3.1004Y-3.7402
X3.2004Y-3.7402
X2.8034Y-5.6542
X2.8534Y-5.7408
X4.6556Y-6.4092
X4.7056Y-6.3226
X3.1004Y-4.7244
X3.2004Y-4.7244
X2.4573Y-5.854
X2.5073Y-5.9406
X2.1163Y-6.0509
X2.1663Y-6.1375
X2.6277Y-5.7556
X2.6777Y-5.8422
X3.1004Y-5.1378
X3.2004Y-5.1378
X3.1004Y-4.9213
X3.2004Y-4.9213
X3.1004Y-4.3307
X3.2004Y-4.3307
T5
X2.4252Y-5.215
X2.4752Y-5.1284
X2.5118Y-5.265
X2.5618Y-5.1784
X2.5984Y-5.315
X2.6484Y-5.2284
T0
M30
