G04 #@! TF.GenerationSoftware,KiCad,Pcbnew,5.0.2-bee76a0~70~ubuntu18.04.1*
G04 #@! TF.CreationDate,2019-02-23T22:01:51+01:00*
G04 #@! TF.ProjectId,led-spindel,6c65642d-7370-4696-9e64-656c2e6b6963,rev?*
G04 #@! TF.SameCoordinates,Original*
G04 #@! TF.FileFunction,Copper,L2,Bot*
G04 #@! TF.FilePolarity,Positive*
%FSLAX46Y46*%
G04 Gerber Fmt 4.6, Leading zero omitted, Abs format (unit mm)*
G04 Created by KiCad (PCBNEW 5.0.2-bee76a0~70~ubuntu18.04.1) date Sa 23 Feb 2019 22:01:51 CET*
%MOMM*%
%LPD*%
G01*
G04 APERTURE LIST*
G04 #@! TA.AperFunction,ComponentPad*
%ADD10C,1.524000*%
G04 #@! TD*
G04 #@! TA.AperFunction,ComponentPad*
%ADD11R,1.600000X1.600000*%
G04 #@! TD*
G04 #@! TA.AperFunction,ComponentPad*
%ADD12C,1.600000*%
G04 #@! TD*
G04 #@! TA.AperFunction,ComponentPad*
%ADD13C,1.700000*%
G04 #@! TD*
G04 #@! TA.AperFunction,Conductor*
%ADD14C,0.100000*%
G04 #@! TD*
G04 #@! TA.AperFunction,Conductor*
%ADD15C,1.700000*%
G04 #@! TD*
G04 #@! TA.AperFunction,ComponentPad*
%ADD16C,2.000000*%
G04 #@! TD*
G04 #@! TA.AperFunction,ComponentPad*
%ADD17O,1.600000X1.600000*%
G04 #@! TD*
G04 #@! TA.AperFunction,ComponentPad*
%ADD18C,1.800000*%
G04 #@! TD*
G04 #@! TA.AperFunction,ComponentPad*
%ADD19R,1.800000X1.800000*%
G04 #@! TD*
G04 #@! TA.AperFunction,Conductor*
%ADD20C,0.250000*%
G04 #@! TD*
G04 #@! TA.AperFunction,Conductor*
%ADD21C,0.254000*%
G04 #@! TD*
G04 APERTURE END LIST*
D10*
G04 #@! TO.P,U2,3*
G04 #@! TO.N,VCC*
X67920000Y-120000000D03*
G04 #@! TO.P,U2,2*
G04 #@! TO.N,N/C*
X73000000Y-120000000D03*
G04 #@! TO.P,U2,1*
G04 #@! TO.N,Net-(BT1-Pad1)*
X70460000Y-120000000D03*
G04 #@! TD*
G04 #@! TO.P,BT1,1*
G04 #@! TO.N,Net-(BT1-Pad1)*
X102920000Y-113201182D03*
G04 #@! TO.P,BT1,2*
G04 #@! TO.N,GND*
X113080000Y-130798818D03*
G04 #@! TD*
D11*
G04 #@! TO.P,C1,1*
G04 #@! TO.N,VCC*
X78750000Y-154250000D03*
D12*
G04 #@! TO.P,C1,2*
G04 #@! TO.N,GND*
X81250000Y-154250000D03*
G04 #@! TD*
G04 #@! TO.P,C2,1*
G04 #@! TO.N,VCC*
X53000000Y-128000000D03*
G04 #@! TO.P,C2,2*
G04 #@! TO.N,Net-(C2-Pad2)*
X54250000Y-125834936D03*
G04 #@! TD*
D13*
G04 #@! TO.P,J1,1*
G04 #@! TO.N,Net-(D15-Pad2)*
X66000000Y-135000000D03*
D14*
G04 #@! TD*
G04 #@! TO.N,Net-(D15-Pad2)*
G04 #@! TO.C,J1*
G36*
X66311122Y-136161122D02*
X64838878Y-135311122D01*
X65688878Y-133838878D01*
X67161122Y-134688878D01*
X66311122Y-136161122D01*
X66311122Y-136161122D01*
G37*
D13*
G04 #@! TO.P,J1,2*
G04 #@! TO.N,VCC*
X67270000Y-132800295D03*
D15*
G04 #@! TD*
G04 #@! TO.N,VCC*
G04 #@! TO.C,J1*
X67270000Y-132800295D02*
X67270000Y-132800295D01*
D13*
G04 #@! TO.P,J1,3*
G04 #@! TO.N,Net-(D16-Pad2)*
X63800295Y-133730000D03*
D15*
G04 #@! TD*
G04 #@! TO.N,Net-(D16-Pad2)*
G04 #@! TO.C,J1*
X63800295Y-133730000D02*
X63800295Y-133730000D01*
D13*
G04 #@! TO.P,J1,4*
G04 #@! TO.N,Net-(D14-Pad2)*
X65070295Y-131530295D03*
D15*
G04 #@! TD*
G04 #@! TO.N,Net-(D14-Pad2)*
G04 #@! TO.C,J1*
X65070295Y-131530295D02*
X65070295Y-131530295D01*
D13*
G04 #@! TO.P,J1,5*
G04 #@! TO.N,Net-(J1-Pad5)*
X61600591Y-132460000D03*
D15*
G04 #@! TD*
G04 #@! TO.N,Net-(J1-Pad5)*
G04 #@! TO.C,J1*
X61600591Y-132460000D02*
X61600591Y-132460000D01*
D13*
G04 #@! TO.P,J1,6*
G04 #@! TO.N,GND*
X62870591Y-130260295D03*
D15*
G04 #@! TD*
G04 #@! TO.N,GND*
G04 #@! TO.C,J1*
X62870591Y-130260295D02*
X62870591Y-130260295D01*
D16*
G04 #@! TO.P,R1,1*
G04 #@! TO.N,GND*
X58897114Y-123250000D03*
G04 #@! TO.P,R1,2*
G04 #@! TO.N,Net-(C2-Pad2)*
X51102886Y-118750000D03*
G04 #@! TD*
G04 #@! TO.P,R2,2*
G04 #@! TO.N,Net-(R2-Pad2)*
X45897114Y-151750000D03*
G04 #@! TO.P,R2,1*
G04 #@! TO.N,Net-(D1-Pad1)*
X38102886Y-156250000D03*
G04 #@! TD*
G04 #@! TO.P,R3,1*
G04 #@! TO.N,Net-(D10-Pad1)*
X115897114Y-167250000D03*
G04 #@! TO.P,R3,2*
G04 #@! TO.N,Net-(R3-Pad2)*
X108102886Y-162750000D03*
G04 #@! TD*
G04 #@! TO.P,R4,2*
G04 #@! TO.N,Net-(R4-Pad2)*
X87000000Y-94500000D03*
G04 #@! TO.P,R4,1*
G04 #@! TO.N,Net-(D17-Pad1)*
X87000000Y-103500000D03*
G04 #@! TD*
D10*
G04 #@! TO.P,SW1,1*
G04 #@! TO.N,VCC*
X43000000Y-123000000D03*
G04 #@! TO.P,SW1,2*
G04 #@! TO.N,Net-(C2-Pad2)*
X44500000Y-120401924D03*
G04 #@! TD*
D11*
G04 #@! TO.P,U1,1*
G04 #@! TO.N,Net-(J1-Pad5)*
X76250000Y-161000000D03*
D17*
G04 #@! TO.P,U1,11*
G04 #@! TO.N,N/C*
X83870000Y-183860000D03*
G04 #@! TO.P,U1,2*
G04 #@! TO.N,Net-(R2-Pad2)*
X76250000Y-163540000D03*
G04 #@! TO.P,U1,12*
G04 #@! TO.N,Net-(D1-Pad2)*
X83870000Y-181320000D03*
G04 #@! TO.P,U1,3*
G04 #@! TO.N,Net-(R3-Pad2)*
X76250000Y-166080000D03*
G04 #@! TO.P,U1,13*
G04 #@! TO.N,Net-(D10-Pad2)*
X83870000Y-178780000D03*
G04 #@! TO.P,U1,4*
G04 #@! TO.N,N/C*
X76250000Y-168620000D03*
G04 #@! TO.P,U1,14*
G04 #@! TO.N,Net-(D11-Pad2)*
X83870000Y-176240000D03*
G04 #@! TO.P,U1,5*
G04 #@! TO.N,Net-(C2-Pad2)*
X76250000Y-171160000D03*
G04 #@! TO.P,U1,15*
G04 #@! TO.N,Net-(D12-Pad2)*
X83870000Y-173700000D03*
G04 #@! TO.P,U1,6*
G04 #@! TO.N,Net-(R4-Pad2)*
X76250000Y-173700000D03*
G04 #@! TO.P,U1,16*
G04 #@! TO.N,Net-(D13-Pad2)*
X83870000Y-171160000D03*
G04 #@! TO.P,U1,7*
G04 #@! TO.N,N/C*
X76250000Y-176240000D03*
G04 #@! TO.P,U1,17*
G04 #@! TO.N,Net-(D14-Pad2)*
X83870000Y-168620000D03*
G04 #@! TO.P,U1,8*
G04 #@! TO.N,N/C*
X76250000Y-178780000D03*
G04 #@! TO.P,U1,18*
G04 #@! TO.N,Net-(D15-Pad2)*
X83870000Y-166080000D03*
G04 #@! TO.P,U1,9*
G04 #@! TO.N,N/C*
X76250000Y-181320000D03*
G04 #@! TO.P,U1,19*
G04 #@! TO.N,Net-(D16-Pad2)*
X83870000Y-163540000D03*
G04 #@! TO.P,U1,10*
G04 #@! TO.N,GND*
X76250000Y-183860000D03*
G04 #@! TO.P,U1,20*
G04 #@! TO.N,VCC*
X83870000Y-161000000D03*
G04 #@! TD*
D18*
G04 #@! TO.P,D1,2*
G04 #@! TO.N,Net-(D1-Pad2)*
X71205847Y-143616610D03*
G04 #@! TO.P,D1,1*
G04 #@! TO.N,Net-(D1-Pad1)*
X72475847Y-145816315D03*
D14*
G04 #@! TD*
G04 #@! TO.N,Net-(D1-Pad1)*
G04 #@! TO.C,D1*
G36*
X73705270Y-146145738D02*
X72146424Y-147045738D01*
X71246424Y-145486892D01*
X72805270Y-144586892D01*
X73705270Y-146145738D01*
X73705270Y-146145738D01*
G37*
D18*
G04 #@! TO.P,D2,1*
G04 #@! TO.N,Net-(D1-Pad1)*
X68014545Y-148392048D03*
D14*
G04 #@! TD*
G04 #@! TO.N,Net-(D1-Pad1)*
G04 #@! TO.C,D2*
G36*
X69243968Y-148721471D02*
X67685122Y-149621471D01*
X66785122Y-148062625D01*
X68343968Y-147162625D01*
X69243968Y-148721471D01*
X69243968Y-148721471D01*
G37*
D18*
G04 #@! TO.P,D2,2*
G04 #@! TO.N,Net-(D10-Pad2)*
X66744545Y-146192343D03*
G04 #@! TD*
G04 #@! TO.P,D3,2*
G04 #@! TO.N,Net-(D11-Pad2)*
X62414418Y-148692343D03*
G04 #@! TO.P,D3,1*
G04 #@! TO.N,Net-(D1-Pad1)*
X63684418Y-150892048D03*
D14*
G04 #@! TD*
G04 #@! TO.N,Net-(D1-Pad1)*
G04 #@! TO.C,D3*
G36*
X64913841Y-151221471D02*
X63354995Y-152121471D01*
X62454995Y-150562625D01*
X64013841Y-149662625D01*
X64913841Y-151221471D01*
X64913841Y-151221471D01*
G37*
D18*
G04 #@! TO.P,D4,1*
G04 #@! TO.N,Net-(D1-Pad1)*
X59354291Y-153392048D03*
D14*
G04 #@! TD*
G04 #@! TO.N,Net-(D1-Pad1)*
G04 #@! TO.C,D4*
G36*
X60583714Y-153721471D02*
X59024868Y-154621471D01*
X58124868Y-153062625D01*
X59683714Y-152162625D01*
X60583714Y-153721471D01*
X60583714Y-153721471D01*
G37*
D18*
G04 #@! TO.P,D4,2*
G04 #@! TO.N,Net-(D12-Pad2)*
X58084291Y-151192343D03*
G04 #@! TD*
G04 #@! TO.P,D5,1*
G04 #@! TO.N,Net-(D1-Pad1)*
X55024164Y-155892048D03*
D14*
G04 #@! TD*
G04 #@! TO.N,Net-(D1-Pad1)*
G04 #@! TO.C,D5*
G36*
X56253587Y-156221471D02*
X54694741Y-157121471D01*
X53794741Y-155562625D01*
X55353587Y-154662625D01*
X56253587Y-156221471D01*
X56253587Y-156221471D01*
G37*
D18*
G04 #@! TO.P,D5,2*
G04 #@! TO.N,Net-(D13-Pad2)*
X53754164Y-153692343D03*
G04 #@! TD*
G04 #@! TO.P,D6,2*
G04 #@! TO.N,Net-(D14-Pad2)*
X49424037Y-156192343D03*
G04 #@! TO.P,D6,1*
G04 #@! TO.N,Net-(D1-Pad1)*
X50694037Y-158392048D03*
D14*
G04 #@! TD*
G04 #@! TO.N,Net-(D1-Pad1)*
G04 #@! TO.C,D6*
G36*
X51923460Y-158721471D02*
X50364614Y-159621471D01*
X49464614Y-158062625D01*
X51023460Y-157162625D01*
X51923460Y-158721471D01*
X51923460Y-158721471D01*
G37*
D18*
G04 #@! TO.P,D7,1*
G04 #@! TO.N,Net-(D1-Pad1)*
X46363910Y-160892048D03*
D14*
G04 #@! TD*
G04 #@! TO.N,Net-(D1-Pad1)*
G04 #@! TO.C,D7*
G36*
X47593333Y-161221471D02*
X46034487Y-162121471D01*
X45134487Y-160562625D01*
X46693333Y-159662625D01*
X47593333Y-161221471D01*
X47593333Y-161221471D01*
G37*
D18*
G04 #@! TO.P,D7,2*
G04 #@! TO.N,Net-(D15-Pad2)*
X45093910Y-158692343D03*
G04 #@! TD*
G04 #@! TO.P,D8,2*
G04 #@! TO.N,Net-(D16-Pad2)*
X40763783Y-161192343D03*
G04 #@! TO.P,D8,1*
G04 #@! TO.N,Net-(D1-Pad1)*
X42033783Y-163392048D03*
D14*
G04 #@! TD*
G04 #@! TO.N,Net-(D1-Pad1)*
G04 #@! TO.C,D8*
G36*
X43263206Y-163721471D02*
X41704360Y-164621471D01*
X40804360Y-163062625D01*
X42363206Y-162162625D01*
X43263206Y-163721471D01*
X43263206Y-163721471D01*
G37*
D18*
G04 #@! TO.P,D9,1*
G04 #@! TO.N,Net-(D10-Pad1)*
X87940819Y-145294045D03*
D14*
G04 #@! TD*
G04 #@! TO.N,Net-(D10-Pad1)*
G04 #@! TO.C,D9*
G36*
X88270242Y-146523468D02*
X86711396Y-145623468D01*
X87611396Y-144064622D01*
X89170242Y-144964622D01*
X88270242Y-146523468D01*
X88270242Y-146523468D01*
G37*
D18*
G04 #@! TO.P,D9,2*
G04 #@! TO.N,Net-(D1-Pad2)*
X89210819Y-143094340D03*
G04 #@! TD*
G04 #@! TO.P,D10,2*
G04 #@! TO.N,Net-(D10-Pad2)*
X93540946Y-145594340D03*
G04 #@! TO.P,D10,1*
G04 #@! TO.N,Net-(D10-Pad1)*
X92270946Y-147794045D03*
D14*
G04 #@! TD*
G04 #@! TO.N,Net-(D10-Pad1)*
G04 #@! TO.C,D10*
G36*
X92600369Y-149023468D02*
X91041523Y-148123468D01*
X91941523Y-146564622D01*
X93500369Y-147464622D01*
X92600369Y-149023468D01*
X92600369Y-149023468D01*
G37*
D18*
G04 #@! TO.P,D11,1*
G04 #@! TO.N,Net-(D10-Pad1)*
X96601073Y-150294045D03*
D14*
G04 #@! TD*
G04 #@! TO.N,Net-(D10-Pad1)*
G04 #@! TO.C,D11*
G36*
X96930496Y-151523468D02*
X95371650Y-150623468D01*
X96271650Y-149064622D01*
X97830496Y-149964622D01*
X96930496Y-151523468D01*
X96930496Y-151523468D01*
G37*
D18*
G04 #@! TO.P,D11,2*
G04 #@! TO.N,Net-(D11-Pad2)*
X97871073Y-148094340D03*
G04 #@! TD*
G04 #@! TO.P,D12,2*
G04 #@! TO.N,Net-(D12-Pad2)*
X102201200Y-150594340D03*
G04 #@! TO.P,D12,1*
G04 #@! TO.N,Net-(D10-Pad1)*
X100931200Y-152794045D03*
D14*
G04 #@! TD*
G04 #@! TO.N,Net-(D10-Pad1)*
G04 #@! TO.C,D12*
G36*
X101260623Y-154023468D02*
X99701777Y-153123468D01*
X100601777Y-151564622D01*
X102160623Y-152464622D01*
X101260623Y-154023468D01*
X101260623Y-154023468D01*
G37*
D18*
G04 #@! TO.P,D13,1*
G04 #@! TO.N,Net-(D10-Pad1)*
X105261327Y-155294045D03*
D14*
G04 #@! TD*
G04 #@! TO.N,Net-(D10-Pad1)*
G04 #@! TO.C,D13*
G36*
X105590750Y-156523468D02*
X104031904Y-155623468D01*
X104931904Y-154064622D01*
X106490750Y-154964622D01*
X105590750Y-156523468D01*
X105590750Y-156523468D01*
G37*
D18*
G04 #@! TO.P,D13,2*
G04 #@! TO.N,Net-(D13-Pad2)*
X106531327Y-153094340D03*
G04 #@! TD*
G04 #@! TO.P,D14,2*
G04 #@! TO.N,Net-(D14-Pad2)*
X110861454Y-155594340D03*
G04 #@! TO.P,D14,1*
G04 #@! TO.N,Net-(D10-Pad1)*
X109591454Y-157794045D03*
D14*
G04 #@! TD*
G04 #@! TO.N,Net-(D10-Pad1)*
G04 #@! TO.C,D14*
G36*
X109920877Y-159023468D02*
X108362031Y-158123468D01*
X109262031Y-156564622D01*
X110820877Y-157464622D01*
X109920877Y-159023468D01*
X109920877Y-159023468D01*
G37*
D18*
G04 #@! TO.P,D15,1*
G04 #@! TO.N,Net-(D10-Pad1)*
X113921581Y-160294045D03*
D14*
G04 #@! TD*
G04 #@! TO.N,Net-(D10-Pad1)*
G04 #@! TO.C,D15*
G36*
X114251004Y-161523468D02*
X112692158Y-160623468D01*
X113592158Y-159064622D01*
X115151004Y-159964622D01*
X114251004Y-161523468D01*
X114251004Y-161523468D01*
G37*
D18*
G04 #@! TO.P,D15,2*
G04 #@! TO.N,Net-(D15-Pad2)*
X115191581Y-158094340D03*
G04 #@! TD*
G04 #@! TO.P,D16,2*
G04 #@! TO.N,Net-(D16-Pad2)*
X119521708Y-160594340D03*
G04 #@! TO.P,D16,1*
G04 #@! TO.N,Net-(D10-Pad1)*
X118251708Y-162794045D03*
D14*
G04 #@! TD*
G04 #@! TO.N,Net-(D10-Pad1)*
G04 #@! TO.C,D16*
G36*
X118581131Y-164023468D02*
X117022285Y-163123468D01*
X117922285Y-161564622D01*
X119481131Y-162464622D01*
X118581131Y-164023468D01*
X118581131Y-164023468D01*
G37*
D18*
G04 #@! TO.P,D17,2*
G04 #@! TO.N,Net-(D1-Pad2)*
X81290000Y-130500000D03*
D19*
G04 #@! TO.P,D17,1*
G04 #@! TO.N,Net-(D17-Pad1)*
X78750000Y-130500000D03*
G04 #@! TD*
G04 #@! TO.P,D18,1*
G04 #@! TO.N,Net-(D17-Pad1)*
X78750000Y-125000000D03*
D18*
G04 #@! TO.P,D18,2*
G04 #@! TO.N,Net-(D10-Pad2)*
X81290000Y-125000000D03*
G04 #@! TD*
G04 #@! TO.P,D19,2*
G04 #@! TO.N,Net-(D11-Pad2)*
X81290000Y-120000000D03*
D19*
G04 #@! TO.P,D19,1*
G04 #@! TO.N,Net-(D17-Pad1)*
X78750000Y-120000000D03*
G04 #@! TD*
G04 #@! TO.P,D20,1*
G04 #@! TO.N,Net-(D17-Pad1)*
X78750000Y-115000000D03*
D18*
G04 #@! TO.P,D20,2*
G04 #@! TO.N,Net-(D12-Pad2)*
X81290000Y-115000000D03*
G04 #@! TD*
G04 #@! TO.P,D21,2*
G04 #@! TO.N,Net-(D13-Pad2)*
X81290000Y-110000000D03*
D19*
G04 #@! TO.P,D21,1*
G04 #@! TO.N,Net-(D17-Pad1)*
X78750000Y-110000000D03*
G04 #@! TD*
G04 #@! TO.P,D22,1*
G04 #@! TO.N,Net-(D17-Pad1)*
X78750000Y-105000000D03*
D18*
G04 #@! TO.P,D22,2*
G04 #@! TO.N,Net-(D14-Pad2)*
X81290000Y-105000000D03*
G04 #@! TD*
G04 #@! TO.P,D23,2*
G04 #@! TO.N,Net-(D15-Pad2)*
X81290000Y-100000000D03*
D19*
G04 #@! TO.P,D23,1*
G04 #@! TO.N,Net-(D17-Pad1)*
X78750000Y-100000000D03*
G04 #@! TD*
G04 #@! TO.P,D24,1*
G04 #@! TO.N,Net-(D17-Pad1)*
X78750000Y-95000000D03*
D18*
G04 #@! TO.P,D24,2*
G04 #@! TO.N,Net-(D16-Pad2)*
X81290000Y-95000000D03*
G04 #@! TD*
D20*
G04 #@! TO.N,VCC*
X78750000Y-155880000D02*
X78750000Y-154250000D01*
X83870000Y-161000000D02*
X78750000Y-155880000D01*
X72430848Y-137961143D02*
X68119999Y-133650294D01*
X68119999Y-133650294D02*
X67270000Y-132800295D01*
X72430848Y-143430848D02*
X72430848Y-137961143D01*
X78750000Y-149750000D02*
X72430848Y-143430848D01*
X78750000Y-154250000D02*
X78750000Y-149750000D01*
G04 #@! TO.N,Net-(D1-Pad2)*
X86386386Y-144645981D02*
X86386386Y-145886386D01*
X89210819Y-143094340D02*
X87938027Y-143094340D01*
X87938027Y-143094340D02*
X86386386Y-144645981D01*
X86386386Y-145886386D02*
X109500000Y-169000000D01*
X109500000Y-169000000D02*
X109500000Y-173000000D01*
X101180000Y-181320000D02*
X83870000Y-181320000D01*
X109500000Y-173000000D02*
X101180000Y-181320000D01*
G04 #@! TO.N,Net-(D10-Pad2)*
X83870000Y-178780000D02*
X101720000Y-178780000D01*
X101720000Y-178780000D02*
X107250000Y-173250000D01*
X107250000Y-173250000D02*
X107250000Y-168000000D01*
X92640947Y-144694341D02*
X93540946Y-145594340D01*
X89815945Y-141869339D02*
X92640947Y-144694341D01*
X88526618Y-141869339D02*
X89815945Y-141869339D01*
X85936377Y-144459580D02*
X88526618Y-141869339D01*
X85936376Y-146686376D02*
X85936377Y-144459580D01*
X107250000Y-168000000D02*
X85936376Y-146686376D01*
G04 #@! TO.N,Net-(D11-Pad2)*
X84669999Y-177039999D02*
X101460001Y-177039999D01*
X83870000Y-176240000D02*
X84669999Y-177039999D01*
X101460001Y-177039999D02*
X105000000Y-173500000D01*
X105000000Y-173500000D02*
X105000000Y-167000000D01*
X91196062Y-141419329D02*
X96971074Y-147194341D01*
X88340218Y-141419329D02*
X91196062Y-141419329D01*
X85486368Y-144273179D02*
X88340218Y-141419329D01*
X85486368Y-147486368D02*
X85486368Y-144273179D01*
X96971074Y-147194341D02*
X97871073Y-148094340D01*
X105000000Y-167000000D02*
X85486368Y-147486368D01*
G04 #@! TO.N,Net-(D12-Pad2)*
X84669999Y-174499999D02*
X103250001Y-174499999D01*
X83870000Y-173700000D02*
X84669999Y-174499999D01*
X103250001Y-174499999D02*
X104500000Y-173250000D01*
X104500000Y-173250000D02*
X104500000Y-167250000D01*
X92576179Y-140969319D02*
X101301201Y-149694341D01*
X88153818Y-140969319D02*
X92576179Y-140969319D01*
X84995001Y-144128136D02*
X88153818Y-140969319D01*
X101301201Y-149694341D02*
X102201200Y-150594340D01*
X84995001Y-147745001D02*
X84995001Y-144128136D01*
X104500000Y-167250000D02*
X84995001Y-147745001D01*
G04 #@! TO.N,Net-(D13-Pad2)*
X93936987Y-140500000D02*
X106531327Y-153094340D01*
X84500000Y-143986727D02*
X87986727Y-140500000D01*
X84669999Y-171959999D02*
X93290001Y-171959999D01*
X83870000Y-171160000D02*
X84669999Y-171959999D01*
X93290001Y-171959999D02*
X95750000Y-169500000D01*
X95750000Y-169500000D02*
X95750000Y-159750000D01*
X95750000Y-159750000D02*
X84500000Y-148500000D01*
X87986727Y-140500000D02*
X93936987Y-140500000D01*
X84500000Y-148500000D02*
X84500000Y-143986727D01*
G04 #@! TO.N,Net-(D14-Pad2)*
X109961455Y-154694341D02*
X110861454Y-155594340D01*
X87800327Y-140049990D02*
X95317104Y-140049990D01*
X84049990Y-148686400D02*
X84049991Y-143800326D01*
X95317104Y-140049990D02*
X109961455Y-154694341D01*
X95299990Y-159936400D02*
X84049990Y-148686400D01*
X95299990Y-161200010D02*
X95299990Y-159936400D01*
X88679999Y-167820001D02*
X95299990Y-161200010D01*
X84049991Y-143800326D02*
X87800327Y-140049990D01*
X84669999Y-167820001D02*
X88679999Y-167820001D01*
X83870000Y-168620000D02*
X84669999Y-167820001D01*
X82189999Y-105899999D02*
X81290000Y-105000000D01*
X82515001Y-106225001D02*
X82189999Y-105899999D01*
X82515001Y-131088001D02*
X82515001Y-106225001D01*
X81878001Y-131725001D02*
X82515001Y-131088001D01*
X77589999Y-131725001D02*
X81878001Y-131725001D01*
X77395293Y-131530295D02*
X77589999Y-131725001D01*
X65070295Y-131530295D02*
X77395293Y-131530295D01*
G04 #@! TO.N,Net-(D15-Pad2)*
X83870000Y-166080000D02*
X88170000Y-166080000D01*
X88170000Y-166080000D02*
X91000000Y-163250000D01*
X91000000Y-156272820D02*
X83750000Y-149022820D01*
X83750000Y-149022820D02*
X83727180Y-149000000D01*
X115191581Y-156821548D02*
X115191581Y-158094340D01*
X109870033Y-151500000D02*
X115191581Y-156821548D01*
X83599981Y-148872801D02*
X83599981Y-143613926D01*
X83750000Y-149022820D02*
X83599981Y-148872801D01*
X83599981Y-143613926D02*
X87617431Y-139596476D01*
X87617431Y-139596476D02*
X95500000Y-139596476D01*
X95500000Y-139596476D02*
X107403524Y-151500000D01*
X107403524Y-151500000D02*
X109870033Y-151500000D01*
X83329999Y-162125001D02*
X89124999Y-162125001D01*
X78299990Y-157094992D02*
X83329999Y-162125001D01*
X78299990Y-155924991D02*
X78299990Y-157094992D01*
X89124999Y-162125001D02*
X91000000Y-160250000D01*
X66000000Y-143625001D02*
X78299990Y-155924991D01*
X66000000Y-135000000D02*
X66000000Y-143625001D01*
X91000000Y-160250000D02*
X91000000Y-156272820D01*
X91000000Y-163250000D02*
X91000000Y-160250000D01*
G04 #@! TO.N,Net-(D16-Pad2)*
X82738630Y-163540000D02*
X83870000Y-163540000D01*
X81144015Y-163540000D02*
X82738630Y-163540000D01*
X64513868Y-146909853D02*
X81144015Y-163540000D01*
X64513868Y-135645654D02*
X64513868Y-146909853D01*
X63800295Y-134932081D02*
X64513868Y-135645654D01*
X63800295Y-133730000D02*
X63800295Y-134932081D01*
G04 #@! TO.N,Net-(D10-Pad1)*
X90440819Y-147794045D02*
X92270946Y-147794045D01*
X87940819Y-145294045D02*
X90440819Y-147794045D01*
X94770946Y-150294045D02*
X96601073Y-150294045D01*
X92270946Y-147794045D02*
X94770946Y-150294045D01*
X99101073Y-152794045D02*
X100931200Y-152794045D01*
X96601073Y-150294045D02*
X99101073Y-152794045D01*
X103431200Y-155294045D02*
X105261327Y-155294045D01*
X100931200Y-152794045D02*
X103431200Y-155294045D01*
X107761327Y-157794045D02*
X109591454Y-157794045D01*
X105261327Y-155294045D02*
X107761327Y-157794045D01*
X112091454Y-160294045D02*
X113921581Y-160294045D01*
X109591454Y-157794045D02*
X112091454Y-160294045D01*
X116421581Y-162794045D02*
X118251708Y-162794045D01*
X113921581Y-160294045D02*
X116421581Y-162794045D01*
G04 #@! TO.N,Net-(J1-Pad5)*
X76250000Y-159950000D02*
X76250000Y-161000000D01*
X64063858Y-147763858D02*
X76250000Y-159950000D01*
X64063858Y-136125348D02*
X64063858Y-147763858D01*
X61600591Y-133662081D02*
X64063858Y-136125348D01*
X61600591Y-132460000D02*
X61600591Y-133662081D01*
G04 #@! TD*
D21*
G04 #@! TO.N,GND*
G36*
X83095886Y-90792308D02*
X85837906Y-91041852D01*
X88561721Y-91444069D01*
X91258836Y-91997708D01*
X93920841Y-92701040D01*
X96539434Y-93551872D01*
X99106450Y-94547552D01*
X101613882Y-95684974D01*
X104053913Y-96960591D01*
X106418932Y-98370425D01*
X108701564Y-99910080D01*
X110894691Y-101574754D01*
X112991474Y-103359256D01*
X114985374Y-105258022D01*
X116870173Y-107265129D01*
X118639993Y-109374319D01*
X120289316Y-111579014D01*
X121812998Y-113872339D01*
X123206287Y-116247143D01*
X124464838Y-118696019D01*
X125584727Y-121211331D01*
X126562462Y-123785235D01*
X127394993Y-126409705D01*
X128079723Y-129076555D01*
X128614519Y-131777470D01*
X128997711Y-134504026D01*
X129228106Y-137247722D01*
X129304984Y-140000000D01*
X129285761Y-141376676D01*
X129132064Y-144125735D01*
X128825151Y-146861928D01*
X128365978Y-149576722D01*
X127755977Y-152261651D01*
X126997051Y-154908343D01*
X126091565Y-157508543D01*
X125042344Y-160054144D01*
X123852660Y-162537206D01*
X122526223Y-164949987D01*
X121067168Y-167284961D01*
X119480047Y-169534849D01*
X117769809Y-171692633D01*
X115941787Y-173751584D01*
X114001681Y-175705282D01*
X111955541Y-177547634D01*
X109809750Y-179272895D01*
X107570997Y-180875684D01*
X105246265Y-182351004D01*
X102842804Y-183694253D01*
X100368107Y-184901243D01*
X97829894Y-185968210D01*
X95236078Y-186891826D01*
X92594749Y-187669212D01*
X89914144Y-188297942D01*
X87202621Y-188776057D01*
X84468638Y-189102064D01*
X81720719Y-189274949D01*
X78967434Y-189294171D01*
X76217370Y-189159670D01*
X73479101Y-188871866D01*
X70761167Y-188431657D01*
X68072045Y-187840415D01*
X65420119Y-187099984D01*
X62813661Y-186212673D01*
X60260797Y-185181250D01*
X58194746Y-184209039D01*
X74858096Y-184209039D01*
X75018959Y-184597423D01*
X75394866Y-185012389D01*
X75900959Y-185251914D01*
X76123000Y-185130629D01*
X76123000Y-183987000D01*
X76377000Y-183987000D01*
X76377000Y-185130629D01*
X76599041Y-185251914D01*
X77105134Y-185012389D01*
X77481041Y-184597423D01*
X77641904Y-184209039D01*
X77519915Y-183987000D01*
X76377000Y-183987000D01*
X76123000Y-183987000D01*
X74980085Y-183987000D01*
X74858096Y-184209039D01*
X58194746Y-184209039D01*
X57769490Y-184008929D01*
X55347508Y-182699369D01*
X53002404Y-181256651D01*
X50741491Y-179685276D01*
X48571820Y-177990143D01*
X46500157Y-176176539D01*
X44532963Y-174250120D01*
X42676371Y-172216892D01*
X40936172Y-170083198D01*
X39317792Y-167855689D01*
X37826279Y-165541313D01*
X36466283Y-163147288D01*
X35344273Y-160887013D01*
X39228783Y-160887013D01*
X39228783Y-161497673D01*
X39462473Y-162061850D01*
X39894276Y-162493653D01*
X40298941Y-162661271D01*
X40290711Y-162668488D01*
X40178981Y-162895055D01*
X40162459Y-163147133D01*
X40243660Y-163386345D01*
X41143660Y-164945191D01*
X41310223Y-165135120D01*
X41536790Y-165246850D01*
X41788868Y-165263372D01*
X42028080Y-165182171D01*
X43586926Y-164282171D01*
X43776855Y-164115608D01*
X43888585Y-163889041D01*
X43905107Y-163636963D01*
X43823906Y-163397751D01*
X42923906Y-161838905D01*
X42757343Y-161648976D01*
X42530776Y-161537246D01*
X42288956Y-161521396D01*
X42298783Y-161497673D01*
X42298783Y-160887013D01*
X42065093Y-160322836D01*
X41633290Y-159891033D01*
X41069113Y-159657343D01*
X40458453Y-159657343D01*
X39894276Y-159891033D01*
X39462473Y-160322836D01*
X39228783Y-160887013D01*
X35344273Y-160887013D01*
X35242046Y-160681078D01*
X34258809Y-158387013D01*
X43558910Y-158387013D01*
X43558910Y-158997673D01*
X43792600Y-159561850D01*
X44224403Y-159993653D01*
X44629068Y-160161271D01*
X44620838Y-160168488D01*
X44509108Y-160395055D01*
X44492586Y-160647133D01*
X44573787Y-160886345D01*
X45473787Y-162445191D01*
X45640350Y-162635120D01*
X45866917Y-162746850D01*
X46118995Y-162763372D01*
X46358207Y-162682171D01*
X47917053Y-161782171D01*
X48106982Y-161615608D01*
X48218712Y-161389041D01*
X48235234Y-161136963D01*
X48154033Y-160897751D01*
X47254033Y-159338905D01*
X47087470Y-159148976D01*
X46860903Y-159037246D01*
X46619083Y-159021396D01*
X46628910Y-158997673D01*
X46628910Y-158387013D01*
X46395220Y-157822836D01*
X45963417Y-157391033D01*
X45399240Y-157157343D01*
X44788580Y-157157343D01*
X44224403Y-157391033D01*
X43792600Y-157822836D01*
X43558910Y-158387013D01*
X34258809Y-158387013D01*
X34157385Y-158150375D01*
X33347334Y-155924778D01*
X36467886Y-155924778D01*
X36467886Y-156575222D01*
X36716800Y-157176153D01*
X37176733Y-157636086D01*
X37777664Y-157885000D01*
X38428108Y-157885000D01*
X39029039Y-157636086D01*
X39488972Y-157176153D01*
X39737886Y-156575222D01*
X39737886Y-155924778D01*
X39722244Y-155887013D01*
X47889037Y-155887013D01*
X47889037Y-156497673D01*
X48122727Y-157061850D01*
X48554530Y-157493653D01*
X48959195Y-157661271D01*
X48950965Y-157668488D01*
X48839235Y-157895055D01*
X48822713Y-158147133D01*
X48903914Y-158386345D01*
X49803914Y-159945191D01*
X49970477Y-160135120D01*
X50197044Y-160246850D01*
X50449122Y-160263372D01*
X50688334Y-160182171D01*
X52247180Y-159282171D01*
X52437109Y-159115608D01*
X52548839Y-158889041D01*
X52565361Y-158636963D01*
X52484160Y-158397751D01*
X51584160Y-156838905D01*
X51417597Y-156648976D01*
X51191030Y-156537246D01*
X50949210Y-156521396D01*
X50959037Y-156497673D01*
X50959037Y-155887013D01*
X50725347Y-155322836D01*
X50293544Y-154891033D01*
X49729367Y-154657343D01*
X49118707Y-154657343D01*
X48554530Y-154891033D01*
X48122727Y-155322836D01*
X47889037Y-155887013D01*
X39722244Y-155887013D01*
X39488972Y-155323847D01*
X39029039Y-154863914D01*
X38428108Y-154615000D01*
X37777664Y-154615000D01*
X37176733Y-154863914D01*
X36716800Y-155323847D01*
X36467886Y-155924778D01*
X33347334Y-155924778D01*
X33215683Y-155563071D01*
X32558693Y-153387013D01*
X52219164Y-153387013D01*
X52219164Y-153997673D01*
X52452854Y-154561850D01*
X52884657Y-154993653D01*
X53289322Y-155161271D01*
X53281092Y-155168488D01*
X53169362Y-155395055D01*
X53152840Y-155647133D01*
X53234041Y-155886345D01*
X54134041Y-157445191D01*
X54300604Y-157635120D01*
X54527171Y-157746850D01*
X54779249Y-157763372D01*
X55018461Y-157682171D01*
X56577307Y-156782171D01*
X56767236Y-156615608D01*
X56878966Y-156389041D01*
X56895488Y-156136963D01*
X56814287Y-155897751D01*
X55914287Y-154338905D01*
X55747724Y-154148976D01*
X55521157Y-154037246D01*
X55279337Y-154021396D01*
X55289164Y-153997673D01*
X55289164Y-153387013D01*
X55055474Y-152822836D01*
X54623671Y-152391033D01*
X54059494Y-152157343D01*
X53448834Y-152157343D01*
X52884657Y-152391033D01*
X52452854Y-152822836D01*
X52219164Y-153387013D01*
X32558693Y-153387013D01*
X32419877Y-152927233D01*
X32056395Y-151424778D01*
X44262114Y-151424778D01*
X44262114Y-152075222D01*
X44511028Y-152676153D01*
X44970961Y-153136086D01*
X45571892Y-153385000D01*
X46222336Y-153385000D01*
X46823267Y-153136086D01*
X47283200Y-152676153D01*
X47532114Y-152075222D01*
X47532114Y-151424778D01*
X47309365Y-150887013D01*
X56549291Y-150887013D01*
X56549291Y-151497673D01*
X56782981Y-152061850D01*
X57214784Y-152493653D01*
X57619449Y-152661271D01*
X57611219Y-152668488D01*
X57499489Y-152895055D01*
X57482967Y-153147133D01*
X57564168Y-153386345D01*
X58464168Y-154945191D01*
X58630731Y-155135120D01*
X58857298Y-155246850D01*
X59109376Y-155263372D01*
X59348588Y-155182171D01*
X60907434Y-154282171D01*
X61097363Y-154115608D01*
X61209093Y-153889041D01*
X61225615Y-153636963D01*
X61144414Y-153397751D01*
X60244414Y-151838905D01*
X60077851Y-151648976D01*
X59851284Y-151537246D01*
X59609464Y-151521396D01*
X59619291Y-151497673D01*
X59619291Y-150887013D01*
X59385601Y-150322836D01*
X58953798Y-149891033D01*
X58389621Y-149657343D01*
X57778961Y-149657343D01*
X57214784Y-149891033D01*
X56782981Y-150322836D01*
X56549291Y-150887013D01*
X47309365Y-150887013D01*
X47283200Y-150823847D01*
X46823267Y-150363914D01*
X46222336Y-150115000D01*
X45571892Y-150115000D01*
X44970961Y-150363914D01*
X44511028Y-150823847D01*
X44262114Y-151424778D01*
X32056395Y-151424778D01*
X31772448Y-150251083D01*
X31275415Y-147542964D01*
X30930329Y-144811323D01*
X30738265Y-142064678D01*
X30699822Y-139311595D01*
X30815120Y-136560658D01*
X31083801Y-133820447D01*
X31294408Y-132460000D01*
X60086499Y-132460000D01*
X60201752Y-133039418D01*
X60529966Y-133530625D01*
X60840878Y-133738370D01*
X60884688Y-133958618D01*
X60997985Y-134128178D01*
X61052663Y-134210010D01*
X61116119Y-134252410D01*
X63303858Y-136440150D01*
X63303859Y-147410967D01*
X63283925Y-147391033D01*
X62719748Y-147157343D01*
X62109088Y-147157343D01*
X61544911Y-147391033D01*
X61113108Y-147822836D01*
X60879418Y-148387013D01*
X60879418Y-148997673D01*
X61113108Y-149561850D01*
X61544911Y-149993653D01*
X61949576Y-150161271D01*
X61941346Y-150168488D01*
X61829616Y-150395055D01*
X61813094Y-150647133D01*
X61894295Y-150886345D01*
X62794295Y-152445191D01*
X62960858Y-152635120D01*
X63187425Y-152746850D01*
X63439503Y-152763372D01*
X63678715Y-152682171D01*
X65237561Y-151782171D01*
X65427490Y-151615608D01*
X65539220Y-151389041D01*
X65555742Y-151136963D01*
X65474541Y-150897751D01*
X64588798Y-149363600D01*
X74982256Y-159757059D01*
X74851843Y-159952235D01*
X74802560Y-160200000D01*
X74802560Y-161800000D01*
X74851843Y-162047765D01*
X74992191Y-162257809D01*
X75202235Y-162398157D01*
X75336106Y-162424785D01*
X75215423Y-162505423D01*
X74898260Y-162980091D01*
X74786887Y-163540000D01*
X74898260Y-164099909D01*
X75215423Y-164574577D01*
X75567758Y-164810000D01*
X75215423Y-165045423D01*
X74898260Y-165520091D01*
X74786887Y-166080000D01*
X74898260Y-166639909D01*
X75215423Y-167114577D01*
X75567758Y-167350000D01*
X75215423Y-167585423D01*
X74898260Y-168060091D01*
X74786887Y-168620000D01*
X74898260Y-169179909D01*
X75215423Y-169654577D01*
X75567758Y-169890000D01*
X75215423Y-170125423D01*
X74898260Y-170600091D01*
X74786887Y-171160000D01*
X74898260Y-171719909D01*
X75215423Y-172194577D01*
X75567758Y-172430000D01*
X75215423Y-172665423D01*
X74898260Y-173140091D01*
X74786887Y-173700000D01*
X74898260Y-174259909D01*
X75215423Y-174734577D01*
X75567758Y-174970000D01*
X75215423Y-175205423D01*
X74898260Y-175680091D01*
X74786887Y-176240000D01*
X74898260Y-176799909D01*
X75215423Y-177274577D01*
X75567758Y-177510000D01*
X75215423Y-177745423D01*
X74898260Y-178220091D01*
X74786887Y-178780000D01*
X74898260Y-179339909D01*
X75215423Y-179814577D01*
X75567758Y-180050000D01*
X75215423Y-180285423D01*
X74898260Y-180760091D01*
X74786887Y-181320000D01*
X74898260Y-181879909D01*
X75215423Y-182354577D01*
X75599108Y-182610947D01*
X75394866Y-182707611D01*
X75018959Y-183122577D01*
X74858096Y-183510961D01*
X74980085Y-183733000D01*
X76123000Y-183733000D01*
X76123000Y-183713000D01*
X76377000Y-183713000D01*
X76377000Y-183733000D01*
X77519915Y-183733000D01*
X77641904Y-183510961D01*
X77481041Y-183122577D01*
X77105134Y-182707611D01*
X76900892Y-182610947D01*
X77284577Y-182354577D01*
X77601740Y-181879909D01*
X77713113Y-181320000D01*
X77601740Y-180760091D01*
X77284577Y-180285423D01*
X76932242Y-180050000D01*
X77284577Y-179814577D01*
X77601740Y-179339909D01*
X77713113Y-178780000D01*
X77601740Y-178220091D01*
X77284577Y-177745423D01*
X76932242Y-177510000D01*
X77284577Y-177274577D01*
X77601740Y-176799909D01*
X77713113Y-176240000D01*
X77601740Y-175680091D01*
X77284577Y-175205423D01*
X76932242Y-174970000D01*
X77284577Y-174734577D01*
X77601740Y-174259909D01*
X77713113Y-173700000D01*
X77601740Y-173140091D01*
X77284577Y-172665423D01*
X76932242Y-172430000D01*
X77284577Y-172194577D01*
X77601740Y-171719909D01*
X77713113Y-171160000D01*
X77601740Y-170600091D01*
X77284577Y-170125423D01*
X76932242Y-169890000D01*
X77284577Y-169654577D01*
X77601740Y-169179909D01*
X77713113Y-168620000D01*
X77601740Y-168060091D01*
X77284577Y-167585423D01*
X76932242Y-167350000D01*
X77284577Y-167114577D01*
X77601740Y-166639909D01*
X77713113Y-166080000D01*
X77601740Y-165520091D01*
X77284577Y-165045423D01*
X76932242Y-164810000D01*
X77284577Y-164574577D01*
X77601740Y-164099909D01*
X77713113Y-163540000D01*
X77601740Y-162980091D01*
X77284577Y-162505423D01*
X77163894Y-162424785D01*
X77297765Y-162398157D01*
X77507809Y-162257809D01*
X77648157Y-162047765D01*
X77697440Y-161800000D01*
X77697440Y-161168228D01*
X80553688Y-164024476D01*
X80596086Y-164087929D01*
X80659539Y-164130327D01*
X80659541Y-164130329D01*
X80784917Y-164214102D01*
X80847478Y-164255904D01*
X81069163Y-164300000D01*
X81069167Y-164300000D01*
X81144014Y-164314888D01*
X81218861Y-164300000D01*
X82651957Y-164300000D01*
X82835423Y-164574577D01*
X83187758Y-164810000D01*
X82835423Y-165045423D01*
X82518260Y-165520091D01*
X82406887Y-166080000D01*
X82518260Y-166639909D01*
X82835423Y-167114577D01*
X83187758Y-167350000D01*
X82835423Y-167585423D01*
X82518260Y-168060091D01*
X82406887Y-168620000D01*
X82518260Y-169179909D01*
X82835423Y-169654577D01*
X83187758Y-169890000D01*
X82835423Y-170125423D01*
X82518260Y-170600091D01*
X82406887Y-171160000D01*
X82518260Y-171719909D01*
X82835423Y-172194577D01*
X83187758Y-172430000D01*
X82835423Y-172665423D01*
X82518260Y-173140091D01*
X82406887Y-173700000D01*
X82518260Y-174259909D01*
X82835423Y-174734577D01*
X83187758Y-174970000D01*
X82835423Y-175205423D01*
X82518260Y-175680091D01*
X82406887Y-176240000D01*
X82518260Y-176799909D01*
X82835423Y-177274577D01*
X83187758Y-177510000D01*
X82835423Y-177745423D01*
X82518260Y-178220091D01*
X82406887Y-178780000D01*
X82518260Y-179339909D01*
X82835423Y-179814577D01*
X83187758Y-180050000D01*
X82835423Y-180285423D01*
X82518260Y-180760091D01*
X82406887Y-181320000D01*
X82518260Y-181879909D01*
X82835423Y-182354577D01*
X83187758Y-182590000D01*
X82835423Y-182825423D01*
X82518260Y-183300091D01*
X82406887Y-183860000D01*
X82518260Y-184419909D01*
X82835423Y-184894577D01*
X83310091Y-185211740D01*
X83728667Y-185295000D01*
X84011333Y-185295000D01*
X84429909Y-185211740D01*
X84904577Y-184894577D01*
X85221740Y-184419909D01*
X85333113Y-183860000D01*
X85221740Y-183300091D01*
X84904577Y-182825423D01*
X84552242Y-182590000D01*
X84904577Y-182354577D01*
X85088043Y-182080000D01*
X101105153Y-182080000D01*
X101180000Y-182094888D01*
X101254847Y-182080000D01*
X101254852Y-182080000D01*
X101476537Y-182035904D01*
X101727929Y-181867929D01*
X101770331Y-181804470D01*
X109984473Y-173590329D01*
X110047929Y-173547929D01*
X110090924Y-173483582D01*
X110215904Y-173296538D01*
X110225480Y-173248395D01*
X110260000Y-173074852D01*
X110260000Y-173074848D01*
X110274888Y-173000000D01*
X110260000Y-172925152D01*
X110260000Y-169074846D01*
X110274888Y-168999999D01*
X110260000Y-168925152D01*
X110260000Y-168925148D01*
X110215904Y-168703463D01*
X110140310Y-168590329D01*
X110090329Y-168515526D01*
X110090327Y-168515524D01*
X110047929Y-168452071D01*
X109984476Y-168409673D01*
X108499581Y-166924778D01*
X114262114Y-166924778D01*
X114262114Y-167575222D01*
X114511028Y-168176153D01*
X114970961Y-168636086D01*
X115571892Y-168885000D01*
X116222336Y-168885000D01*
X116823267Y-168636086D01*
X117283200Y-168176153D01*
X117532114Y-167575222D01*
X117532114Y-166924778D01*
X117283200Y-166323847D01*
X116823267Y-165863914D01*
X116222336Y-165615000D01*
X115571892Y-165615000D01*
X114970961Y-165863914D01*
X114511028Y-166323847D01*
X114262114Y-166924778D01*
X108499581Y-166924778D01*
X103999581Y-162424778D01*
X106467886Y-162424778D01*
X106467886Y-163075222D01*
X106716800Y-163676153D01*
X107176733Y-164136086D01*
X107777664Y-164385000D01*
X108428108Y-164385000D01*
X109029039Y-164136086D01*
X109488972Y-163676153D01*
X109737886Y-163075222D01*
X109737886Y-162424778D01*
X109488972Y-161823847D01*
X109029039Y-161363914D01*
X108428108Y-161115000D01*
X107777664Y-161115000D01*
X107176733Y-161363914D01*
X106716800Y-161823847D01*
X106467886Y-162424778D01*
X103999581Y-162424778D01*
X89964873Y-148390071D01*
X90144282Y-148509949D01*
X90365967Y-148554045D01*
X90365972Y-148554045D01*
X90440819Y-148568933D01*
X90515666Y-148554045D01*
X90569426Y-148554045D01*
X90717803Y-148684168D01*
X92276649Y-149584168D01*
X92515861Y-149665369D01*
X92767939Y-149648847D01*
X92957477Y-149555378D01*
X94180616Y-150778517D01*
X94223017Y-150841974D01*
X94474409Y-151009949D01*
X94696094Y-151054045D01*
X94696099Y-151054045D01*
X94770946Y-151068933D01*
X94845793Y-151054045D01*
X94899553Y-151054045D01*
X95047930Y-151184168D01*
X96606776Y-152084168D01*
X96845988Y-152165369D01*
X97098066Y-152148847D01*
X97287604Y-152055378D01*
X98510743Y-153278517D01*
X98553144Y-153341974D01*
X98804536Y-153509949D01*
X99026221Y-153554045D01*
X99026226Y-153554045D01*
X99101073Y-153568933D01*
X99175920Y-153554045D01*
X99229680Y-153554045D01*
X99378057Y-153684168D01*
X100936903Y-154584168D01*
X101176115Y-154665369D01*
X101428193Y-154648847D01*
X101617731Y-154555378D01*
X102840870Y-155778517D01*
X102883271Y-155841974D01*
X103134663Y-156009949D01*
X103356348Y-156054045D01*
X103356353Y-156054045D01*
X103431200Y-156068933D01*
X103506047Y-156054045D01*
X103559807Y-156054045D01*
X103708184Y-156184168D01*
X105267030Y-157084168D01*
X105506242Y-157165369D01*
X105758320Y-157148847D01*
X105947858Y-157055378D01*
X107170997Y-158278517D01*
X107213398Y-158341974D01*
X107464790Y-158509949D01*
X107686475Y-158554045D01*
X107686480Y-158554045D01*
X107761327Y-158568933D01*
X107836174Y-158554045D01*
X107889934Y-158554045D01*
X108038311Y-158684168D01*
X109597157Y-159584168D01*
X109836369Y-159665369D01*
X110088447Y-159648847D01*
X110277985Y-159555378D01*
X111501124Y-160778517D01*
X111543525Y-160841974D01*
X111794917Y-161009949D01*
X112016602Y-161054045D01*
X112016607Y-161054045D01*
X112091454Y-161068933D01*
X112166301Y-161054045D01*
X112220061Y-161054045D01*
X112368438Y-161184168D01*
X113927284Y-162084168D01*
X114166496Y-162165369D01*
X114418574Y-162148847D01*
X114608112Y-162055378D01*
X115831252Y-163278518D01*
X115873652Y-163341974D01*
X116125044Y-163509949D01*
X116346729Y-163554045D01*
X116346734Y-163554045D01*
X116421581Y-163568933D01*
X116496428Y-163554045D01*
X116550188Y-163554045D01*
X116698565Y-163684168D01*
X118257411Y-164584168D01*
X118496623Y-164665369D01*
X118748701Y-164648847D01*
X118975268Y-164537117D01*
X119141831Y-164347188D01*
X120041831Y-162788342D01*
X120123032Y-162549130D01*
X120106510Y-162297052D01*
X119994780Y-162070485D01*
X119986550Y-162063268D01*
X120391215Y-161895650D01*
X120823018Y-161463847D01*
X121056708Y-160899670D01*
X121056708Y-160289010D01*
X120823018Y-159724833D01*
X120391215Y-159293030D01*
X119827038Y-159059340D01*
X119216378Y-159059340D01*
X118652201Y-159293030D01*
X118220398Y-159724833D01*
X117986708Y-160289010D01*
X117986708Y-160899670D01*
X117996535Y-160923393D01*
X117754715Y-160939243D01*
X117528148Y-161050973D01*
X117361585Y-161240902D01*
X116903664Y-162034045D01*
X116736383Y-162034045D01*
X115447791Y-160745453D01*
X115711704Y-160288342D01*
X115792905Y-160049130D01*
X115776383Y-159797052D01*
X115664653Y-159570485D01*
X115656423Y-159563268D01*
X116061088Y-159395650D01*
X116492891Y-158963847D01*
X116726581Y-158399670D01*
X116726581Y-157789010D01*
X116492891Y-157224833D01*
X116061088Y-156793030D01*
X115951791Y-156747758D01*
X115951581Y-156746700D01*
X115951581Y-156746696D01*
X115907485Y-156525011D01*
X115803394Y-156369228D01*
X115781910Y-156337074D01*
X115781908Y-156337072D01*
X115739510Y-156273619D01*
X115676057Y-156231221D01*
X110460364Y-151015530D01*
X110417962Y-150952071D01*
X110166570Y-150784096D01*
X109944885Y-150740000D01*
X109944880Y-150740000D01*
X109870033Y-150725112D01*
X109795186Y-150740000D01*
X107718326Y-150740000D01*
X96090331Y-139112006D01*
X96047929Y-139048547D01*
X95796537Y-138880572D01*
X95574852Y-138836476D01*
X95574847Y-138836476D01*
X95500000Y-138821588D01*
X95425153Y-138836476D01*
X87692277Y-138836476D01*
X87617430Y-138821588D01*
X87542583Y-138836476D01*
X87542579Y-138836476D01*
X87320894Y-138880572D01*
X87069502Y-139048547D01*
X87027102Y-139112003D01*
X84592912Y-141546194D01*
X84835000Y-140961741D01*
X84835000Y-139038259D01*
X84098915Y-137261193D01*
X82738807Y-135901085D01*
X80961741Y-135165000D01*
X79038259Y-135165000D01*
X77261193Y-135901085D01*
X75901085Y-137261193D01*
X75165000Y-139038259D01*
X75165000Y-140961741D01*
X75901085Y-142738807D01*
X77261193Y-144098915D01*
X79038259Y-144835000D01*
X80961741Y-144835000D01*
X82738807Y-144098915D01*
X82839982Y-143997740D01*
X82839981Y-148797954D01*
X82825093Y-148872801D01*
X82839981Y-148947648D01*
X82839981Y-148947652D01*
X82884077Y-149169337D01*
X83052052Y-149420730D01*
X83115511Y-149463132D01*
X83136851Y-149484472D01*
X83265527Y-149613149D01*
X83265530Y-149613151D01*
X90240001Y-156587624D01*
X90240000Y-159935198D01*
X88810198Y-161365001D01*
X85260510Y-161365001D01*
X85333113Y-161000000D01*
X85221740Y-160440091D01*
X84904577Y-159965423D01*
X84429909Y-159648260D01*
X84011333Y-159565000D01*
X83728667Y-159565000D01*
X83546115Y-159601312D01*
X79626937Y-155682136D01*
X79797765Y-155648157D01*
X80007809Y-155507809D01*
X80148157Y-155297765D01*
X80156117Y-155257745D01*
X80421861Y-155257745D01*
X80495995Y-155503864D01*
X81033223Y-155696965D01*
X81603454Y-155669778D01*
X82004005Y-155503864D01*
X82078139Y-155257745D01*
X81250000Y-154429605D01*
X80421861Y-155257745D01*
X80156117Y-155257745D01*
X80194693Y-155063813D01*
X80242255Y-155078139D01*
X81070395Y-154250000D01*
X81429605Y-154250000D01*
X82257745Y-155078139D01*
X82503864Y-155004005D01*
X82696965Y-154466777D01*
X82669778Y-153896546D01*
X82503864Y-153495995D01*
X82257745Y-153421861D01*
X81429605Y-154250000D01*
X81070395Y-154250000D01*
X80242255Y-153421861D01*
X80194693Y-153436187D01*
X80156118Y-153242255D01*
X80421861Y-153242255D01*
X81250000Y-154070395D01*
X82078139Y-153242255D01*
X82004005Y-152996136D01*
X81466777Y-152803035D01*
X80896546Y-152830222D01*
X80495995Y-152996136D01*
X80421861Y-153242255D01*
X80156118Y-153242255D01*
X80148157Y-153202235D01*
X80007809Y-152992191D01*
X79797765Y-152851843D01*
X79550000Y-152802560D01*
X79510000Y-152802560D01*
X79510000Y-149824846D01*
X79524888Y-149749999D01*
X79510000Y-149675152D01*
X79510000Y-149675148D01*
X79465904Y-149453463D01*
X79376297Y-149319357D01*
X79340329Y-149265526D01*
X79340327Y-149265524D01*
X79297929Y-149202071D01*
X79234476Y-149159673D01*
X73190848Y-143116047D01*
X73190848Y-138035989D01*
X73205736Y-137961142D01*
X73190848Y-137886295D01*
X73190848Y-137886291D01*
X73146752Y-137664606D01*
X72978777Y-137413214D01*
X72915321Y-137370814D01*
X68711209Y-133166703D01*
X68784092Y-132800295D01*
X68682647Y-132290295D01*
X77068059Y-132290295D01*
X77293462Y-132440905D01*
X77515147Y-132485001D01*
X77515152Y-132485001D01*
X77589999Y-132499889D01*
X77664846Y-132485001D01*
X81803154Y-132485001D01*
X81878001Y-132499889D01*
X81952848Y-132485001D01*
X81952853Y-132485001D01*
X82174538Y-132440905D01*
X82425930Y-132272930D01*
X82468332Y-132209471D01*
X82629791Y-132048012D01*
X112876760Y-132048012D01*
X113058010Y-132223017D01*
X113604701Y-132123022D01*
X114071511Y-131821428D01*
X114324388Y-131491873D01*
X114263454Y-131247404D01*
X113169803Y-130954361D01*
X112876760Y-132048012D01*
X82629791Y-132048012D01*
X82999474Y-131678330D01*
X83062930Y-131635930D01*
X83230905Y-131384538D01*
X83275001Y-131162853D01*
X83275001Y-131162849D01*
X83289889Y-131088002D01*
X83275001Y-131013155D01*
X83275001Y-130776828D01*
X111655801Y-130776828D01*
X111755796Y-131323519D01*
X112057390Y-131790329D01*
X112386945Y-132043206D01*
X112631414Y-131982272D01*
X112924457Y-130888621D01*
X112254159Y-130709015D01*
X113235543Y-130709015D01*
X114329194Y-131002058D01*
X114504199Y-130820808D01*
X114404204Y-130274117D01*
X114102610Y-129807307D01*
X113773055Y-129554430D01*
X113528586Y-129615364D01*
X113235543Y-130709015D01*
X112254159Y-130709015D01*
X111830806Y-130595578D01*
X111655801Y-130776828D01*
X83275001Y-130776828D01*
X83275001Y-130105763D01*
X111835612Y-130105763D01*
X111896546Y-130350232D01*
X112990197Y-130643275D01*
X113283240Y-129549624D01*
X113101990Y-129374619D01*
X112555299Y-129474614D01*
X112088489Y-129776208D01*
X111835612Y-130105763D01*
X83275001Y-130105763D01*
X83275001Y-112923301D01*
X101523000Y-112923301D01*
X101523000Y-113479063D01*
X101735680Y-113992519D01*
X102128663Y-114385502D01*
X102642119Y-114598182D01*
X103197881Y-114598182D01*
X103711337Y-114385502D01*
X104104320Y-113992519D01*
X104317000Y-113479063D01*
X104317000Y-112923301D01*
X104104320Y-112409845D01*
X103711337Y-112016862D01*
X103197881Y-111804182D01*
X102642119Y-111804182D01*
X102128663Y-112016862D01*
X101735680Y-112409845D01*
X101523000Y-112923301D01*
X83275001Y-112923301D01*
X83275001Y-106299847D01*
X83289889Y-106225000D01*
X83275001Y-106150153D01*
X83275001Y-106150149D01*
X83230905Y-105928464D01*
X83062930Y-105677072D01*
X82999471Y-105634670D01*
X82780330Y-105415529D01*
X82780328Y-105415526D01*
X82779640Y-105414838D01*
X82825000Y-105305330D01*
X82825000Y-104694670D01*
X82591310Y-104130493D01*
X82159507Y-103698690D01*
X81595330Y-103465000D01*
X80984670Y-103465000D01*
X80420493Y-103698690D01*
X80251275Y-103867908D01*
X80248157Y-103852235D01*
X80107809Y-103642191D01*
X79897765Y-103501843D01*
X79650000Y-103452560D01*
X77850000Y-103452560D01*
X77602235Y-103501843D01*
X77392191Y-103642191D01*
X77251843Y-103852235D01*
X77202560Y-104100000D01*
X77202560Y-105900000D01*
X77251843Y-106147765D01*
X77392191Y-106357809D01*
X77602235Y-106498157D01*
X77850000Y-106547440D01*
X79650000Y-106547440D01*
X79897765Y-106498157D01*
X80107809Y-106357809D01*
X80248157Y-106147765D01*
X80251275Y-106132092D01*
X80420493Y-106301310D01*
X80984670Y-106535000D01*
X81595330Y-106535000D01*
X81704838Y-106489640D01*
X81705526Y-106490328D01*
X81705529Y-106490330D01*
X81755002Y-106539803D01*
X81755002Y-108531138D01*
X81595330Y-108465000D01*
X80984670Y-108465000D01*
X80420493Y-108698690D01*
X80251275Y-108867908D01*
X80248157Y-108852235D01*
X80107809Y-108642191D01*
X79897765Y-108501843D01*
X79650000Y-108452560D01*
X77850000Y-108452560D01*
X77602235Y-108501843D01*
X77392191Y-108642191D01*
X77251843Y-108852235D01*
X77202560Y-109100000D01*
X77202560Y-110900000D01*
X77251843Y-111147765D01*
X77392191Y-111357809D01*
X77602235Y-111498157D01*
X77850000Y-111547440D01*
X79650000Y-111547440D01*
X79897765Y-111498157D01*
X80107809Y-111357809D01*
X80248157Y-111147765D01*
X80251275Y-111132092D01*
X80420493Y-111301310D01*
X80984670Y-111535000D01*
X81595330Y-111535000D01*
X81755002Y-111468862D01*
X81755002Y-113531138D01*
X81595330Y-113465000D01*
X80984670Y-113465000D01*
X80420493Y-113698690D01*
X80251275Y-113867908D01*
X80248157Y-113852235D01*
X80107809Y-113642191D01*
X79897765Y-113501843D01*
X79650000Y-113452560D01*
X77850000Y-113452560D01*
X77602235Y-113501843D01*
X77392191Y-113642191D01*
X77251843Y-113852235D01*
X77202560Y-114100000D01*
X77202560Y-115900000D01*
X77251843Y-116147765D01*
X77392191Y-116357809D01*
X77602235Y-116498157D01*
X77850000Y-116547440D01*
X79650000Y-116547440D01*
X79897765Y-116498157D01*
X80107809Y-116357809D01*
X80248157Y-116147765D01*
X80251275Y-116132092D01*
X80420493Y-116301310D01*
X80984670Y-116535000D01*
X81595330Y-116535000D01*
X81755002Y-116468862D01*
X81755002Y-118531138D01*
X81595330Y-118465000D01*
X80984670Y-118465000D01*
X80420493Y-118698690D01*
X80251275Y-118867908D01*
X80248157Y-118852235D01*
X80107809Y-118642191D01*
X79897765Y-118501843D01*
X79650000Y-118452560D01*
X77850000Y-118452560D01*
X77602235Y-118501843D01*
X77392191Y-118642191D01*
X77251843Y-118852235D01*
X77202560Y-119100000D01*
X77202560Y-120900000D01*
X77251843Y-121147765D01*
X77392191Y-121357809D01*
X77602235Y-121498157D01*
X77850000Y-121547440D01*
X79650000Y-121547440D01*
X79897765Y-121498157D01*
X80107809Y-121357809D01*
X80248157Y-121147765D01*
X80251275Y-121132092D01*
X80420493Y-121301310D01*
X80984670Y-121535000D01*
X81595330Y-121535000D01*
X81755001Y-121468862D01*
X81755001Y-123531138D01*
X81595330Y-123465000D01*
X80984670Y-123465000D01*
X80420493Y-123698690D01*
X80251275Y-123867908D01*
X80248157Y-123852235D01*
X80107809Y-123642191D01*
X79897765Y-123501843D01*
X79650000Y-123452560D01*
X77850000Y-123452560D01*
X77602235Y-123501843D01*
X77392191Y-123642191D01*
X77251843Y-123852235D01*
X77202560Y-124100000D01*
X77202560Y-125900000D01*
X77251843Y-126147765D01*
X77392191Y-126357809D01*
X77602235Y-126498157D01*
X77850000Y-126547440D01*
X79650000Y-126547440D01*
X79897765Y-126498157D01*
X80107809Y-126357809D01*
X80248157Y-126147765D01*
X80251275Y-126132092D01*
X80420493Y-126301310D01*
X80984670Y-126535000D01*
X81595330Y-126535000D01*
X81755001Y-126468862D01*
X81755001Y-129031138D01*
X81595330Y-128965000D01*
X80984670Y-128965000D01*
X80420493Y-129198690D01*
X80251275Y-129367908D01*
X80248157Y-129352235D01*
X80107809Y-129142191D01*
X79897765Y-129001843D01*
X79650000Y-128952560D01*
X77850000Y-128952560D01*
X77602235Y-129001843D01*
X77392191Y-129142191D01*
X77251843Y-129352235D01*
X77202560Y-129600000D01*
X77202560Y-130770295D01*
X66348473Y-130770295D01*
X66140920Y-130459670D01*
X65649713Y-130131456D01*
X65216551Y-130045295D01*
X64924039Y-130045295D01*
X64490877Y-130131456D01*
X64334342Y-130236049D01*
X64346329Y-130094608D01*
X64170589Y-129542480D01*
X63900405Y-129190385D01*
X63640654Y-129180507D01*
X63044076Y-130213810D01*
X63061397Y-130223810D01*
X62934397Y-130443780D01*
X62917076Y-130433780D01*
X62907076Y-130451101D01*
X62687106Y-130324101D01*
X62697106Y-130306780D01*
X61663228Y-129709871D01*
X61443782Y-129848630D01*
X61394853Y-130425982D01*
X61569603Y-130975000D01*
X61454335Y-130975000D01*
X61021173Y-131061161D01*
X60529966Y-131389375D01*
X60201752Y-131880582D01*
X60086499Y-132460000D01*
X31294408Y-132460000D01*
X31505024Y-131099506D01*
X31847156Y-129489900D01*
X61790228Y-129489900D01*
X62824106Y-130086810D01*
X63420683Y-129053507D01*
X63282253Y-128833495D01*
X62842238Y-128775556D01*
X62276211Y-128899425D01*
X61800674Y-129230474D01*
X61790228Y-129489900D01*
X31847156Y-129489900D01*
X32077478Y-128406322D01*
X32265425Y-127714561D01*
X51565000Y-127714561D01*
X51565000Y-128285439D01*
X51783466Y-128812862D01*
X52187138Y-129216534D01*
X52714561Y-129435000D01*
X53285439Y-129435000D01*
X53812862Y-129216534D01*
X54216534Y-128812862D01*
X54435000Y-128285439D01*
X54435000Y-127714561D01*
X54250830Y-127269936D01*
X54535439Y-127269936D01*
X55062862Y-127051470D01*
X55466534Y-126647798D01*
X55685000Y-126120375D01*
X55685000Y-125549497D01*
X55466534Y-125022074D01*
X55062862Y-124618402D01*
X54535439Y-124399936D01*
X53964561Y-124399936D01*
X53437138Y-124618402D01*
X53033466Y-125022074D01*
X52815000Y-125549497D01*
X52815000Y-126120375D01*
X52999170Y-126565000D01*
X52714561Y-126565000D01*
X52187138Y-126783466D01*
X51783466Y-127187138D01*
X51565000Y-127714561D01*
X32265425Y-127714561D01*
X32799377Y-125749292D01*
X33668470Y-123136702D01*
X33832615Y-122722119D01*
X41603000Y-122722119D01*
X41603000Y-123277881D01*
X41815680Y-123791337D01*
X42208663Y-124184320D01*
X42722119Y-124397000D01*
X43277881Y-124397000D01*
X43791337Y-124184320D01*
X43933564Y-124042093D01*
X57430286Y-124042093D01*
X57845063Y-124543129D01*
X58420004Y-124847299D01*
X58944555Y-124916357D01*
X59163427Y-124734585D01*
X58807311Y-123405543D01*
X57478269Y-123761658D01*
X57430286Y-124042093D01*
X43933564Y-124042093D01*
X44184320Y-123791337D01*
X44388897Y-123297441D01*
X57230757Y-123297441D01*
X57412529Y-123516313D01*
X58071272Y-123339803D01*
X59052657Y-123339803D01*
X59408772Y-124668845D01*
X59689207Y-124716828D01*
X60190243Y-124302051D01*
X60494413Y-123727110D01*
X60563471Y-123202559D01*
X60381699Y-122983687D01*
X59052657Y-123339803D01*
X58071272Y-123339803D01*
X58741571Y-123160197D01*
X58385456Y-121831155D01*
X58105021Y-121783172D01*
X57603985Y-122197949D01*
X57299815Y-122772890D01*
X57230757Y-123297441D01*
X44388897Y-123297441D01*
X44397000Y-123277881D01*
X44397000Y-122722119D01*
X44184320Y-122208663D01*
X43791337Y-121815680D01*
X43277881Y-121603000D01*
X42722119Y-121603000D01*
X42208663Y-121815680D01*
X41815680Y-122208663D01*
X41603000Y-122722119D01*
X33832615Y-122722119D01*
X34682047Y-120576700D01*
X34891203Y-120124043D01*
X43103000Y-120124043D01*
X43103000Y-120679805D01*
X43315680Y-121193261D01*
X43708663Y-121586244D01*
X44222119Y-121798924D01*
X44777881Y-121798924D01*
X44858779Y-121765415D01*
X58630801Y-121765415D01*
X58986917Y-123094457D01*
X60315959Y-122738342D01*
X60363942Y-122457907D01*
X59949165Y-121956871D01*
X59374224Y-121652701D01*
X58849673Y-121583643D01*
X58630801Y-121765415D01*
X44858779Y-121765415D01*
X45291337Y-121586244D01*
X45684320Y-121193261D01*
X45897000Y-120679805D01*
X45897000Y-120124043D01*
X45684320Y-119610587D01*
X45291337Y-119217604D01*
X44777881Y-119004924D01*
X44222119Y-119004924D01*
X43708663Y-119217604D01*
X43315680Y-119610587D01*
X43103000Y-120124043D01*
X34891203Y-120124043D01*
X35676374Y-118424778D01*
X49467886Y-118424778D01*
X49467886Y-119075222D01*
X49716800Y-119676153D01*
X50176733Y-120136086D01*
X50777664Y-120385000D01*
X51428108Y-120385000D01*
X52029039Y-120136086D01*
X52443006Y-119722119D01*
X66523000Y-119722119D01*
X66523000Y-120277881D01*
X66735680Y-120791337D01*
X67128663Y-121184320D01*
X67642119Y-121397000D01*
X68197881Y-121397000D01*
X68711337Y-121184320D01*
X69104320Y-120791337D01*
X69190000Y-120584487D01*
X69275680Y-120791337D01*
X69668663Y-121184320D01*
X70182119Y-121397000D01*
X70737881Y-121397000D01*
X71251337Y-121184320D01*
X71644320Y-120791337D01*
X71730000Y-120584487D01*
X71815680Y-120791337D01*
X72208663Y-121184320D01*
X72722119Y-121397000D01*
X73277881Y-121397000D01*
X73791337Y-121184320D01*
X74184320Y-120791337D01*
X74397000Y-120277881D01*
X74397000Y-119722119D01*
X74184320Y-119208663D01*
X73791337Y-118815680D01*
X73277881Y-118603000D01*
X72722119Y-118603000D01*
X72208663Y-118815680D01*
X71815680Y-119208663D01*
X71730000Y-119415513D01*
X71644320Y-119208663D01*
X71251337Y-118815680D01*
X70737881Y-118603000D01*
X70182119Y-118603000D01*
X69668663Y-118815680D01*
X69275680Y-119208663D01*
X69190000Y-119415513D01*
X69104320Y-119208663D01*
X68711337Y-118815680D01*
X68197881Y-118603000D01*
X67642119Y-118603000D01*
X67128663Y-118815680D01*
X66735680Y-119208663D01*
X66523000Y-119722119D01*
X52443006Y-119722119D01*
X52488972Y-119676153D01*
X52737886Y-119075222D01*
X52737886Y-118424778D01*
X52488972Y-117823847D01*
X52029039Y-117363914D01*
X51428108Y-117115000D01*
X50777664Y-117115000D01*
X50176733Y-117363914D01*
X49716800Y-117823847D01*
X49467886Y-118424778D01*
X35676374Y-118424778D01*
X35836946Y-118077270D01*
X37129566Y-115646204D01*
X38555877Y-113291085D01*
X40111430Y-111019258D01*
X41791374Y-108837805D01*
X43590471Y-106753532D01*
X45503110Y-104772936D01*
X47228964Y-103174778D01*
X85365000Y-103174778D01*
X85365000Y-103825222D01*
X85613914Y-104426153D01*
X86073847Y-104886086D01*
X86674778Y-105135000D01*
X87325222Y-105135000D01*
X87926153Y-104886086D01*
X88386086Y-104426153D01*
X88635000Y-103825222D01*
X88635000Y-103174778D01*
X88386086Y-102573847D01*
X87926153Y-102113914D01*
X87325222Y-101865000D01*
X86674778Y-101865000D01*
X86073847Y-102113914D01*
X85613914Y-102573847D01*
X85365000Y-103174778D01*
X47228964Y-103174778D01*
X47523327Y-102902195D01*
X49644821Y-101147142D01*
X51860977Y-99513251D01*
X52492490Y-99100000D01*
X77202560Y-99100000D01*
X77202560Y-100900000D01*
X77251843Y-101147765D01*
X77392191Y-101357809D01*
X77602235Y-101498157D01*
X77850000Y-101547440D01*
X79650000Y-101547440D01*
X79897765Y-101498157D01*
X80107809Y-101357809D01*
X80248157Y-101147765D01*
X80251275Y-101132092D01*
X80420493Y-101301310D01*
X80984670Y-101535000D01*
X81595330Y-101535000D01*
X82159507Y-101301310D01*
X82591310Y-100869507D01*
X82825000Y-100305330D01*
X82825000Y-99694670D01*
X82591310Y-99130493D01*
X82159507Y-98698690D01*
X81595330Y-98465000D01*
X80984670Y-98465000D01*
X80420493Y-98698690D01*
X80251275Y-98867908D01*
X80248157Y-98852235D01*
X80107809Y-98642191D01*
X79897765Y-98501843D01*
X79650000Y-98452560D01*
X77850000Y-98452560D01*
X77602235Y-98501843D01*
X77392191Y-98642191D01*
X77251843Y-98852235D01*
X77202560Y-99100000D01*
X52492490Y-99100000D01*
X54164883Y-98005617D01*
X56549356Y-96628941D01*
X59006959Y-95387517D01*
X61530028Y-94285215D01*
X62028055Y-94100000D01*
X77202560Y-94100000D01*
X77202560Y-95900000D01*
X77251843Y-96147765D01*
X77392191Y-96357809D01*
X77602235Y-96498157D01*
X77850000Y-96547440D01*
X79650000Y-96547440D01*
X79897765Y-96498157D01*
X80107809Y-96357809D01*
X80248157Y-96147765D01*
X80251275Y-96132092D01*
X80420493Y-96301310D01*
X80984670Y-96535000D01*
X81595330Y-96535000D01*
X82159507Y-96301310D01*
X82591310Y-95869507D01*
X82825000Y-95305330D01*
X82825000Y-94694670D01*
X82609654Y-94174778D01*
X85365000Y-94174778D01*
X85365000Y-94825222D01*
X85613914Y-95426153D01*
X86073847Y-95886086D01*
X86674778Y-96135000D01*
X87325222Y-96135000D01*
X87926153Y-95886086D01*
X88386086Y-95426153D01*
X88635000Y-94825222D01*
X88635000Y-94174778D01*
X88386086Y-93573847D01*
X87926153Y-93113914D01*
X87325222Y-92865000D01*
X86674778Y-92865000D01*
X86073847Y-93113914D01*
X85613914Y-93573847D01*
X85365000Y-94174778D01*
X82609654Y-94174778D01*
X82591310Y-94130493D01*
X82159507Y-93698690D01*
X81595330Y-93465000D01*
X80984670Y-93465000D01*
X80420493Y-93698690D01*
X80251275Y-93867908D01*
X80248157Y-93852235D01*
X80107809Y-93642191D01*
X79897765Y-93501843D01*
X79650000Y-93452560D01*
X77850000Y-93452560D01*
X77602235Y-93501843D01*
X77392191Y-93642191D01*
X77251843Y-93852235D01*
X77202560Y-94100000D01*
X62028055Y-94100000D01*
X64110695Y-93325473D01*
X66740913Y-92511285D01*
X69412478Y-91845189D01*
X72117061Y-91329262D01*
X74846226Y-90965114D01*
X77591463Y-90753879D01*
X80344211Y-90696218D01*
X83095886Y-90792308D01*
X83095886Y-90792308D01*
G37*
X83095886Y-90792308D02*
X85837906Y-91041852D01*
X88561721Y-91444069D01*
X91258836Y-91997708D01*
X93920841Y-92701040D01*
X96539434Y-93551872D01*
X99106450Y-94547552D01*
X101613882Y-95684974D01*
X104053913Y-96960591D01*
X106418932Y-98370425D01*
X108701564Y-99910080D01*
X110894691Y-101574754D01*
X112991474Y-103359256D01*
X114985374Y-105258022D01*
X116870173Y-107265129D01*
X118639993Y-109374319D01*
X120289316Y-111579014D01*
X121812998Y-113872339D01*
X123206287Y-116247143D01*
X124464838Y-118696019D01*
X125584727Y-121211331D01*
X126562462Y-123785235D01*
X127394993Y-126409705D01*
X128079723Y-129076555D01*
X128614519Y-131777470D01*
X128997711Y-134504026D01*
X129228106Y-137247722D01*
X129304984Y-140000000D01*
X129285761Y-141376676D01*
X129132064Y-144125735D01*
X128825151Y-146861928D01*
X128365978Y-149576722D01*
X127755977Y-152261651D01*
X126997051Y-154908343D01*
X126091565Y-157508543D01*
X125042344Y-160054144D01*
X123852660Y-162537206D01*
X122526223Y-164949987D01*
X121067168Y-167284961D01*
X119480047Y-169534849D01*
X117769809Y-171692633D01*
X115941787Y-173751584D01*
X114001681Y-175705282D01*
X111955541Y-177547634D01*
X109809750Y-179272895D01*
X107570997Y-180875684D01*
X105246265Y-182351004D01*
X102842804Y-183694253D01*
X100368107Y-184901243D01*
X97829894Y-185968210D01*
X95236078Y-186891826D01*
X92594749Y-187669212D01*
X89914144Y-188297942D01*
X87202621Y-188776057D01*
X84468638Y-189102064D01*
X81720719Y-189274949D01*
X78967434Y-189294171D01*
X76217370Y-189159670D01*
X73479101Y-188871866D01*
X70761167Y-188431657D01*
X68072045Y-187840415D01*
X65420119Y-187099984D01*
X62813661Y-186212673D01*
X60260797Y-185181250D01*
X58194746Y-184209039D01*
X74858096Y-184209039D01*
X75018959Y-184597423D01*
X75394866Y-185012389D01*
X75900959Y-185251914D01*
X76123000Y-185130629D01*
X76123000Y-183987000D01*
X76377000Y-183987000D01*
X76377000Y-185130629D01*
X76599041Y-185251914D01*
X77105134Y-185012389D01*
X77481041Y-184597423D01*
X77641904Y-184209039D01*
X77519915Y-183987000D01*
X76377000Y-183987000D01*
X76123000Y-183987000D01*
X74980085Y-183987000D01*
X74858096Y-184209039D01*
X58194746Y-184209039D01*
X57769490Y-184008929D01*
X55347508Y-182699369D01*
X53002404Y-181256651D01*
X50741491Y-179685276D01*
X48571820Y-177990143D01*
X46500157Y-176176539D01*
X44532963Y-174250120D01*
X42676371Y-172216892D01*
X40936172Y-170083198D01*
X39317792Y-167855689D01*
X37826279Y-165541313D01*
X36466283Y-163147288D01*
X35344273Y-160887013D01*
X39228783Y-160887013D01*
X39228783Y-161497673D01*
X39462473Y-162061850D01*
X39894276Y-162493653D01*
X40298941Y-162661271D01*
X40290711Y-162668488D01*
X40178981Y-162895055D01*
X40162459Y-163147133D01*
X40243660Y-163386345D01*
X41143660Y-164945191D01*
X41310223Y-165135120D01*
X41536790Y-165246850D01*
X41788868Y-165263372D01*
X42028080Y-165182171D01*
X43586926Y-164282171D01*
X43776855Y-164115608D01*
X43888585Y-163889041D01*
X43905107Y-163636963D01*
X43823906Y-163397751D01*
X42923906Y-161838905D01*
X42757343Y-161648976D01*
X42530776Y-161537246D01*
X42288956Y-161521396D01*
X42298783Y-161497673D01*
X42298783Y-160887013D01*
X42065093Y-160322836D01*
X41633290Y-159891033D01*
X41069113Y-159657343D01*
X40458453Y-159657343D01*
X39894276Y-159891033D01*
X39462473Y-160322836D01*
X39228783Y-160887013D01*
X35344273Y-160887013D01*
X35242046Y-160681078D01*
X34258809Y-158387013D01*
X43558910Y-158387013D01*
X43558910Y-158997673D01*
X43792600Y-159561850D01*
X44224403Y-159993653D01*
X44629068Y-160161271D01*
X44620838Y-160168488D01*
X44509108Y-160395055D01*
X44492586Y-160647133D01*
X44573787Y-160886345D01*
X45473787Y-162445191D01*
X45640350Y-162635120D01*
X45866917Y-162746850D01*
X46118995Y-162763372D01*
X46358207Y-162682171D01*
X47917053Y-161782171D01*
X48106982Y-161615608D01*
X48218712Y-161389041D01*
X48235234Y-161136963D01*
X48154033Y-160897751D01*
X47254033Y-159338905D01*
X47087470Y-159148976D01*
X46860903Y-159037246D01*
X46619083Y-159021396D01*
X46628910Y-158997673D01*
X46628910Y-158387013D01*
X46395220Y-157822836D01*
X45963417Y-157391033D01*
X45399240Y-157157343D01*
X44788580Y-157157343D01*
X44224403Y-157391033D01*
X43792600Y-157822836D01*
X43558910Y-158387013D01*
X34258809Y-158387013D01*
X34157385Y-158150375D01*
X33347334Y-155924778D01*
X36467886Y-155924778D01*
X36467886Y-156575222D01*
X36716800Y-157176153D01*
X37176733Y-157636086D01*
X37777664Y-157885000D01*
X38428108Y-157885000D01*
X39029039Y-157636086D01*
X39488972Y-157176153D01*
X39737886Y-156575222D01*
X39737886Y-155924778D01*
X39722244Y-155887013D01*
X47889037Y-155887013D01*
X47889037Y-156497673D01*
X48122727Y-157061850D01*
X48554530Y-157493653D01*
X48959195Y-157661271D01*
X48950965Y-157668488D01*
X48839235Y-157895055D01*
X48822713Y-158147133D01*
X48903914Y-158386345D01*
X49803914Y-159945191D01*
X49970477Y-160135120D01*
X50197044Y-160246850D01*
X50449122Y-160263372D01*
X50688334Y-160182171D01*
X52247180Y-159282171D01*
X52437109Y-159115608D01*
X52548839Y-158889041D01*
X52565361Y-158636963D01*
X52484160Y-158397751D01*
X51584160Y-156838905D01*
X51417597Y-156648976D01*
X51191030Y-156537246D01*
X50949210Y-156521396D01*
X50959037Y-156497673D01*
X50959037Y-155887013D01*
X50725347Y-155322836D01*
X50293544Y-154891033D01*
X49729367Y-154657343D01*
X49118707Y-154657343D01*
X48554530Y-154891033D01*
X48122727Y-155322836D01*
X47889037Y-155887013D01*
X39722244Y-155887013D01*
X39488972Y-155323847D01*
X39029039Y-154863914D01*
X38428108Y-154615000D01*
X37777664Y-154615000D01*
X37176733Y-154863914D01*
X36716800Y-155323847D01*
X36467886Y-155924778D01*
X33347334Y-155924778D01*
X33215683Y-155563071D01*
X32558693Y-153387013D01*
X52219164Y-153387013D01*
X52219164Y-153997673D01*
X52452854Y-154561850D01*
X52884657Y-154993653D01*
X53289322Y-155161271D01*
X53281092Y-155168488D01*
X53169362Y-155395055D01*
X53152840Y-155647133D01*
X53234041Y-155886345D01*
X54134041Y-157445191D01*
X54300604Y-157635120D01*
X54527171Y-157746850D01*
X54779249Y-157763372D01*
X55018461Y-157682171D01*
X56577307Y-156782171D01*
X56767236Y-156615608D01*
X56878966Y-156389041D01*
X56895488Y-156136963D01*
X56814287Y-155897751D01*
X55914287Y-154338905D01*
X55747724Y-154148976D01*
X55521157Y-154037246D01*
X55279337Y-154021396D01*
X55289164Y-153997673D01*
X55289164Y-153387013D01*
X55055474Y-152822836D01*
X54623671Y-152391033D01*
X54059494Y-152157343D01*
X53448834Y-152157343D01*
X52884657Y-152391033D01*
X52452854Y-152822836D01*
X52219164Y-153387013D01*
X32558693Y-153387013D01*
X32419877Y-152927233D01*
X32056395Y-151424778D01*
X44262114Y-151424778D01*
X44262114Y-152075222D01*
X44511028Y-152676153D01*
X44970961Y-153136086D01*
X45571892Y-153385000D01*
X46222336Y-153385000D01*
X46823267Y-153136086D01*
X47283200Y-152676153D01*
X47532114Y-152075222D01*
X47532114Y-151424778D01*
X47309365Y-150887013D01*
X56549291Y-150887013D01*
X56549291Y-151497673D01*
X56782981Y-152061850D01*
X57214784Y-152493653D01*
X57619449Y-152661271D01*
X57611219Y-152668488D01*
X57499489Y-152895055D01*
X57482967Y-153147133D01*
X57564168Y-153386345D01*
X58464168Y-154945191D01*
X58630731Y-155135120D01*
X58857298Y-155246850D01*
X59109376Y-155263372D01*
X59348588Y-155182171D01*
X60907434Y-154282171D01*
X61097363Y-154115608D01*
X61209093Y-153889041D01*
X61225615Y-153636963D01*
X61144414Y-153397751D01*
X60244414Y-151838905D01*
X60077851Y-151648976D01*
X59851284Y-151537246D01*
X59609464Y-151521396D01*
X59619291Y-151497673D01*
X59619291Y-150887013D01*
X59385601Y-150322836D01*
X58953798Y-149891033D01*
X58389621Y-149657343D01*
X57778961Y-149657343D01*
X57214784Y-149891033D01*
X56782981Y-150322836D01*
X56549291Y-150887013D01*
X47309365Y-150887013D01*
X47283200Y-150823847D01*
X46823267Y-150363914D01*
X46222336Y-150115000D01*
X45571892Y-150115000D01*
X44970961Y-150363914D01*
X44511028Y-150823847D01*
X44262114Y-151424778D01*
X32056395Y-151424778D01*
X31772448Y-150251083D01*
X31275415Y-147542964D01*
X30930329Y-144811323D01*
X30738265Y-142064678D01*
X30699822Y-139311595D01*
X30815120Y-136560658D01*
X31083801Y-133820447D01*
X31294408Y-132460000D01*
X60086499Y-132460000D01*
X60201752Y-133039418D01*
X60529966Y-133530625D01*
X60840878Y-133738370D01*
X60884688Y-133958618D01*
X60997985Y-134128178D01*
X61052663Y-134210010D01*
X61116119Y-134252410D01*
X63303858Y-136440150D01*
X63303859Y-147410967D01*
X63283925Y-147391033D01*
X62719748Y-147157343D01*
X62109088Y-147157343D01*
X61544911Y-147391033D01*
X61113108Y-147822836D01*
X60879418Y-148387013D01*
X60879418Y-148997673D01*
X61113108Y-149561850D01*
X61544911Y-149993653D01*
X61949576Y-150161271D01*
X61941346Y-150168488D01*
X61829616Y-150395055D01*
X61813094Y-150647133D01*
X61894295Y-150886345D01*
X62794295Y-152445191D01*
X62960858Y-152635120D01*
X63187425Y-152746850D01*
X63439503Y-152763372D01*
X63678715Y-152682171D01*
X65237561Y-151782171D01*
X65427490Y-151615608D01*
X65539220Y-151389041D01*
X65555742Y-151136963D01*
X65474541Y-150897751D01*
X64588798Y-149363600D01*
X74982256Y-159757059D01*
X74851843Y-159952235D01*
X74802560Y-160200000D01*
X74802560Y-161800000D01*
X74851843Y-162047765D01*
X74992191Y-162257809D01*
X75202235Y-162398157D01*
X75336106Y-162424785D01*
X75215423Y-162505423D01*
X74898260Y-162980091D01*
X74786887Y-163540000D01*
X74898260Y-164099909D01*
X75215423Y-164574577D01*
X75567758Y-164810000D01*
X75215423Y-165045423D01*
X74898260Y-165520091D01*
X74786887Y-166080000D01*
X74898260Y-166639909D01*
X75215423Y-167114577D01*
X75567758Y-167350000D01*
X75215423Y-167585423D01*
X74898260Y-168060091D01*
X74786887Y-168620000D01*
X74898260Y-169179909D01*
X75215423Y-169654577D01*
X75567758Y-169890000D01*
X75215423Y-170125423D01*
X74898260Y-170600091D01*
X74786887Y-171160000D01*
X74898260Y-171719909D01*
X75215423Y-172194577D01*
X75567758Y-172430000D01*
X75215423Y-172665423D01*
X74898260Y-173140091D01*
X74786887Y-173700000D01*
X74898260Y-174259909D01*
X75215423Y-174734577D01*
X75567758Y-174970000D01*
X75215423Y-175205423D01*
X74898260Y-175680091D01*
X74786887Y-176240000D01*
X74898260Y-176799909D01*
X75215423Y-177274577D01*
X75567758Y-177510000D01*
X75215423Y-177745423D01*
X74898260Y-178220091D01*
X74786887Y-178780000D01*
X74898260Y-179339909D01*
X75215423Y-179814577D01*
X75567758Y-180050000D01*
X75215423Y-180285423D01*
X74898260Y-180760091D01*
X74786887Y-181320000D01*
X74898260Y-181879909D01*
X75215423Y-182354577D01*
X75599108Y-182610947D01*
X75394866Y-182707611D01*
X75018959Y-183122577D01*
X74858096Y-183510961D01*
X74980085Y-183733000D01*
X76123000Y-183733000D01*
X76123000Y-183713000D01*
X76377000Y-183713000D01*
X76377000Y-183733000D01*
X77519915Y-183733000D01*
X77641904Y-183510961D01*
X77481041Y-183122577D01*
X77105134Y-182707611D01*
X76900892Y-182610947D01*
X77284577Y-182354577D01*
X77601740Y-181879909D01*
X77713113Y-181320000D01*
X77601740Y-180760091D01*
X77284577Y-180285423D01*
X76932242Y-180050000D01*
X77284577Y-179814577D01*
X77601740Y-179339909D01*
X77713113Y-178780000D01*
X77601740Y-178220091D01*
X77284577Y-177745423D01*
X76932242Y-177510000D01*
X77284577Y-177274577D01*
X77601740Y-176799909D01*
X77713113Y-176240000D01*
X77601740Y-175680091D01*
X77284577Y-175205423D01*
X76932242Y-174970000D01*
X77284577Y-174734577D01*
X77601740Y-174259909D01*
X77713113Y-173700000D01*
X77601740Y-173140091D01*
X77284577Y-172665423D01*
X76932242Y-172430000D01*
X77284577Y-172194577D01*
X77601740Y-171719909D01*
X77713113Y-171160000D01*
X77601740Y-170600091D01*
X77284577Y-170125423D01*
X76932242Y-169890000D01*
X77284577Y-169654577D01*
X77601740Y-169179909D01*
X77713113Y-168620000D01*
X77601740Y-168060091D01*
X77284577Y-167585423D01*
X76932242Y-167350000D01*
X77284577Y-167114577D01*
X77601740Y-166639909D01*
X77713113Y-166080000D01*
X77601740Y-165520091D01*
X77284577Y-165045423D01*
X76932242Y-164810000D01*
X77284577Y-164574577D01*
X77601740Y-164099909D01*
X77713113Y-163540000D01*
X77601740Y-162980091D01*
X77284577Y-162505423D01*
X77163894Y-162424785D01*
X77297765Y-162398157D01*
X77507809Y-162257809D01*
X77648157Y-162047765D01*
X77697440Y-161800000D01*
X77697440Y-161168228D01*
X80553688Y-164024476D01*
X80596086Y-164087929D01*
X80659539Y-164130327D01*
X80659541Y-164130329D01*
X80784917Y-164214102D01*
X80847478Y-164255904D01*
X81069163Y-164300000D01*
X81069167Y-164300000D01*
X81144014Y-164314888D01*
X81218861Y-164300000D01*
X82651957Y-164300000D01*
X82835423Y-164574577D01*
X83187758Y-164810000D01*
X82835423Y-165045423D01*
X82518260Y-165520091D01*
X82406887Y-166080000D01*
X82518260Y-166639909D01*
X82835423Y-167114577D01*
X83187758Y-167350000D01*
X82835423Y-167585423D01*
X82518260Y-168060091D01*
X82406887Y-168620000D01*
X82518260Y-169179909D01*
X82835423Y-169654577D01*
X83187758Y-169890000D01*
X82835423Y-170125423D01*
X82518260Y-170600091D01*
X82406887Y-171160000D01*
X82518260Y-171719909D01*
X82835423Y-172194577D01*
X83187758Y-172430000D01*
X82835423Y-172665423D01*
X82518260Y-173140091D01*
X82406887Y-173700000D01*
X82518260Y-174259909D01*
X82835423Y-174734577D01*
X83187758Y-174970000D01*
X82835423Y-175205423D01*
X82518260Y-175680091D01*
X82406887Y-176240000D01*
X82518260Y-176799909D01*
X82835423Y-177274577D01*
X83187758Y-177510000D01*
X82835423Y-177745423D01*
X82518260Y-178220091D01*
X82406887Y-178780000D01*
X82518260Y-179339909D01*
X82835423Y-179814577D01*
X83187758Y-180050000D01*
X82835423Y-180285423D01*
X82518260Y-180760091D01*
X82406887Y-181320000D01*
X82518260Y-181879909D01*
X82835423Y-182354577D01*
X83187758Y-182590000D01*
X82835423Y-182825423D01*
X82518260Y-183300091D01*
X82406887Y-183860000D01*
X82518260Y-184419909D01*
X82835423Y-184894577D01*
X83310091Y-185211740D01*
X83728667Y-185295000D01*
X84011333Y-185295000D01*
X84429909Y-185211740D01*
X84904577Y-184894577D01*
X85221740Y-184419909D01*
X85333113Y-183860000D01*
X85221740Y-183300091D01*
X84904577Y-182825423D01*
X84552242Y-182590000D01*
X84904577Y-182354577D01*
X85088043Y-182080000D01*
X101105153Y-182080000D01*
X101180000Y-182094888D01*
X101254847Y-182080000D01*
X101254852Y-182080000D01*
X101476537Y-182035904D01*
X101727929Y-181867929D01*
X101770331Y-181804470D01*
X109984473Y-173590329D01*
X110047929Y-173547929D01*
X110090924Y-173483582D01*
X110215904Y-173296538D01*
X110225480Y-173248395D01*
X110260000Y-173074852D01*
X110260000Y-173074848D01*
X110274888Y-173000000D01*
X110260000Y-172925152D01*
X110260000Y-169074846D01*
X110274888Y-168999999D01*
X110260000Y-168925152D01*
X110260000Y-168925148D01*
X110215904Y-168703463D01*
X110140310Y-168590329D01*
X110090329Y-168515526D01*
X110090327Y-168515524D01*
X110047929Y-168452071D01*
X109984476Y-168409673D01*
X108499581Y-166924778D01*
X114262114Y-166924778D01*
X114262114Y-167575222D01*
X114511028Y-168176153D01*
X114970961Y-168636086D01*
X115571892Y-168885000D01*
X116222336Y-168885000D01*
X116823267Y-168636086D01*
X117283200Y-168176153D01*
X117532114Y-167575222D01*
X117532114Y-166924778D01*
X117283200Y-166323847D01*
X116823267Y-165863914D01*
X116222336Y-165615000D01*
X115571892Y-165615000D01*
X114970961Y-165863914D01*
X114511028Y-166323847D01*
X114262114Y-166924778D01*
X108499581Y-166924778D01*
X103999581Y-162424778D01*
X106467886Y-162424778D01*
X106467886Y-163075222D01*
X106716800Y-163676153D01*
X107176733Y-164136086D01*
X107777664Y-164385000D01*
X108428108Y-164385000D01*
X109029039Y-164136086D01*
X109488972Y-163676153D01*
X109737886Y-163075222D01*
X109737886Y-162424778D01*
X109488972Y-161823847D01*
X109029039Y-161363914D01*
X108428108Y-161115000D01*
X107777664Y-161115000D01*
X107176733Y-161363914D01*
X106716800Y-161823847D01*
X106467886Y-162424778D01*
X103999581Y-162424778D01*
X89964873Y-148390071D01*
X90144282Y-148509949D01*
X90365967Y-148554045D01*
X90365972Y-148554045D01*
X90440819Y-148568933D01*
X90515666Y-148554045D01*
X90569426Y-148554045D01*
X90717803Y-148684168D01*
X92276649Y-149584168D01*
X92515861Y-149665369D01*
X92767939Y-149648847D01*
X92957477Y-149555378D01*
X94180616Y-150778517D01*
X94223017Y-150841974D01*
X94474409Y-151009949D01*
X94696094Y-151054045D01*
X94696099Y-151054045D01*
X94770946Y-151068933D01*
X94845793Y-151054045D01*
X94899553Y-151054045D01*
X95047930Y-151184168D01*
X96606776Y-152084168D01*
X96845988Y-152165369D01*
X97098066Y-152148847D01*
X97287604Y-152055378D01*
X98510743Y-153278517D01*
X98553144Y-153341974D01*
X98804536Y-153509949D01*
X99026221Y-153554045D01*
X99026226Y-153554045D01*
X99101073Y-153568933D01*
X99175920Y-153554045D01*
X99229680Y-153554045D01*
X99378057Y-153684168D01*
X100936903Y-154584168D01*
X101176115Y-154665369D01*
X101428193Y-154648847D01*
X101617731Y-154555378D01*
X102840870Y-155778517D01*
X102883271Y-155841974D01*
X103134663Y-156009949D01*
X103356348Y-156054045D01*
X103356353Y-156054045D01*
X103431200Y-156068933D01*
X103506047Y-156054045D01*
X103559807Y-156054045D01*
X103708184Y-156184168D01*
X105267030Y-157084168D01*
X105506242Y-157165369D01*
X105758320Y-157148847D01*
X105947858Y-157055378D01*
X107170997Y-158278517D01*
X107213398Y-158341974D01*
X107464790Y-158509949D01*
X107686475Y-158554045D01*
X107686480Y-158554045D01*
X107761327Y-158568933D01*
X107836174Y-158554045D01*
X107889934Y-158554045D01*
X108038311Y-158684168D01*
X109597157Y-159584168D01*
X109836369Y-159665369D01*
X110088447Y-159648847D01*
X110277985Y-159555378D01*
X111501124Y-160778517D01*
X111543525Y-160841974D01*
X111794917Y-161009949D01*
X112016602Y-161054045D01*
X112016607Y-161054045D01*
X112091454Y-161068933D01*
X112166301Y-161054045D01*
X112220061Y-161054045D01*
X112368438Y-161184168D01*
X113927284Y-162084168D01*
X114166496Y-162165369D01*
X114418574Y-162148847D01*
X114608112Y-162055378D01*
X115831252Y-163278518D01*
X115873652Y-163341974D01*
X116125044Y-163509949D01*
X116346729Y-163554045D01*
X116346734Y-163554045D01*
X116421581Y-163568933D01*
X116496428Y-163554045D01*
X116550188Y-163554045D01*
X116698565Y-163684168D01*
X118257411Y-164584168D01*
X118496623Y-164665369D01*
X118748701Y-164648847D01*
X118975268Y-164537117D01*
X119141831Y-164347188D01*
X120041831Y-162788342D01*
X120123032Y-162549130D01*
X120106510Y-162297052D01*
X119994780Y-162070485D01*
X119986550Y-162063268D01*
X120391215Y-161895650D01*
X120823018Y-161463847D01*
X121056708Y-160899670D01*
X121056708Y-160289010D01*
X120823018Y-159724833D01*
X120391215Y-159293030D01*
X119827038Y-159059340D01*
X119216378Y-159059340D01*
X118652201Y-159293030D01*
X118220398Y-159724833D01*
X117986708Y-160289010D01*
X117986708Y-160899670D01*
X117996535Y-160923393D01*
X117754715Y-160939243D01*
X117528148Y-161050973D01*
X117361585Y-161240902D01*
X116903664Y-162034045D01*
X116736383Y-162034045D01*
X115447791Y-160745453D01*
X115711704Y-160288342D01*
X115792905Y-160049130D01*
X115776383Y-159797052D01*
X115664653Y-159570485D01*
X115656423Y-159563268D01*
X116061088Y-159395650D01*
X116492891Y-158963847D01*
X116726581Y-158399670D01*
X116726581Y-157789010D01*
X116492891Y-157224833D01*
X116061088Y-156793030D01*
X115951791Y-156747758D01*
X115951581Y-156746700D01*
X115951581Y-156746696D01*
X115907485Y-156525011D01*
X115803394Y-156369228D01*
X115781910Y-156337074D01*
X115781908Y-156337072D01*
X115739510Y-156273619D01*
X115676057Y-156231221D01*
X110460364Y-151015530D01*
X110417962Y-150952071D01*
X110166570Y-150784096D01*
X109944885Y-150740000D01*
X109944880Y-150740000D01*
X109870033Y-150725112D01*
X109795186Y-150740000D01*
X107718326Y-150740000D01*
X96090331Y-139112006D01*
X96047929Y-139048547D01*
X95796537Y-138880572D01*
X95574852Y-138836476D01*
X95574847Y-138836476D01*
X95500000Y-138821588D01*
X95425153Y-138836476D01*
X87692277Y-138836476D01*
X87617430Y-138821588D01*
X87542583Y-138836476D01*
X87542579Y-138836476D01*
X87320894Y-138880572D01*
X87069502Y-139048547D01*
X87027102Y-139112003D01*
X84592912Y-141546194D01*
X84835000Y-140961741D01*
X84835000Y-139038259D01*
X84098915Y-137261193D01*
X82738807Y-135901085D01*
X80961741Y-135165000D01*
X79038259Y-135165000D01*
X77261193Y-135901085D01*
X75901085Y-137261193D01*
X75165000Y-139038259D01*
X75165000Y-140961741D01*
X75901085Y-142738807D01*
X77261193Y-144098915D01*
X79038259Y-144835000D01*
X80961741Y-144835000D01*
X82738807Y-144098915D01*
X82839982Y-143997740D01*
X82839981Y-148797954D01*
X82825093Y-148872801D01*
X82839981Y-148947648D01*
X82839981Y-148947652D01*
X82884077Y-149169337D01*
X83052052Y-149420730D01*
X83115511Y-149463132D01*
X83136851Y-149484472D01*
X83265527Y-149613149D01*
X83265530Y-149613151D01*
X90240001Y-156587624D01*
X90240000Y-159935198D01*
X88810198Y-161365001D01*
X85260510Y-161365001D01*
X85333113Y-161000000D01*
X85221740Y-160440091D01*
X84904577Y-159965423D01*
X84429909Y-159648260D01*
X84011333Y-159565000D01*
X83728667Y-159565000D01*
X83546115Y-159601312D01*
X79626937Y-155682136D01*
X79797765Y-155648157D01*
X80007809Y-155507809D01*
X80148157Y-155297765D01*
X80156117Y-155257745D01*
X80421861Y-155257745D01*
X80495995Y-155503864D01*
X81033223Y-155696965D01*
X81603454Y-155669778D01*
X82004005Y-155503864D01*
X82078139Y-155257745D01*
X81250000Y-154429605D01*
X80421861Y-155257745D01*
X80156117Y-155257745D01*
X80194693Y-155063813D01*
X80242255Y-155078139D01*
X81070395Y-154250000D01*
X81429605Y-154250000D01*
X82257745Y-155078139D01*
X82503864Y-155004005D01*
X82696965Y-154466777D01*
X82669778Y-153896546D01*
X82503864Y-153495995D01*
X82257745Y-153421861D01*
X81429605Y-154250000D01*
X81070395Y-154250000D01*
X80242255Y-153421861D01*
X80194693Y-153436187D01*
X80156118Y-153242255D01*
X80421861Y-153242255D01*
X81250000Y-154070395D01*
X82078139Y-153242255D01*
X82004005Y-152996136D01*
X81466777Y-152803035D01*
X80896546Y-152830222D01*
X80495995Y-152996136D01*
X80421861Y-153242255D01*
X80156118Y-153242255D01*
X80148157Y-153202235D01*
X80007809Y-152992191D01*
X79797765Y-152851843D01*
X79550000Y-152802560D01*
X79510000Y-152802560D01*
X79510000Y-149824846D01*
X79524888Y-149749999D01*
X79510000Y-149675152D01*
X79510000Y-149675148D01*
X79465904Y-149453463D01*
X79376297Y-149319357D01*
X79340329Y-149265526D01*
X79340327Y-149265524D01*
X79297929Y-149202071D01*
X79234476Y-149159673D01*
X73190848Y-143116047D01*
X73190848Y-138035989D01*
X73205736Y-137961142D01*
X73190848Y-137886295D01*
X73190848Y-137886291D01*
X73146752Y-137664606D01*
X72978777Y-137413214D01*
X72915321Y-137370814D01*
X68711209Y-133166703D01*
X68784092Y-132800295D01*
X68682647Y-132290295D01*
X77068059Y-132290295D01*
X77293462Y-132440905D01*
X77515147Y-132485001D01*
X77515152Y-132485001D01*
X77589999Y-132499889D01*
X77664846Y-132485001D01*
X81803154Y-132485001D01*
X81878001Y-132499889D01*
X81952848Y-132485001D01*
X81952853Y-132485001D01*
X82174538Y-132440905D01*
X82425930Y-132272930D01*
X82468332Y-132209471D01*
X82629791Y-132048012D01*
X112876760Y-132048012D01*
X113058010Y-132223017D01*
X113604701Y-132123022D01*
X114071511Y-131821428D01*
X114324388Y-131491873D01*
X114263454Y-131247404D01*
X113169803Y-130954361D01*
X112876760Y-132048012D01*
X82629791Y-132048012D01*
X82999474Y-131678330D01*
X83062930Y-131635930D01*
X83230905Y-131384538D01*
X83275001Y-131162853D01*
X83275001Y-131162849D01*
X83289889Y-131088002D01*
X83275001Y-131013155D01*
X83275001Y-130776828D01*
X111655801Y-130776828D01*
X111755796Y-131323519D01*
X112057390Y-131790329D01*
X112386945Y-132043206D01*
X112631414Y-131982272D01*
X112924457Y-130888621D01*
X112254159Y-130709015D01*
X113235543Y-130709015D01*
X114329194Y-131002058D01*
X114504199Y-130820808D01*
X114404204Y-130274117D01*
X114102610Y-129807307D01*
X113773055Y-129554430D01*
X113528586Y-129615364D01*
X113235543Y-130709015D01*
X112254159Y-130709015D01*
X111830806Y-130595578D01*
X111655801Y-130776828D01*
X83275001Y-130776828D01*
X83275001Y-130105763D01*
X111835612Y-130105763D01*
X111896546Y-130350232D01*
X112990197Y-130643275D01*
X113283240Y-129549624D01*
X113101990Y-129374619D01*
X112555299Y-129474614D01*
X112088489Y-129776208D01*
X111835612Y-130105763D01*
X83275001Y-130105763D01*
X83275001Y-112923301D01*
X101523000Y-112923301D01*
X101523000Y-113479063D01*
X101735680Y-113992519D01*
X102128663Y-114385502D01*
X102642119Y-114598182D01*
X103197881Y-114598182D01*
X103711337Y-114385502D01*
X104104320Y-113992519D01*
X104317000Y-113479063D01*
X104317000Y-112923301D01*
X104104320Y-112409845D01*
X103711337Y-112016862D01*
X103197881Y-111804182D01*
X102642119Y-111804182D01*
X102128663Y-112016862D01*
X101735680Y-112409845D01*
X101523000Y-112923301D01*
X83275001Y-112923301D01*
X83275001Y-106299847D01*
X83289889Y-106225000D01*
X83275001Y-106150153D01*
X83275001Y-106150149D01*
X83230905Y-105928464D01*
X83062930Y-105677072D01*
X82999471Y-105634670D01*
X82780330Y-105415529D01*
X82780328Y-105415526D01*
X82779640Y-105414838D01*
X82825000Y-105305330D01*
X82825000Y-104694670D01*
X82591310Y-104130493D01*
X82159507Y-103698690D01*
X81595330Y-103465000D01*
X80984670Y-103465000D01*
X80420493Y-103698690D01*
X80251275Y-103867908D01*
X80248157Y-103852235D01*
X80107809Y-103642191D01*
X79897765Y-103501843D01*
X79650000Y-103452560D01*
X77850000Y-103452560D01*
X77602235Y-103501843D01*
X77392191Y-103642191D01*
X77251843Y-103852235D01*
X77202560Y-104100000D01*
X77202560Y-105900000D01*
X77251843Y-106147765D01*
X77392191Y-106357809D01*
X77602235Y-106498157D01*
X77850000Y-106547440D01*
X79650000Y-106547440D01*
X79897765Y-106498157D01*
X80107809Y-106357809D01*
X80248157Y-106147765D01*
X80251275Y-106132092D01*
X80420493Y-106301310D01*
X80984670Y-106535000D01*
X81595330Y-106535000D01*
X81704838Y-106489640D01*
X81705526Y-106490328D01*
X81705529Y-106490330D01*
X81755002Y-106539803D01*
X81755002Y-108531138D01*
X81595330Y-108465000D01*
X80984670Y-108465000D01*
X80420493Y-108698690D01*
X80251275Y-108867908D01*
X80248157Y-108852235D01*
X80107809Y-108642191D01*
X79897765Y-108501843D01*
X79650000Y-108452560D01*
X77850000Y-108452560D01*
X77602235Y-108501843D01*
X77392191Y-108642191D01*
X77251843Y-108852235D01*
X77202560Y-109100000D01*
X77202560Y-110900000D01*
X77251843Y-111147765D01*
X77392191Y-111357809D01*
X77602235Y-111498157D01*
X77850000Y-111547440D01*
X79650000Y-111547440D01*
X79897765Y-111498157D01*
X80107809Y-111357809D01*
X80248157Y-111147765D01*
X80251275Y-111132092D01*
X80420493Y-111301310D01*
X80984670Y-111535000D01*
X81595330Y-111535000D01*
X81755002Y-111468862D01*
X81755002Y-113531138D01*
X81595330Y-113465000D01*
X80984670Y-113465000D01*
X80420493Y-113698690D01*
X80251275Y-113867908D01*
X80248157Y-113852235D01*
X80107809Y-113642191D01*
X79897765Y-113501843D01*
X79650000Y-113452560D01*
X77850000Y-113452560D01*
X77602235Y-113501843D01*
X77392191Y-113642191D01*
X77251843Y-113852235D01*
X77202560Y-114100000D01*
X77202560Y-115900000D01*
X77251843Y-116147765D01*
X77392191Y-116357809D01*
X77602235Y-116498157D01*
X77850000Y-116547440D01*
X79650000Y-116547440D01*
X79897765Y-116498157D01*
X80107809Y-116357809D01*
X80248157Y-116147765D01*
X80251275Y-116132092D01*
X80420493Y-116301310D01*
X80984670Y-116535000D01*
X81595330Y-116535000D01*
X81755002Y-116468862D01*
X81755002Y-118531138D01*
X81595330Y-118465000D01*
X80984670Y-118465000D01*
X80420493Y-118698690D01*
X80251275Y-118867908D01*
X80248157Y-118852235D01*
X80107809Y-118642191D01*
X79897765Y-118501843D01*
X79650000Y-118452560D01*
X77850000Y-118452560D01*
X77602235Y-118501843D01*
X77392191Y-118642191D01*
X77251843Y-118852235D01*
X77202560Y-119100000D01*
X77202560Y-120900000D01*
X77251843Y-121147765D01*
X77392191Y-121357809D01*
X77602235Y-121498157D01*
X77850000Y-121547440D01*
X79650000Y-121547440D01*
X79897765Y-121498157D01*
X80107809Y-121357809D01*
X80248157Y-121147765D01*
X80251275Y-121132092D01*
X80420493Y-121301310D01*
X80984670Y-121535000D01*
X81595330Y-121535000D01*
X81755001Y-121468862D01*
X81755001Y-123531138D01*
X81595330Y-123465000D01*
X80984670Y-123465000D01*
X80420493Y-123698690D01*
X80251275Y-123867908D01*
X80248157Y-123852235D01*
X80107809Y-123642191D01*
X79897765Y-123501843D01*
X79650000Y-123452560D01*
X77850000Y-123452560D01*
X77602235Y-123501843D01*
X77392191Y-123642191D01*
X77251843Y-123852235D01*
X77202560Y-124100000D01*
X77202560Y-125900000D01*
X77251843Y-126147765D01*
X77392191Y-126357809D01*
X77602235Y-126498157D01*
X77850000Y-126547440D01*
X79650000Y-126547440D01*
X79897765Y-126498157D01*
X80107809Y-126357809D01*
X80248157Y-126147765D01*
X80251275Y-126132092D01*
X80420493Y-126301310D01*
X80984670Y-126535000D01*
X81595330Y-126535000D01*
X81755001Y-126468862D01*
X81755001Y-129031138D01*
X81595330Y-128965000D01*
X80984670Y-128965000D01*
X80420493Y-129198690D01*
X80251275Y-129367908D01*
X80248157Y-129352235D01*
X80107809Y-129142191D01*
X79897765Y-129001843D01*
X79650000Y-128952560D01*
X77850000Y-128952560D01*
X77602235Y-129001843D01*
X77392191Y-129142191D01*
X77251843Y-129352235D01*
X77202560Y-129600000D01*
X77202560Y-130770295D01*
X66348473Y-130770295D01*
X66140920Y-130459670D01*
X65649713Y-130131456D01*
X65216551Y-130045295D01*
X64924039Y-130045295D01*
X64490877Y-130131456D01*
X64334342Y-130236049D01*
X64346329Y-130094608D01*
X64170589Y-129542480D01*
X63900405Y-129190385D01*
X63640654Y-129180507D01*
X63044076Y-130213810D01*
X63061397Y-130223810D01*
X62934397Y-130443780D01*
X62917076Y-130433780D01*
X62907076Y-130451101D01*
X62687106Y-130324101D01*
X62697106Y-130306780D01*
X61663228Y-129709871D01*
X61443782Y-129848630D01*
X61394853Y-130425982D01*
X61569603Y-130975000D01*
X61454335Y-130975000D01*
X61021173Y-131061161D01*
X60529966Y-131389375D01*
X60201752Y-131880582D01*
X60086499Y-132460000D01*
X31294408Y-132460000D01*
X31505024Y-131099506D01*
X31847156Y-129489900D01*
X61790228Y-129489900D01*
X62824106Y-130086810D01*
X63420683Y-129053507D01*
X63282253Y-128833495D01*
X62842238Y-128775556D01*
X62276211Y-128899425D01*
X61800674Y-129230474D01*
X61790228Y-129489900D01*
X31847156Y-129489900D01*
X32077478Y-128406322D01*
X32265425Y-127714561D01*
X51565000Y-127714561D01*
X51565000Y-128285439D01*
X51783466Y-128812862D01*
X52187138Y-129216534D01*
X52714561Y-129435000D01*
X53285439Y-129435000D01*
X53812862Y-129216534D01*
X54216534Y-128812862D01*
X54435000Y-128285439D01*
X54435000Y-127714561D01*
X54250830Y-127269936D01*
X54535439Y-127269936D01*
X55062862Y-127051470D01*
X55466534Y-126647798D01*
X55685000Y-126120375D01*
X55685000Y-125549497D01*
X55466534Y-125022074D01*
X55062862Y-124618402D01*
X54535439Y-124399936D01*
X53964561Y-124399936D01*
X53437138Y-124618402D01*
X53033466Y-125022074D01*
X52815000Y-125549497D01*
X52815000Y-126120375D01*
X52999170Y-126565000D01*
X52714561Y-126565000D01*
X52187138Y-126783466D01*
X51783466Y-127187138D01*
X51565000Y-127714561D01*
X32265425Y-127714561D01*
X32799377Y-125749292D01*
X33668470Y-123136702D01*
X33832615Y-122722119D01*
X41603000Y-122722119D01*
X41603000Y-123277881D01*
X41815680Y-123791337D01*
X42208663Y-124184320D01*
X42722119Y-124397000D01*
X43277881Y-124397000D01*
X43791337Y-124184320D01*
X43933564Y-124042093D01*
X57430286Y-124042093D01*
X57845063Y-124543129D01*
X58420004Y-124847299D01*
X58944555Y-124916357D01*
X59163427Y-124734585D01*
X58807311Y-123405543D01*
X57478269Y-123761658D01*
X57430286Y-124042093D01*
X43933564Y-124042093D01*
X44184320Y-123791337D01*
X44388897Y-123297441D01*
X57230757Y-123297441D01*
X57412529Y-123516313D01*
X58071272Y-123339803D01*
X59052657Y-123339803D01*
X59408772Y-124668845D01*
X59689207Y-124716828D01*
X60190243Y-124302051D01*
X60494413Y-123727110D01*
X60563471Y-123202559D01*
X60381699Y-122983687D01*
X59052657Y-123339803D01*
X58071272Y-123339803D01*
X58741571Y-123160197D01*
X58385456Y-121831155D01*
X58105021Y-121783172D01*
X57603985Y-122197949D01*
X57299815Y-122772890D01*
X57230757Y-123297441D01*
X44388897Y-123297441D01*
X44397000Y-123277881D01*
X44397000Y-122722119D01*
X44184320Y-122208663D01*
X43791337Y-121815680D01*
X43277881Y-121603000D01*
X42722119Y-121603000D01*
X42208663Y-121815680D01*
X41815680Y-122208663D01*
X41603000Y-122722119D01*
X33832615Y-122722119D01*
X34682047Y-120576700D01*
X34891203Y-120124043D01*
X43103000Y-120124043D01*
X43103000Y-120679805D01*
X43315680Y-121193261D01*
X43708663Y-121586244D01*
X44222119Y-121798924D01*
X44777881Y-121798924D01*
X44858779Y-121765415D01*
X58630801Y-121765415D01*
X58986917Y-123094457D01*
X60315959Y-122738342D01*
X60363942Y-122457907D01*
X59949165Y-121956871D01*
X59374224Y-121652701D01*
X58849673Y-121583643D01*
X58630801Y-121765415D01*
X44858779Y-121765415D01*
X45291337Y-121586244D01*
X45684320Y-121193261D01*
X45897000Y-120679805D01*
X45897000Y-120124043D01*
X45684320Y-119610587D01*
X45291337Y-119217604D01*
X44777881Y-119004924D01*
X44222119Y-119004924D01*
X43708663Y-119217604D01*
X43315680Y-119610587D01*
X43103000Y-120124043D01*
X34891203Y-120124043D01*
X35676374Y-118424778D01*
X49467886Y-118424778D01*
X49467886Y-119075222D01*
X49716800Y-119676153D01*
X50176733Y-120136086D01*
X50777664Y-120385000D01*
X51428108Y-120385000D01*
X52029039Y-120136086D01*
X52443006Y-119722119D01*
X66523000Y-119722119D01*
X66523000Y-120277881D01*
X66735680Y-120791337D01*
X67128663Y-121184320D01*
X67642119Y-121397000D01*
X68197881Y-121397000D01*
X68711337Y-121184320D01*
X69104320Y-120791337D01*
X69190000Y-120584487D01*
X69275680Y-120791337D01*
X69668663Y-121184320D01*
X70182119Y-121397000D01*
X70737881Y-121397000D01*
X71251337Y-121184320D01*
X71644320Y-120791337D01*
X71730000Y-120584487D01*
X71815680Y-120791337D01*
X72208663Y-121184320D01*
X72722119Y-121397000D01*
X73277881Y-121397000D01*
X73791337Y-121184320D01*
X74184320Y-120791337D01*
X74397000Y-120277881D01*
X74397000Y-119722119D01*
X74184320Y-119208663D01*
X73791337Y-118815680D01*
X73277881Y-118603000D01*
X72722119Y-118603000D01*
X72208663Y-118815680D01*
X71815680Y-119208663D01*
X71730000Y-119415513D01*
X71644320Y-119208663D01*
X71251337Y-118815680D01*
X70737881Y-118603000D01*
X70182119Y-118603000D01*
X69668663Y-118815680D01*
X69275680Y-119208663D01*
X69190000Y-119415513D01*
X69104320Y-119208663D01*
X68711337Y-118815680D01*
X68197881Y-118603000D01*
X67642119Y-118603000D01*
X67128663Y-118815680D01*
X66735680Y-119208663D01*
X66523000Y-119722119D01*
X52443006Y-119722119D01*
X52488972Y-119676153D01*
X52737886Y-119075222D01*
X52737886Y-118424778D01*
X52488972Y-117823847D01*
X52029039Y-117363914D01*
X51428108Y-117115000D01*
X50777664Y-117115000D01*
X50176733Y-117363914D01*
X49716800Y-117823847D01*
X49467886Y-118424778D01*
X35676374Y-118424778D01*
X35836946Y-118077270D01*
X37129566Y-115646204D01*
X38555877Y-113291085D01*
X40111430Y-111019258D01*
X41791374Y-108837805D01*
X43590471Y-106753532D01*
X45503110Y-104772936D01*
X47228964Y-103174778D01*
X85365000Y-103174778D01*
X85365000Y-103825222D01*
X85613914Y-104426153D01*
X86073847Y-104886086D01*
X86674778Y-105135000D01*
X87325222Y-105135000D01*
X87926153Y-104886086D01*
X88386086Y-104426153D01*
X88635000Y-103825222D01*
X88635000Y-103174778D01*
X88386086Y-102573847D01*
X87926153Y-102113914D01*
X87325222Y-101865000D01*
X86674778Y-101865000D01*
X86073847Y-102113914D01*
X85613914Y-102573847D01*
X85365000Y-103174778D01*
X47228964Y-103174778D01*
X47523327Y-102902195D01*
X49644821Y-101147142D01*
X51860977Y-99513251D01*
X52492490Y-99100000D01*
X77202560Y-99100000D01*
X77202560Y-100900000D01*
X77251843Y-101147765D01*
X77392191Y-101357809D01*
X77602235Y-101498157D01*
X77850000Y-101547440D01*
X79650000Y-101547440D01*
X79897765Y-101498157D01*
X80107809Y-101357809D01*
X80248157Y-101147765D01*
X80251275Y-101132092D01*
X80420493Y-101301310D01*
X80984670Y-101535000D01*
X81595330Y-101535000D01*
X82159507Y-101301310D01*
X82591310Y-100869507D01*
X82825000Y-100305330D01*
X82825000Y-99694670D01*
X82591310Y-99130493D01*
X82159507Y-98698690D01*
X81595330Y-98465000D01*
X80984670Y-98465000D01*
X80420493Y-98698690D01*
X80251275Y-98867908D01*
X80248157Y-98852235D01*
X80107809Y-98642191D01*
X79897765Y-98501843D01*
X79650000Y-98452560D01*
X77850000Y-98452560D01*
X77602235Y-98501843D01*
X77392191Y-98642191D01*
X77251843Y-98852235D01*
X77202560Y-99100000D01*
X52492490Y-99100000D01*
X54164883Y-98005617D01*
X56549356Y-96628941D01*
X59006959Y-95387517D01*
X61530028Y-94285215D01*
X62028055Y-94100000D01*
X77202560Y-94100000D01*
X77202560Y-95900000D01*
X77251843Y-96147765D01*
X77392191Y-96357809D01*
X77602235Y-96498157D01*
X77850000Y-96547440D01*
X79650000Y-96547440D01*
X79897765Y-96498157D01*
X80107809Y-96357809D01*
X80248157Y-96147765D01*
X80251275Y-96132092D01*
X80420493Y-96301310D01*
X80984670Y-96535000D01*
X81595330Y-96535000D01*
X82159507Y-96301310D01*
X82591310Y-95869507D01*
X82825000Y-95305330D01*
X82825000Y-94694670D01*
X82609654Y-94174778D01*
X85365000Y-94174778D01*
X85365000Y-94825222D01*
X85613914Y-95426153D01*
X86073847Y-95886086D01*
X86674778Y-96135000D01*
X87325222Y-96135000D01*
X87926153Y-95886086D01*
X88386086Y-95426153D01*
X88635000Y-94825222D01*
X88635000Y-94174778D01*
X88386086Y-93573847D01*
X87926153Y-93113914D01*
X87325222Y-92865000D01*
X86674778Y-92865000D01*
X86073847Y-93113914D01*
X85613914Y-93573847D01*
X85365000Y-94174778D01*
X82609654Y-94174778D01*
X82591310Y-94130493D01*
X82159507Y-93698690D01*
X81595330Y-93465000D01*
X80984670Y-93465000D01*
X80420493Y-93698690D01*
X80251275Y-93867908D01*
X80248157Y-93852235D01*
X80107809Y-93642191D01*
X79897765Y-93501843D01*
X79650000Y-93452560D01*
X77850000Y-93452560D01*
X77602235Y-93501843D01*
X77392191Y-93642191D01*
X77251843Y-93852235D01*
X77202560Y-94100000D01*
X62028055Y-94100000D01*
X64110695Y-93325473D01*
X66740913Y-92511285D01*
X69412478Y-91845189D01*
X72117061Y-91329262D01*
X74846226Y-90965114D01*
X77591463Y-90753879D01*
X80344211Y-90696218D01*
X83095886Y-90792308D01*
G04 #@! TD*
M02*
