G04 #@! TF.GenerationSoftware,KiCad,Pcbnew,5.0.2-bee76a0~70~ubuntu18.04.1*
G04 #@! TF.CreationDate,2019-02-23T22:01:51+01:00*
G04 #@! TF.ProjectId,led-spindel,6c65642d-7370-4696-9e64-656c2e6b6963,rev?*
G04 #@! TF.SameCoordinates,Original*
G04 #@! TF.FileFunction,Copper,L1,Top*
G04 #@! TF.FilePolarity,Positive*
%FSLAX46Y46*%
G04 Gerber Fmt 4.6, Leading zero omitted, Abs format (unit mm)*
G04 Created by KiCad (PCBNEW 5.0.2-bee76a0~70~ubuntu18.04.1) date Sa 23 Feb 2019 22:01:51 CET*
%MOMM*%
%LPD*%
G01*
G04 APERTURE LIST*
G04 #@! TA.AperFunction,ComponentPad*
%ADD10C,1.524000*%
G04 #@! TD*
G04 #@! TA.AperFunction,ComponentPad*
%ADD11R,1.600000X1.600000*%
G04 #@! TD*
G04 #@! TA.AperFunction,ComponentPad*
%ADD12C,1.600000*%
G04 #@! TD*
G04 #@! TA.AperFunction,ComponentPad*
%ADD13C,1.700000*%
G04 #@! TD*
G04 #@! TA.AperFunction,Conductor*
%ADD14C,0.100000*%
G04 #@! TD*
G04 #@! TA.AperFunction,Conductor*
%ADD15C,1.700000*%
G04 #@! TD*
G04 #@! TA.AperFunction,ComponentPad*
%ADD16C,2.000000*%
G04 #@! TD*
G04 #@! TA.AperFunction,ComponentPad*
%ADD17O,1.600000X1.600000*%
G04 #@! TD*
G04 #@! TA.AperFunction,ComponentPad*
%ADD18C,1.800000*%
G04 #@! TD*
G04 #@! TA.AperFunction,ComponentPad*
%ADD19R,1.800000X1.800000*%
G04 #@! TD*
G04 #@! TA.AperFunction,Conductor*
%ADD20C,0.250000*%
G04 #@! TD*
G04 #@! TA.AperFunction,Conductor*
%ADD21C,0.254000*%
G04 #@! TD*
G04 APERTURE END LIST*
D10*
G04 #@! TO.P,U2,3*
G04 #@! TO.N,VCC*
X67920000Y-120000000D03*
G04 #@! TO.P,U2,2*
G04 #@! TO.N,N/C*
X73000000Y-120000000D03*
G04 #@! TO.P,U2,1*
G04 #@! TO.N,Net-(BT1-Pad1)*
X70460000Y-120000000D03*
G04 #@! TD*
G04 #@! TO.P,BT1,1*
G04 #@! TO.N,Net-(BT1-Pad1)*
X102920000Y-113201182D03*
G04 #@! TO.P,BT1,2*
G04 #@! TO.N,GND*
X113080000Y-130798818D03*
G04 #@! TD*
D11*
G04 #@! TO.P,C1,1*
G04 #@! TO.N,VCC*
X78750000Y-154250000D03*
D12*
G04 #@! TO.P,C1,2*
G04 #@! TO.N,GND*
X81250000Y-154250000D03*
G04 #@! TD*
G04 #@! TO.P,C2,1*
G04 #@! TO.N,VCC*
X53000000Y-128000000D03*
G04 #@! TO.P,C2,2*
G04 #@! TO.N,Net-(C2-Pad2)*
X54250000Y-125834936D03*
G04 #@! TD*
D13*
G04 #@! TO.P,J1,1*
G04 #@! TO.N,Net-(D15-Pad2)*
X66000000Y-135000000D03*
D14*
G04 #@! TD*
G04 #@! TO.N,Net-(D15-Pad2)*
G04 #@! TO.C,J1*
G36*
X66311122Y-136161122D02*
X64838878Y-135311122D01*
X65688878Y-133838878D01*
X67161122Y-134688878D01*
X66311122Y-136161122D01*
X66311122Y-136161122D01*
G37*
D13*
G04 #@! TO.P,J1,2*
G04 #@! TO.N,VCC*
X67270000Y-132800295D03*
D15*
G04 #@! TD*
G04 #@! TO.N,VCC*
G04 #@! TO.C,J1*
X67270000Y-132800295D02*
X67270000Y-132800295D01*
D13*
G04 #@! TO.P,J1,3*
G04 #@! TO.N,Net-(D16-Pad2)*
X63800295Y-133730000D03*
D15*
G04 #@! TD*
G04 #@! TO.N,Net-(D16-Pad2)*
G04 #@! TO.C,J1*
X63800295Y-133730000D02*
X63800295Y-133730000D01*
D13*
G04 #@! TO.P,J1,4*
G04 #@! TO.N,Net-(D14-Pad2)*
X65070295Y-131530295D03*
D15*
G04 #@! TD*
G04 #@! TO.N,Net-(D14-Pad2)*
G04 #@! TO.C,J1*
X65070295Y-131530295D02*
X65070295Y-131530295D01*
D13*
G04 #@! TO.P,J1,5*
G04 #@! TO.N,Net-(J1-Pad5)*
X61600591Y-132460000D03*
D15*
G04 #@! TD*
G04 #@! TO.N,Net-(J1-Pad5)*
G04 #@! TO.C,J1*
X61600591Y-132460000D02*
X61600591Y-132460000D01*
D13*
G04 #@! TO.P,J1,6*
G04 #@! TO.N,GND*
X62870591Y-130260295D03*
D15*
G04 #@! TD*
G04 #@! TO.N,GND*
G04 #@! TO.C,J1*
X62870591Y-130260295D02*
X62870591Y-130260295D01*
D16*
G04 #@! TO.P,R1,1*
G04 #@! TO.N,GND*
X58897114Y-123250000D03*
G04 #@! TO.P,R1,2*
G04 #@! TO.N,Net-(C2-Pad2)*
X51102886Y-118750000D03*
G04 #@! TD*
G04 #@! TO.P,R2,2*
G04 #@! TO.N,Net-(R2-Pad2)*
X45897114Y-151750000D03*
G04 #@! TO.P,R2,1*
G04 #@! TO.N,Net-(D1-Pad1)*
X38102886Y-156250000D03*
G04 #@! TD*
G04 #@! TO.P,R3,1*
G04 #@! TO.N,Net-(D10-Pad1)*
X115897114Y-167250000D03*
G04 #@! TO.P,R3,2*
G04 #@! TO.N,Net-(R3-Pad2)*
X108102886Y-162750000D03*
G04 #@! TD*
G04 #@! TO.P,R4,2*
G04 #@! TO.N,Net-(R4-Pad2)*
X87000000Y-94500000D03*
G04 #@! TO.P,R4,1*
G04 #@! TO.N,Net-(D17-Pad1)*
X87000000Y-103500000D03*
G04 #@! TD*
D10*
G04 #@! TO.P,SW1,1*
G04 #@! TO.N,VCC*
X43000000Y-123000000D03*
G04 #@! TO.P,SW1,2*
G04 #@! TO.N,Net-(C2-Pad2)*
X44500000Y-120401924D03*
G04 #@! TD*
D11*
G04 #@! TO.P,U1,1*
G04 #@! TO.N,Net-(J1-Pad5)*
X76250000Y-161000000D03*
D17*
G04 #@! TO.P,U1,11*
G04 #@! TO.N,N/C*
X83870000Y-183860000D03*
G04 #@! TO.P,U1,2*
G04 #@! TO.N,Net-(R2-Pad2)*
X76250000Y-163540000D03*
G04 #@! TO.P,U1,12*
G04 #@! TO.N,Net-(D1-Pad2)*
X83870000Y-181320000D03*
G04 #@! TO.P,U1,3*
G04 #@! TO.N,Net-(R3-Pad2)*
X76250000Y-166080000D03*
G04 #@! TO.P,U1,13*
G04 #@! TO.N,Net-(D10-Pad2)*
X83870000Y-178780000D03*
G04 #@! TO.P,U1,4*
G04 #@! TO.N,N/C*
X76250000Y-168620000D03*
G04 #@! TO.P,U1,14*
G04 #@! TO.N,Net-(D11-Pad2)*
X83870000Y-176240000D03*
G04 #@! TO.P,U1,5*
G04 #@! TO.N,Net-(C2-Pad2)*
X76250000Y-171160000D03*
G04 #@! TO.P,U1,15*
G04 #@! TO.N,Net-(D12-Pad2)*
X83870000Y-173700000D03*
G04 #@! TO.P,U1,6*
G04 #@! TO.N,Net-(R4-Pad2)*
X76250000Y-173700000D03*
G04 #@! TO.P,U1,16*
G04 #@! TO.N,Net-(D13-Pad2)*
X83870000Y-171160000D03*
G04 #@! TO.P,U1,7*
G04 #@! TO.N,N/C*
X76250000Y-176240000D03*
G04 #@! TO.P,U1,17*
G04 #@! TO.N,Net-(D14-Pad2)*
X83870000Y-168620000D03*
G04 #@! TO.P,U1,8*
G04 #@! TO.N,N/C*
X76250000Y-178780000D03*
G04 #@! TO.P,U1,18*
G04 #@! TO.N,Net-(D15-Pad2)*
X83870000Y-166080000D03*
G04 #@! TO.P,U1,9*
G04 #@! TO.N,N/C*
X76250000Y-181320000D03*
G04 #@! TO.P,U1,19*
G04 #@! TO.N,Net-(D16-Pad2)*
X83870000Y-163540000D03*
G04 #@! TO.P,U1,10*
G04 #@! TO.N,GND*
X76250000Y-183860000D03*
G04 #@! TO.P,U1,20*
G04 #@! TO.N,VCC*
X83870000Y-161000000D03*
G04 #@! TD*
D18*
G04 #@! TO.P,D1,2*
G04 #@! TO.N,Net-(D1-Pad2)*
X71205847Y-143616610D03*
G04 #@! TO.P,D1,1*
G04 #@! TO.N,Net-(D1-Pad1)*
X72475847Y-145816315D03*
D14*
G04 #@! TD*
G04 #@! TO.N,Net-(D1-Pad1)*
G04 #@! TO.C,D1*
G36*
X73705270Y-146145738D02*
X72146424Y-147045738D01*
X71246424Y-145486892D01*
X72805270Y-144586892D01*
X73705270Y-146145738D01*
X73705270Y-146145738D01*
G37*
D18*
G04 #@! TO.P,D2,1*
G04 #@! TO.N,Net-(D1-Pad1)*
X68014545Y-148392048D03*
D14*
G04 #@! TD*
G04 #@! TO.N,Net-(D1-Pad1)*
G04 #@! TO.C,D2*
G36*
X69243968Y-148721471D02*
X67685122Y-149621471D01*
X66785122Y-148062625D01*
X68343968Y-147162625D01*
X69243968Y-148721471D01*
X69243968Y-148721471D01*
G37*
D18*
G04 #@! TO.P,D2,2*
G04 #@! TO.N,Net-(D10-Pad2)*
X66744545Y-146192343D03*
G04 #@! TD*
G04 #@! TO.P,D3,2*
G04 #@! TO.N,Net-(D11-Pad2)*
X62414418Y-148692343D03*
G04 #@! TO.P,D3,1*
G04 #@! TO.N,Net-(D1-Pad1)*
X63684418Y-150892048D03*
D14*
G04 #@! TD*
G04 #@! TO.N,Net-(D1-Pad1)*
G04 #@! TO.C,D3*
G36*
X64913841Y-151221471D02*
X63354995Y-152121471D01*
X62454995Y-150562625D01*
X64013841Y-149662625D01*
X64913841Y-151221471D01*
X64913841Y-151221471D01*
G37*
D18*
G04 #@! TO.P,D4,1*
G04 #@! TO.N,Net-(D1-Pad1)*
X59354291Y-153392048D03*
D14*
G04 #@! TD*
G04 #@! TO.N,Net-(D1-Pad1)*
G04 #@! TO.C,D4*
G36*
X60583714Y-153721471D02*
X59024868Y-154621471D01*
X58124868Y-153062625D01*
X59683714Y-152162625D01*
X60583714Y-153721471D01*
X60583714Y-153721471D01*
G37*
D18*
G04 #@! TO.P,D4,2*
G04 #@! TO.N,Net-(D12-Pad2)*
X58084291Y-151192343D03*
G04 #@! TD*
G04 #@! TO.P,D5,1*
G04 #@! TO.N,Net-(D1-Pad1)*
X55024164Y-155892048D03*
D14*
G04 #@! TD*
G04 #@! TO.N,Net-(D1-Pad1)*
G04 #@! TO.C,D5*
G36*
X56253587Y-156221471D02*
X54694741Y-157121471D01*
X53794741Y-155562625D01*
X55353587Y-154662625D01*
X56253587Y-156221471D01*
X56253587Y-156221471D01*
G37*
D18*
G04 #@! TO.P,D5,2*
G04 #@! TO.N,Net-(D13-Pad2)*
X53754164Y-153692343D03*
G04 #@! TD*
G04 #@! TO.P,D6,2*
G04 #@! TO.N,Net-(D14-Pad2)*
X49424037Y-156192343D03*
G04 #@! TO.P,D6,1*
G04 #@! TO.N,Net-(D1-Pad1)*
X50694037Y-158392048D03*
D14*
G04 #@! TD*
G04 #@! TO.N,Net-(D1-Pad1)*
G04 #@! TO.C,D6*
G36*
X51923460Y-158721471D02*
X50364614Y-159621471D01*
X49464614Y-158062625D01*
X51023460Y-157162625D01*
X51923460Y-158721471D01*
X51923460Y-158721471D01*
G37*
D18*
G04 #@! TO.P,D7,1*
G04 #@! TO.N,Net-(D1-Pad1)*
X46363910Y-160892048D03*
D14*
G04 #@! TD*
G04 #@! TO.N,Net-(D1-Pad1)*
G04 #@! TO.C,D7*
G36*
X47593333Y-161221471D02*
X46034487Y-162121471D01*
X45134487Y-160562625D01*
X46693333Y-159662625D01*
X47593333Y-161221471D01*
X47593333Y-161221471D01*
G37*
D18*
G04 #@! TO.P,D7,2*
G04 #@! TO.N,Net-(D15-Pad2)*
X45093910Y-158692343D03*
G04 #@! TD*
G04 #@! TO.P,D8,2*
G04 #@! TO.N,Net-(D16-Pad2)*
X40763783Y-161192343D03*
G04 #@! TO.P,D8,1*
G04 #@! TO.N,Net-(D1-Pad1)*
X42033783Y-163392048D03*
D14*
G04 #@! TD*
G04 #@! TO.N,Net-(D1-Pad1)*
G04 #@! TO.C,D8*
G36*
X43263206Y-163721471D02*
X41704360Y-164621471D01*
X40804360Y-163062625D01*
X42363206Y-162162625D01*
X43263206Y-163721471D01*
X43263206Y-163721471D01*
G37*
D18*
G04 #@! TO.P,D9,1*
G04 #@! TO.N,Net-(D10-Pad1)*
X87940819Y-145294045D03*
D14*
G04 #@! TD*
G04 #@! TO.N,Net-(D10-Pad1)*
G04 #@! TO.C,D9*
G36*
X88270242Y-146523468D02*
X86711396Y-145623468D01*
X87611396Y-144064622D01*
X89170242Y-144964622D01*
X88270242Y-146523468D01*
X88270242Y-146523468D01*
G37*
D18*
G04 #@! TO.P,D9,2*
G04 #@! TO.N,Net-(D1-Pad2)*
X89210819Y-143094340D03*
G04 #@! TD*
G04 #@! TO.P,D10,2*
G04 #@! TO.N,Net-(D10-Pad2)*
X93540946Y-145594340D03*
G04 #@! TO.P,D10,1*
G04 #@! TO.N,Net-(D10-Pad1)*
X92270946Y-147794045D03*
D14*
G04 #@! TD*
G04 #@! TO.N,Net-(D10-Pad1)*
G04 #@! TO.C,D10*
G36*
X92600369Y-149023468D02*
X91041523Y-148123468D01*
X91941523Y-146564622D01*
X93500369Y-147464622D01*
X92600369Y-149023468D01*
X92600369Y-149023468D01*
G37*
D18*
G04 #@! TO.P,D11,1*
G04 #@! TO.N,Net-(D10-Pad1)*
X96601073Y-150294045D03*
D14*
G04 #@! TD*
G04 #@! TO.N,Net-(D10-Pad1)*
G04 #@! TO.C,D11*
G36*
X96930496Y-151523468D02*
X95371650Y-150623468D01*
X96271650Y-149064622D01*
X97830496Y-149964622D01*
X96930496Y-151523468D01*
X96930496Y-151523468D01*
G37*
D18*
G04 #@! TO.P,D11,2*
G04 #@! TO.N,Net-(D11-Pad2)*
X97871073Y-148094340D03*
G04 #@! TD*
G04 #@! TO.P,D12,2*
G04 #@! TO.N,Net-(D12-Pad2)*
X102201200Y-150594340D03*
G04 #@! TO.P,D12,1*
G04 #@! TO.N,Net-(D10-Pad1)*
X100931200Y-152794045D03*
D14*
G04 #@! TD*
G04 #@! TO.N,Net-(D10-Pad1)*
G04 #@! TO.C,D12*
G36*
X101260623Y-154023468D02*
X99701777Y-153123468D01*
X100601777Y-151564622D01*
X102160623Y-152464622D01*
X101260623Y-154023468D01*
X101260623Y-154023468D01*
G37*
D18*
G04 #@! TO.P,D13,1*
G04 #@! TO.N,Net-(D10-Pad1)*
X105261327Y-155294045D03*
D14*
G04 #@! TD*
G04 #@! TO.N,Net-(D10-Pad1)*
G04 #@! TO.C,D13*
G36*
X105590750Y-156523468D02*
X104031904Y-155623468D01*
X104931904Y-154064622D01*
X106490750Y-154964622D01*
X105590750Y-156523468D01*
X105590750Y-156523468D01*
G37*
D18*
G04 #@! TO.P,D13,2*
G04 #@! TO.N,Net-(D13-Pad2)*
X106531327Y-153094340D03*
G04 #@! TD*
G04 #@! TO.P,D14,2*
G04 #@! TO.N,Net-(D14-Pad2)*
X110861454Y-155594340D03*
G04 #@! TO.P,D14,1*
G04 #@! TO.N,Net-(D10-Pad1)*
X109591454Y-157794045D03*
D14*
G04 #@! TD*
G04 #@! TO.N,Net-(D10-Pad1)*
G04 #@! TO.C,D14*
G36*
X109920877Y-159023468D02*
X108362031Y-158123468D01*
X109262031Y-156564622D01*
X110820877Y-157464622D01*
X109920877Y-159023468D01*
X109920877Y-159023468D01*
G37*
D18*
G04 #@! TO.P,D15,1*
G04 #@! TO.N,Net-(D10-Pad1)*
X113921581Y-160294045D03*
D14*
G04 #@! TD*
G04 #@! TO.N,Net-(D10-Pad1)*
G04 #@! TO.C,D15*
G36*
X114251004Y-161523468D02*
X112692158Y-160623468D01*
X113592158Y-159064622D01*
X115151004Y-159964622D01*
X114251004Y-161523468D01*
X114251004Y-161523468D01*
G37*
D18*
G04 #@! TO.P,D15,2*
G04 #@! TO.N,Net-(D15-Pad2)*
X115191581Y-158094340D03*
G04 #@! TD*
G04 #@! TO.P,D16,2*
G04 #@! TO.N,Net-(D16-Pad2)*
X119521708Y-160594340D03*
G04 #@! TO.P,D16,1*
G04 #@! TO.N,Net-(D10-Pad1)*
X118251708Y-162794045D03*
D14*
G04 #@! TD*
G04 #@! TO.N,Net-(D10-Pad1)*
G04 #@! TO.C,D16*
G36*
X118581131Y-164023468D02*
X117022285Y-163123468D01*
X117922285Y-161564622D01*
X119481131Y-162464622D01*
X118581131Y-164023468D01*
X118581131Y-164023468D01*
G37*
D18*
G04 #@! TO.P,D17,2*
G04 #@! TO.N,Net-(D1-Pad2)*
X81290000Y-130500000D03*
D19*
G04 #@! TO.P,D17,1*
G04 #@! TO.N,Net-(D17-Pad1)*
X78750000Y-130500000D03*
G04 #@! TD*
G04 #@! TO.P,D18,1*
G04 #@! TO.N,Net-(D17-Pad1)*
X78750000Y-125000000D03*
D18*
G04 #@! TO.P,D18,2*
G04 #@! TO.N,Net-(D10-Pad2)*
X81290000Y-125000000D03*
G04 #@! TD*
G04 #@! TO.P,D19,2*
G04 #@! TO.N,Net-(D11-Pad2)*
X81290000Y-120000000D03*
D19*
G04 #@! TO.P,D19,1*
G04 #@! TO.N,Net-(D17-Pad1)*
X78750000Y-120000000D03*
G04 #@! TD*
G04 #@! TO.P,D20,1*
G04 #@! TO.N,Net-(D17-Pad1)*
X78750000Y-115000000D03*
D18*
G04 #@! TO.P,D20,2*
G04 #@! TO.N,Net-(D12-Pad2)*
X81290000Y-115000000D03*
G04 #@! TD*
G04 #@! TO.P,D21,2*
G04 #@! TO.N,Net-(D13-Pad2)*
X81290000Y-110000000D03*
D19*
G04 #@! TO.P,D21,1*
G04 #@! TO.N,Net-(D17-Pad1)*
X78750000Y-110000000D03*
G04 #@! TD*
G04 #@! TO.P,D22,1*
G04 #@! TO.N,Net-(D17-Pad1)*
X78750000Y-105000000D03*
D18*
G04 #@! TO.P,D22,2*
G04 #@! TO.N,Net-(D14-Pad2)*
X81290000Y-105000000D03*
G04 #@! TD*
G04 #@! TO.P,D23,2*
G04 #@! TO.N,Net-(D15-Pad2)*
X81290000Y-100000000D03*
D19*
G04 #@! TO.P,D23,1*
G04 #@! TO.N,Net-(D17-Pad1)*
X78750000Y-100000000D03*
G04 #@! TD*
G04 #@! TO.P,D24,1*
G04 #@! TO.N,Net-(D17-Pad1)*
X78750000Y-95000000D03*
D18*
G04 #@! TO.P,D24,2*
G04 #@! TO.N,Net-(D16-Pad2)*
X81290000Y-95000000D03*
G04 #@! TD*
D20*
G04 #@! TO.N,VCC*
X48000000Y-128000000D02*
X53000000Y-128000000D01*
X43000000Y-123000000D02*
X48000000Y-128000000D01*
X60381721Y-124709935D02*
X67270000Y-131598214D01*
X53709999Y-124709935D02*
X60381721Y-124709935D01*
X53000000Y-125419934D02*
X53709999Y-124709935D01*
X67270000Y-131598214D02*
X67270000Y-132800295D01*
X53000000Y-128000000D02*
X53000000Y-125419934D01*
X67920000Y-130948214D02*
X67270000Y-131598214D01*
X67920000Y-120000000D02*
X67920000Y-130948214D01*
G04 #@! TO.N,Net-(C2-Pad2)*
X49450962Y-120401924D02*
X51102886Y-118750000D01*
X44500000Y-120401924D02*
X49450962Y-120401924D01*
X54250000Y-125834936D02*
X54250000Y-137505474D01*
X36327875Y-155427599D02*
X36327875Y-160827875D01*
X46660000Y-171160000D02*
X76250000Y-171160000D01*
X36327875Y-160827875D02*
X46660000Y-171160000D01*
X44500000Y-120401924D02*
X48816988Y-120401924D01*
X43227315Y-121163923D02*
X41912999Y-122478239D01*
X41912999Y-122478239D02*
X41912999Y-129412999D01*
X44500000Y-120401924D02*
X43738001Y-121163923D01*
X43738001Y-121163923D02*
X43227315Y-121163923D01*
X49500000Y-137000000D02*
X49500000Y-142255474D01*
X54250000Y-137505474D02*
X49500000Y-142255474D01*
X41912999Y-129412999D02*
X49500000Y-137000000D01*
X49500000Y-142255474D02*
X36327875Y-155427599D01*
G04 #@! TO.N,Net-(D1-Pad2)*
X72478639Y-143616610D02*
X71205847Y-143616610D01*
X82172001Y-144525001D02*
X73387030Y-144525001D01*
X83602662Y-143094340D02*
X82172001Y-144525001D01*
X73387030Y-144525001D02*
X72478639Y-143616610D01*
X89210819Y-143094340D02*
X83602662Y-143094340D01*
X82189999Y-131399999D02*
X81290000Y-130500000D01*
X90110818Y-139320818D02*
X82189999Y-131399999D01*
X90110818Y-142194341D02*
X90110818Y-139320818D01*
X89210819Y-143094340D02*
X90110818Y-142194341D01*
G04 #@! TO.N,Net-(D1-Pad1)*
X66156544Y-144967342D02*
X65500000Y-145623886D01*
X72475847Y-145816315D02*
X71626874Y-144967342D01*
X71626874Y-144967342D02*
X66156544Y-144967342D01*
X67284990Y-147662493D02*
X68014545Y-148392048D01*
X66401693Y-147662493D02*
X67284990Y-147662493D01*
X65500000Y-146760800D02*
X66401693Y-147662493D01*
X65500000Y-145623886D02*
X65500000Y-146760800D01*
X65500000Y-145623886D02*
X63669873Y-145623886D01*
X61189417Y-148104342D02*
X61189417Y-148250000D01*
X63669873Y-145623886D02*
X61189417Y-148104342D01*
X62392048Y-150892048D02*
X63684418Y-150892048D01*
X61189417Y-149689417D02*
X62392048Y-150892048D01*
X61189417Y-148250000D02*
X59213632Y-148250000D01*
X59213632Y-148250000D02*
X56750000Y-150713632D01*
X61189417Y-148250000D02*
X61189417Y-149689417D01*
X57741439Y-152662493D02*
X58624736Y-152662493D01*
X58624736Y-152662493D02*
X59354291Y-153392048D01*
X56750000Y-151671054D02*
X57741439Y-152662493D01*
X56750000Y-150713632D02*
X56750000Y-151671054D01*
X54919873Y-150713632D02*
X52250000Y-153383505D01*
X56750000Y-150713632D02*
X54919873Y-150713632D01*
X54294609Y-155162493D02*
X55024164Y-155892048D01*
X53411312Y-155162493D02*
X54294609Y-155162493D01*
X52250000Y-154001181D02*
X53411312Y-155162493D01*
X52250000Y-153383505D02*
X52250000Y-154001181D01*
X52250000Y-153383505D02*
X50419873Y-153383505D01*
X48199036Y-155604342D02*
X48199036Y-156949036D01*
X50419873Y-153383505D02*
X48199036Y-155604342D01*
X48912493Y-157662493D02*
X49964482Y-157662493D01*
X49964482Y-157662493D02*
X50694037Y-158392048D01*
X48199036Y-156949036D02*
X48912493Y-157662493D01*
X48199036Y-155604342D02*
X46368909Y-155604342D01*
X46368909Y-155604342D02*
X43868909Y-158104342D01*
X45634355Y-160162493D02*
X46363910Y-160892048D01*
X44662493Y-160162493D02*
X45634355Y-160162493D01*
X43868909Y-159368909D02*
X44662493Y-160162493D01*
X39538782Y-160604342D02*
X39538782Y-161788782D01*
X43868909Y-158250000D02*
X43868909Y-159368909D01*
X41893124Y-158250000D02*
X39538782Y-160604342D01*
X43868909Y-158250000D02*
X41893124Y-158250000D01*
X43868909Y-158104342D02*
X43868909Y-158250000D01*
X41304228Y-162662493D02*
X42033783Y-163392048D01*
X40412493Y-162662493D02*
X41304228Y-162662493D01*
X39538782Y-161788782D02*
X40412493Y-162662493D01*
X40102886Y-158250000D02*
X38102886Y-156250000D01*
X41893124Y-158250000D02*
X40102886Y-158250000D01*
G04 #@! TO.N,Net-(D10-Pad2)*
X68017337Y-146192343D02*
X66744545Y-146192343D01*
X69195742Y-147370748D02*
X68017337Y-146192343D01*
X87882598Y-147370748D02*
X69195742Y-147370748D01*
X89659006Y-145594340D02*
X87882598Y-147370748D01*
X93540946Y-145594340D02*
X89659006Y-145594340D01*
X93540946Y-137250946D02*
X93540946Y-145594340D01*
X81290000Y-125000000D02*
X93540946Y-137250946D01*
G04 #@! TO.N,Net-(D11-Pad2)*
X63687210Y-148692343D02*
X62414418Y-148692343D01*
X64941348Y-149946481D02*
X63687210Y-148692343D01*
X92136992Y-149946481D02*
X64941348Y-149946481D01*
X93989133Y-148094340D02*
X92136992Y-149946481D01*
X97871073Y-148094340D02*
X93989133Y-148094340D01*
X97871073Y-136581073D02*
X97871073Y-148094340D01*
X81290000Y-120000000D02*
X97871073Y-136581073D01*
G04 #@! TO.N,Net-(D12-Pad2)*
X59357083Y-151192343D02*
X58084291Y-151192343D01*
X60611221Y-152446481D02*
X59357083Y-151192343D01*
X96467119Y-152446481D02*
X60611221Y-152446481D01*
X98319260Y-150594340D02*
X96467119Y-152446481D01*
X102201200Y-150594340D02*
X98319260Y-150594340D01*
X102201200Y-135911200D02*
X102201200Y-150594340D01*
X81290000Y-115000000D02*
X102201200Y-135911200D01*
G04 #@! TO.N,Net-(D13-Pad2)*
X55026956Y-153692343D02*
X53754164Y-153692343D01*
X56709614Y-155375001D02*
X55026956Y-153692343D01*
X100368726Y-155375001D02*
X56709614Y-155375001D01*
X102649387Y-153094340D02*
X100368726Y-155375001D01*
X106531327Y-153094340D02*
X102649387Y-153094340D01*
X106531327Y-135241327D02*
X106531327Y-153094340D01*
X81290000Y-110000000D02*
X106531327Y-135241327D01*
G04 #@! TO.N,Net-(D14-Pad2)*
X50696829Y-156192343D02*
X49424037Y-156192343D01*
X105127373Y-157446481D02*
X51950967Y-157446481D01*
X106979514Y-155594340D02*
X105127373Y-157446481D01*
X51950967Y-157446481D02*
X50696829Y-156192343D01*
X110861454Y-155594340D02*
X106979514Y-155594340D01*
X110861454Y-134571454D02*
X110861454Y-155594340D01*
X81290000Y-105000000D02*
X110861454Y-134571454D01*
G04 #@! TO.N,Net-(D15-Pad2)*
X113918789Y-158094340D02*
X115191581Y-158094340D01*
X112664651Y-159348478D02*
X113918789Y-158094340D01*
X75723002Y-159348478D02*
X112664651Y-159348478D01*
X75124999Y-159946481D02*
X75723002Y-159348478D01*
X50229988Y-159946481D02*
X75124999Y-159946481D01*
X48975850Y-158692343D02*
X50229988Y-159946481D01*
X45093910Y-158692343D02*
X48975850Y-158692343D01*
X81290000Y-103186998D02*
X81290000Y-100000000D01*
X115191581Y-158094340D02*
X115191581Y-137088579D01*
X115191581Y-137088579D02*
X81290000Y-103186998D01*
G04 #@! TO.N,Net-(D16-Pad2)*
X118248916Y-160594340D02*
X119521708Y-160594340D01*
X116843256Y-162000000D02*
X118248916Y-160594340D01*
X113609054Y-162000000D02*
X116843256Y-162000000D01*
X112859054Y-161250000D02*
X113609054Y-162000000D01*
X107641884Y-161250000D02*
X112859054Y-161250000D01*
X106766883Y-162125001D02*
X107641884Y-161250000D01*
X75678517Y-162446481D02*
X75999997Y-162125001D01*
X43290713Y-162446481D02*
X75678517Y-162446481D01*
X42036575Y-161192343D02*
X43290713Y-162446481D01*
X40763783Y-161192343D02*
X42036575Y-161192343D01*
X119521708Y-133231708D02*
X119521708Y-160594340D01*
X81290000Y-95000000D02*
X119521708Y-133231708D01*
X84669999Y-162205002D02*
X84750000Y-162125001D01*
X84669999Y-162740001D02*
X84669999Y-162205002D01*
X83870000Y-163540000D02*
X84669999Y-162740001D01*
X75999997Y-162125001D02*
X84750000Y-162125001D01*
X84750000Y-162125001D02*
X106766883Y-162125001D01*
G04 #@! TO.N,Net-(D10-Pad1)*
X118251708Y-164895406D02*
X115897114Y-167250000D01*
X118251708Y-162794045D02*
X118251708Y-164895406D01*
G04 #@! TO.N,Net-(D17-Pad1)*
X78750000Y-95000000D02*
X78750000Y-100000000D01*
X78750000Y-101150000D02*
X78750000Y-105000000D01*
X78750000Y-100000000D02*
X78750000Y-101150000D01*
X78750000Y-105000000D02*
X78750000Y-110000000D01*
X78750000Y-110000000D02*
X78750000Y-115000000D01*
X78750000Y-120000000D02*
X78750000Y-115000000D01*
X78750000Y-123850000D02*
X78750000Y-120000000D01*
X78750000Y-125000000D02*
X78750000Y-123850000D01*
X78750000Y-130500000D02*
X78750000Y-125000000D01*
X78750000Y-98850000D02*
X78750000Y-100000000D01*
X78825001Y-98774999D02*
X78750000Y-98850000D01*
X82274999Y-98774999D02*
X78825001Y-98774999D01*
X87000000Y-103500000D02*
X82274999Y-98774999D01*
G04 #@! TO.N,Net-(R2-Pad2)*
X74843519Y-164946481D02*
X75450001Y-164339999D01*
X75450001Y-164339999D02*
X76250000Y-163540000D01*
X41569734Y-164946481D02*
X74843519Y-164946481D01*
X36777885Y-160154632D02*
X41569734Y-164946481D01*
X36777885Y-155613999D02*
X36777885Y-160154632D01*
X41641883Y-150750001D02*
X36777885Y-155613999D01*
X44897115Y-150750001D02*
X41641883Y-150750001D01*
X45897114Y-151750000D02*
X44897115Y-150750001D01*
G04 #@! TO.N,Net-(R3-Pad2)*
X77375001Y-164954999D02*
X77049999Y-165280001D01*
X104483674Y-164954999D02*
X77375001Y-164954999D01*
X106688673Y-162750000D02*
X104483674Y-164954999D01*
X77049999Y-165280001D02*
X76250000Y-166080000D01*
X108102886Y-162750000D02*
X106688673Y-162750000D01*
G04 #@! TO.N,Net-(R4-Pad2)*
X48563590Y-173700000D02*
X35500000Y-160636410D01*
X35500000Y-122500000D02*
X42750000Y-115250000D01*
X68250000Y-93250000D02*
X85750000Y-93250000D01*
X76250000Y-173700000D02*
X48563590Y-173700000D01*
X42750000Y-115250000D02*
X46250000Y-115250000D01*
X85750000Y-93250000D02*
X87000000Y-94500000D01*
X35500000Y-160636410D02*
X35500000Y-122500000D01*
X46250000Y-115250000D02*
X68250000Y-93250000D01*
G04 #@! TO.N,Net-(BT1-Pad1)*
X77589999Y-93774999D02*
X73000000Y-98364998D01*
X81878001Y-93774999D02*
X77589999Y-93774999D01*
X101304184Y-113201182D02*
X81878001Y-93774999D01*
X102920000Y-113201182D02*
X101304184Y-113201182D01*
X70460000Y-120000000D02*
X70460000Y-101540000D01*
X73000000Y-99000000D02*
X73000000Y-98364998D01*
X70460000Y-101540000D02*
X73000000Y-99000000D01*
G04 #@! TD*
D21*
G04 #@! TO.N,GND*
G36*
X83095886Y-90792308D02*
X85837906Y-91041852D01*
X88561721Y-91444069D01*
X91258836Y-91997708D01*
X93920841Y-92701040D01*
X96539434Y-93551872D01*
X99106450Y-94547552D01*
X101613882Y-95684974D01*
X104053913Y-96960591D01*
X106418932Y-98370425D01*
X108701564Y-99910080D01*
X110894691Y-101574754D01*
X112991474Y-103359256D01*
X114985374Y-105258022D01*
X116870173Y-107265129D01*
X118639993Y-109374319D01*
X120289316Y-111579014D01*
X121812998Y-113872339D01*
X123206287Y-116247143D01*
X124464838Y-118696019D01*
X125584727Y-121211331D01*
X126562462Y-123785235D01*
X127394993Y-126409705D01*
X128079723Y-129076555D01*
X128614519Y-131777470D01*
X128997711Y-134504026D01*
X129228106Y-137247722D01*
X129304984Y-140000000D01*
X129285761Y-141376676D01*
X129132064Y-144125735D01*
X128825151Y-146861928D01*
X128365978Y-149576722D01*
X127755977Y-152261651D01*
X126997051Y-154908343D01*
X126091565Y-157508543D01*
X125042344Y-160054144D01*
X123852660Y-162537206D01*
X122526223Y-164949987D01*
X121067168Y-167284961D01*
X119480047Y-169534849D01*
X117769809Y-171692633D01*
X115941787Y-173751584D01*
X114001681Y-175705282D01*
X111955541Y-177547634D01*
X109809750Y-179272895D01*
X107570997Y-180875684D01*
X105246265Y-182351004D01*
X102842804Y-183694253D01*
X100368107Y-184901243D01*
X97829894Y-185968210D01*
X95236078Y-186891826D01*
X92594749Y-187669212D01*
X89914144Y-188297942D01*
X87202621Y-188776057D01*
X84468638Y-189102064D01*
X81720719Y-189274949D01*
X78967434Y-189294171D01*
X76217370Y-189159670D01*
X73479101Y-188871866D01*
X70761167Y-188431657D01*
X68072045Y-187840415D01*
X65420119Y-187099984D01*
X62813661Y-186212673D01*
X60260797Y-185181250D01*
X58194746Y-184209039D01*
X74858096Y-184209039D01*
X75018959Y-184597423D01*
X75394866Y-185012389D01*
X75900959Y-185251914D01*
X76123000Y-185130629D01*
X76123000Y-183987000D01*
X76377000Y-183987000D01*
X76377000Y-185130629D01*
X76599041Y-185251914D01*
X77105134Y-185012389D01*
X77481041Y-184597423D01*
X77641904Y-184209039D01*
X77519915Y-183987000D01*
X76377000Y-183987000D01*
X76123000Y-183987000D01*
X74980085Y-183987000D01*
X74858096Y-184209039D01*
X58194746Y-184209039D01*
X57769490Y-184008929D01*
X55347508Y-182699369D01*
X53002404Y-181256651D01*
X50741491Y-179685276D01*
X48571820Y-177990143D01*
X46500157Y-176176539D01*
X44532963Y-174250120D01*
X42676371Y-172216892D01*
X40936172Y-170083198D01*
X39317792Y-167855689D01*
X37826279Y-165541313D01*
X36466283Y-163147288D01*
X36003198Y-162214409D01*
X47973261Y-174184473D01*
X48015661Y-174247929D01*
X48267053Y-174415904D01*
X48488738Y-174460000D01*
X48488742Y-174460000D01*
X48563589Y-174474888D01*
X48638436Y-174460000D01*
X75031957Y-174460000D01*
X75215423Y-174734577D01*
X75567758Y-174970000D01*
X75215423Y-175205423D01*
X74898260Y-175680091D01*
X74786887Y-176240000D01*
X74898260Y-176799909D01*
X75215423Y-177274577D01*
X75567758Y-177510000D01*
X75215423Y-177745423D01*
X74898260Y-178220091D01*
X74786887Y-178780000D01*
X74898260Y-179339909D01*
X75215423Y-179814577D01*
X75567758Y-180050000D01*
X75215423Y-180285423D01*
X74898260Y-180760091D01*
X74786887Y-181320000D01*
X74898260Y-181879909D01*
X75215423Y-182354577D01*
X75599108Y-182610947D01*
X75394866Y-182707611D01*
X75018959Y-183122577D01*
X74858096Y-183510961D01*
X74980085Y-183733000D01*
X76123000Y-183733000D01*
X76123000Y-183713000D01*
X76377000Y-183713000D01*
X76377000Y-183733000D01*
X77519915Y-183733000D01*
X77641904Y-183510961D01*
X77481041Y-183122577D01*
X77105134Y-182707611D01*
X76900892Y-182610947D01*
X77284577Y-182354577D01*
X77601740Y-181879909D01*
X77713113Y-181320000D01*
X77601740Y-180760091D01*
X77284577Y-180285423D01*
X76932242Y-180050000D01*
X77284577Y-179814577D01*
X77601740Y-179339909D01*
X77713113Y-178780000D01*
X77601740Y-178220091D01*
X77284577Y-177745423D01*
X76932242Y-177510000D01*
X77284577Y-177274577D01*
X77601740Y-176799909D01*
X77713113Y-176240000D01*
X77601740Y-175680091D01*
X77284577Y-175205423D01*
X76932242Y-174970000D01*
X77284577Y-174734577D01*
X77601740Y-174259909D01*
X77713113Y-173700000D01*
X77601740Y-173140091D01*
X77284577Y-172665423D01*
X76932242Y-172430000D01*
X77284577Y-172194577D01*
X77601740Y-171719909D01*
X77713113Y-171160000D01*
X77601740Y-170600091D01*
X77284577Y-170125423D01*
X76932242Y-169890000D01*
X77284577Y-169654577D01*
X77601740Y-169179909D01*
X77713113Y-168620000D01*
X77601740Y-168060091D01*
X77284577Y-167585423D01*
X76932242Y-167350000D01*
X77284577Y-167114577D01*
X77601740Y-166639909D01*
X77713113Y-166080000D01*
X77648688Y-165756113D01*
X77689802Y-165714999D01*
X82479490Y-165714999D01*
X82406887Y-166080000D01*
X82518260Y-166639909D01*
X82835423Y-167114577D01*
X83187758Y-167350000D01*
X82835423Y-167585423D01*
X82518260Y-168060091D01*
X82406887Y-168620000D01*
X82518260Y-169179909D01*
X82835423Y-169654577D01*
X83187758Y-169890000D01*
X82835423Y-170125423D01*
X82518260Y-170600091D01*
X82406887Y-171160000D01*
X82518260Y-171719909D01*
X82835423Y-172194577D01*
X83187758Y-172430000D01*
X82835423Y-172665423D01*
X82518260Y-173140091D01*
X82406887Y-173700000D01*
X82518260Y-174259909D01*
X82835423Y-174734577D01*
X83187758Y-174970000D01*
X82835423Y-175205423D01*
X82518260Y-175680091D01*
X82406887Y-176240000D01*
X82518260Y-176799909D01*
X82835423Y-177274577D01*
X83187758Y-177510000D01*
X82835423Y-177745423D01*
X82518260Y-178220091D01*
X82406887Y-178780000D01*
X82518260Y-179339909D01*
X82835423Y-179814577D01*
X83187758Y-180050000D01*
X82835423Y-180285423D01*
X82518260Y-180760091D01*
X82406887Y-181320000D01*
X82518260Y-181879909D01*
X82835423Y-182354577D01*
X83187758Y-182590000D01*
X82835423Y-182825423D01*
X82518260Y-183300091D01*
X82406887Y-183860000D01*
X82518260Y-184419909D01*
X82835423Y-184894577D01*
X83310091Y-185211740D01*
X83728667Y-185295000D01*
X84011333Y-185295000D01*
X84429909Y-185211740D01*
X84904577Y-184894577D01*
X85221740Y-184419909D01*
X85333113Y-183860000D01*
X85221740Y-183300091D01*
X84904577Y-182825423D01*
X84552242Y-182590000D01*
X84904577Y-182354577D01*
X85221740Y-181879909D01*
X85333113Y-181320000D01*
X85221740Y-180760091D01*
X84904577Y-180285423D01*
X84552242Y-180050000D01*
X84904577Y-179814577D01*
X85221740Y-179339909D01*
X85333113Y-178780000D01*
X85221740Y-178220091D01*
X84904577Y-177745423D01*
X84552242Y-177510000D01*
X84904577Y-177274577D01*
X85221740Y-176799909D01*
X85333113Y-176240000D01*
X85221740Y-175680091D01*
X84904577Y-175205423D01*
X84552242Y-174970000D01*
X84904577Y-174734577D01*
X85221740Y-174259909D01*
X85333113Y-173700000D01*
X85221740Y-173140091D01*
X84904577Y-172665423D01*
X84552242Y-172430000D01*
X84904577Y-172194577D01*
X85221740Y-171719909D01*
X85333113Y-171160000D01*
X85221740Y-170600091D01*
X84904577Y-170125423D01*
X84552242Y-169890000D01*
X84904577Y-169654577D01*
X85221740Y-169179909D01*
X85333113Y-168620000D01*
X85221740Y-168060091D01*
X84904577Y-167585423D01*
X84552242Y-167350000D01*
X84904577Y-167114577D01*
X85221740Y-166639909D01*
X85333113Y-166080000D01*
X85260510Y-165714999D01*
X104408827Y-165714999D01*
X104483674Y-165729887D01*
X104558521Y-165714999D01*
X104558526Y-165714999D01*
X104780211Y-165670903D01*
X105031603Y-165502928D01*
X105074005Y-165439469D01*
X106777061Y-163736414D01*
X107176733Y-164136086D01*
X107777664Y-164385000D01*
X108428108Y-164385000D01*
X109029039Y-164136086D01*
X109488972Y-163676153D01*
X109737886Y-163075222D01*
X109737886Y-162424778D01*
X109566079Y-162010000D01*
X112544253Y-162010000D01*
X113018725Y-162484473D01*
X113061125Y-162547929D01*
X113312517Y-162715904D01*
X113534202Y-162760000D01*
X113534206Y-162760000D01*
X113609053Y-162774888D01*
X113683900Y-162760000D01*
X116484534Y-162760000D01*
X116461585Y-162799748D01*
X116380384Y-163038960D01*
X116396906Y-163291038D01*
X116508636Y-163517605D01*
X116698565Y-163684168D01*
X117491709Y-164142090D01*
X117491709Y-164580603D01*
X116388489Y-165683823D01*
X116222336Y-165615000D01*
X115571892Y-165615000D01*
X114970961Y-165863914D01*
X114511028Y-166323847D01*
X114262114Y-166924778D01*
X114262114Y-167575222D01*
X114511028Y-168176153D01*
X114970961Y-168636086D01*
X115571892Y-168885000D01*
X116222336Y-168885000D01*
X116823267Y-168636086D01*
X117283200Y-168176153D01*
X117532114Y-167575222D01*
X117532114Y-166924778D01*
X117463291Y-166758625D01*
X118736181Y-165485735D01*
X118799637Y-165443335D01*
X118908773Y-165280002D01*
X118967612Y-165191944D01*
X118994672Y-165055902D01*
X119011708Y-164970258D01*
X119011708Y-164970254D01*
X119026596Y-164895406D01*
X119011708Y-164820558D01*
X119011708Y-164495565D01*
X119141831Y-164347188D01*
X120041831Y-162788342D01*
X120123032Y-162549130D01*
X120106510Y-162297052D01*
X119994780Y-162070485D01*
X119986550Y-162063268D01*
X120391215Y-161895650D01*
X120823018Y-161463847D01*
X121056708Y-160899670D01*
X121056708Y-160289010D01*
X120823018Y-159724833D01*
X120391215Y-159293030D01*
X120281708Y-159247671D01*
X120281708Y-133306555D01*
X120296596Y-133231708D01*
X120281708Y-133156861D01*
X120281708Y-133156856D01*
X120237612Y-132935171D01*
X120069637Y-132683779D01*
X120006181Y-132641379D01*
X101334784Y-113969983D01*
X101379030Y-113961182D01*
X101722700Y-113961182D01*
X101735680Y-113992519D01*
X102128663Y-114385502D01*
X102642119Y-114598182D01*
X103197881Y-114598182D01*
X103711337Y-114385502D01*
X104104320Y-113992519D01*
X104317000Y-113479063D01*
X104317000Y-112923301D01*
X104104320Y-112409845D01*
X103711337Y-112016862D01*
X103197881Y-111804182D01*
X102642119Y-111804182D01*
X102128663Y-112016862D01*
X101735680Y-112409845D01*
X101722700Y-112441182D01*
X101618987Y-112441182D01*
X83187803Y-94010000D01*
X85433253Y-94010000D01*
X85365000Y-94174778D01*
X85365000Y-94825222D01*
X85613914Y-95426153D01*
X86073847Y-95886086D01*
X86674778Y-96135000D01*
X87325222Y-96135000D01*
X87926153Y-95886086D01*
X88386086Y-95426153D01*
X88635000Y-94825222D01*
X88635000Y-94174778D01*
X88386086Y-93573847D01*
X87926153Y-93113914D01*
X87325222Y-92865000D01*
X86674778Y-92865000D01*
X86508624Y-92933823D01*
X86340331Y-92765530D01*
X86297929Y-92702071D01*
X86046537Y-92534096D01*
X85824852Y-92490000D01*
X85824847Y-92490000D01*
X85750000Y-92475112D01*
X85675153Y-92490000D01*
X68324846Y-92490000D01*
X68249999Y-92475112D01*
X68175152Y-92490000D01*
X68175148Y-92490000D01*
X67953463Y-92534096D01*
X67953461Y-92534097D01*
X67953462Y-92534097D01*
X67765526Y-92659671D01*
X67765524Y-92659673D01*
X67702071Y-92702071D01*
X67659673Y-92765524D01*
X45935199Y-114490000D01*
X42824846Y-114490000D01*
X42749999Y-114475112D01*
X42675152Y-114490000D01*
X42675148Y-114490000D01*
X42453463Y-114534096D01*
X42453461Y-114534097D01*
X42453462Y-114534097D01*
X42265526Y-114659671D01*
X42265524Y-114659673D01*
X42202071Y-114702071D01*
X42159673Y-114765524D01*
X35015528Y-121909671D01*
X34952072Y-121952071D01*
X34909672Y-122015527D01*
X34909671Y-122015528D01*
X34784097Y-122203463D01*
X34725112Y-122500000D01*
X34740001Y-122574852D01*
X34740000Y-159509717D01*
X34157385Y-158150375D01*
X33215683Y-155563071D01*
X32419877Y-152927233D01*
X31772448Y-150251083D01*
X31275415Y-147542964D01*
X30930329Y-144811323D01*
X30738265Y-142064678D01*
X30699822Y-139311595D01*
X30815120Y-136560658D01*
X31083801Y-133820447D01*
X31505024Y-131099506D01*
X32077478Y-128406322D01*
X32799377Y-125749292D01*
X33668470Y-123136702D01*
X34682047Y-120576700D01*
X35836946Y-118077270D01*
X37129566Y-115646204D01*
X38555877Y-113291085D01*
X40111430Y-111019258D01*
X41791374Y-108837805D01*
X43590471Y-106753532D01*
X45503110Y-104772936D01*
X47523327Y-102902195D01*
X49644821Y-101147142D01*
X51860977Y-99513251D01*
X54164883Y-98005617D01*
X56549356Y-96628941D01*
X59006959Y-95387517D01*
X61530028Y-94285215D01*
X64110695Y-93325473D01*
X66740913Y-92511285D01*
X69412478Y-91845189D01*
X72117061Y-91329262D01*
X74846226Y-90965114D01*
X77591463Y-90753879D01*
X80344211Y-90696218D01*
X83095886Y-90792308D01*
X83095886Y-90792308D01*
G37*
X83095886Y-90792308D02*
X85837906Y-91041852D01*
X88561721Y-91444069D01*
X91258836Y-91997708D01*
X93920841Y-92701040D01*
X96539434Y-93551872D01*
X99106450Y-94547552D01*
X101613882Y-95684974D01*
X104053913Y-96960591D01*
X106418932Y-98370425D01*
X108701564Y-99910080D01*
X110894691Y-101574754D01*
X112991474Y-103359256D01*
X114985374Y-105258022D01*
X116870173Y-107265129D01*
X118639993Y-109374319D01*
X120289316Y-111579014D01*
X121812998Y-113872339D01*
X123206287Y-116247143D01*
X124464838Y-118696019D01*
X125584727Y-121211331D01*
X126562462Y-123785235D01*
X127394993Y-126409705D01*
X128079723Y-129076555D01*
X128614519Y-131777470D01*
X128997711Y-134504026D01*
X129228106Y-137247722D01*
X129304984Y-140000000D01*
X129285761Y-141376676D01*
X129132064Y-144125735D01*
X128825151Y-146861928D01*
X128365978Y-149576722D01*
X127755977Y-152261651D01*
X126997051Y-154908343D01*
X126091565Y-157508543D01*
X125042344Y-160054144D01*
X123852660Y-162537206D01*
X122526223Y-164949987D01*
X121067168Y-167284961D01*
X119480047Y-169534849D01*
X117769809Y-171692633D01*
X115941787Y-173751584D01*
X114001681Y-175705282D01*
X111955541Y-177547634D01*
X109809750Y-179272895D01*
X107570997Y-180875684D01*
X105246265Y-182351004D01*
X102842804Y-183694253D01*
X100368107Y-184901243D01*
X97829894Y-185968210D01*
X95236078Y-186891826D01*
X92594749Y-187669212D01*
X89914144Y-188297942D01*
X87202621Y-188776057D01*
X84468638Y-189102064D01*
X81720719Y-189274949D01*
X78967434Y-189294171D01*
X76217370Y-189159670D01*
X73479101Y-188871866D01*
X70761167Y-188431657D01*
X68072045Y-187840415D01*
X65420119Y-187099984D01*
X62813661Y-186212673D01*
X60260797Y-185181250D01*
X58194746Y-184209039D01*
X74858096Y-184209039D01*
X75018959Y-184597423D01*
X75394866Y-185012389D01*
X75900959Y-185251914D01*
X76123000Y-185130629D01*
X76123000Y-183987000D01*
X76377000Y-183987000D01*
X76377000Y-185130629D01*
X76599041Y-185251914D01*
X77105134Y-185012389D01*
X77481041Y-184597423D01*
X77641904Y-184209039D01*
X77519915Y-183987000D01*
X76377000Y-183987000D01*
X76123000Y-183987000D01*
X74980085Y-183987000D01*
X74858096Y-184209039D01*
X58194746Y-184209039D01*
X57769490Y-184008929D01*
X55347508Y-182699369D01*
X53002404Y-181256651D01*
X50741491Y-179685276D01*
X48571820Y-177990143D01*
X46500157Y-176176539D01*
X44532963Y-174250120D01*
X42676371Y-172216892D01*
X40936172Y-170083198D01*
X39317792Y-167855689D01*
X37826279Y-165541313D01*
X36466283Y-163147288D01*
X36003198Y-162214409D01*
X47973261Y-174184473D01*
X48015661Y-174247929D01*
X48267053Y-174415904D01*
X48488738Y-174460000D01*
X48488742Y-174460000D01*
X48563589Y-174474888D01*
X48638436Y-174460000D01*
X75031957Y-174460000D01*
X75215423Y-174734577D01*
X75567758Y-174970000D01*
X75215423Y-175205423D01*
X74898260Y-175680091D01*
X74786887Y-176240000D01*
X74898260Y-176799909D01*
X75215423Y-177274577D01*
X75567758Y-177510000D01*
X75215423Y-177745423D01*
X74898260Y-178220091D01*
X74786887Y-178780000D01*
X74898260Y-179339909D01*
X75215423Y-179814577D01*
X75567758Y-180050000D01*
X75215423Y-180285423D01*
X74898260Y-180760091D01*
X74786887Y-181320000D01*
X74898260Y-181879909D01*
X75215423Y-182354577D01*
X75599108Y-182610947D01*
X75394866Y-182707611D01*
X75018959Y-183122577D01*
X74858096Y-183510961D01*
X74980085Y-183733000D01*
X76123000Y-183733000D01*
X76123000Y-183713000D01*
X76377000Y-183713000D01*
X76377000Y-183733000D01*
X77519915Y-183733000D01*
X77641904Y-183510961D01*
X77481041Y-183122577D01*
X77105134Y-182707611D01*
X76900892Y-182610947D01*
X77284577Y-182354577D01*
X77601740Y-181879909D01*
X77713113Y-181320000D01*
X77601740Y-180760091D01*
X77284577Y-180285423D01*
X76932242Y-180050000D01*
X77284577Y-179814577D01*
X77601740Y-179339909D01*
X77713113Y-178780000D01*
X77601740Y-178220091D01*
X77284577Y-177745423D01*
X76932242Y-177510000D01*
X77284577Y-177274577D01*
X77601740Y-176799909D01*
X77713113Y-176240000D01*
X77601740Y-175680091D01*
X77284577Y-175205423D01*
X76932242Y-174970000D01*
X77284577Y-174734577D01*
X77601740Y-174259909D01*
X77713113Y-173700000D01*
X77601740Y-173140091D01*
X77284577Y-172665423D01*
X76932242Y-172430000D01*
X77284577Y-172194577D01*
X77601740Y-171719909D01*
X77713113Y-171160000D01*
X77601740Y-170600091D01*
X77284577Y-170125423D01*
X76932242Y-169890000D01*
X77284577Y-169654577D01*
X77601740Y-169179909D01*
X77713113Y-168620000D01*
X77601740Y-168060091D01*
X77284577Y-167585423D01*
X76932242Y-167350000D01*
X77284577Y-167114577D01*
X77601740Y-166639909D01*
X77713113Y-166080000D01*
X77648688Y-165756113D01*
X77689802Y-165714999D01*
X82479490Y-165714999D01*
X82406887Y-166080000D01*
X82518260Y-166639909D01*
X82835423Y-167114577D01*
X83187758Y-167350000D01*
X82835423Y-167585423D01*
X82518260Y-168060091D01*
X82406887Y-168620000D01*
X82518260Y-169179909D01*
X82835423Y-169654577D01*
X83187758Y-169890000D01*
X82835423Y-170125423D01*
X82518260Y-170600091D01*
X82406887Y-171160000D01*
X82518260Y-171719909D01*
X82835423Y-172194577D01*
X83187758Y-172430000D01*
X82835423Y-172665423D01*
X82518260Y-173140091D01*
X82406887Y-173700000D01*
X82518260Y-174259909D01*
X82835423Y-174734577D01*
X83187758Y-174970000D01*
X82835423Y-175205423D01*
X82518260Y-175680091D01*
X82406887Y-176240000D01*
X82518260Y-176799909D01*
X82835423Y-177274577D01*
X83187758Y-177510000D01*
X82835423Y-177745423D01*
X82518260Y-178220091D01*
X82406887Y-178780000D01*
X82518260Y-179339909D01*
X82835423Y-179814577D01*
X83187758Y-180050000D01*
X82835423Y-180285423D01*
X82518260Y-180760091D01*
X82406887Y-181320000D01*
X82518260Y-181879909D01*
X82835423Y-182354577D01*
X83187758Y-182590000D01*
X82835423Y-182825423D01*
X82518260Y-183300091D01*
X82406887Y-183860000D01*
X82518260Y-184419909D01*
X82835423Y-184894577D01*
X83310091Y-185211740D01*
X83728667Y-185295000D01*
X84011333Y-185295000D01*
X84429909Y-185211740D01*
X84904577Y-184894577D01*
X85221740Y-184419909D01*
X85333113Y-183860000D01*
X85221740Y-183300091D01*
X84904577Y-182825423D01*
X84552242Y-182590000D01*
X84904577Y-182354577D01*
X85221740Y-181879909D01*
X85333113Y-181320000D01*
X85221740Y-180760091D01*
X84904577Y-180285423D01*
X84552242Y-180050000D01*
X84904577Y-179814577D01*
X85221740Y-179339909D01*
X85333113Y-178780000D01*
X85221740Y-178220091D01*
X84904577Y-177745423D01*
X84552242Y-177510000D01*
X84904577Y-177274577D01*
X85221740Y-176799909D01*
X85333113Y-176240000D01*
X85221740Y-175680091D01*
X84904577Y-175205423D01*
X84552242Y-174970000D01*
X84904577Y-174734577D01*
X85221740Y-174259909D01*
X85333113Y-173700000D01*
X85221740Y-173140091D01*
X84904577Y-172665423D01*
X84552242Y-172430000D01*
X84904577Y-172194577D01*
X85221740Y-171719909D01*
X85333113Y-171160000D01*
X85221740Y-170600091D01*
X84904577Y-170125423D01*
X84552242Y-169890000D01*
X84904577Y-169654577D01*
X85221740Y-169179909D01*
X85333113Y-168620000D01*
X85221740Y-168060091D01*
X84904577Y-167585423D01*
X84552242Y-167350000D01*
X84904577Y-167114577D01*
X85221740Y-166639909D01*
X85333113Y-166080000D01*
X85260510Y-165714999D01*
X104408827Y-165714999D01*
X104483674Y-165729887D01*
X104558521Y-165714999D01*
X104558526Y-165714999D01*
X104780211Y-165670903D01*
X105031603Y-165502928D01*
X105074005Y-165439469D01*
X106777061Y-163736414D01*
X107176733Y-164136086D01*
X107777664Y-164385000D01*
X108428108Y-164385000D01*
X109029039Y-164136086D01*
X109488972Y-163676153D01*
X109737886Y-163075222D01*
X109737886Y-162424778D01*
X109566079Y-162010000D01*
X112544253Y-162010000D01*
X113018725Y-162484473D01*
X113061125Y-162547929D01*
X113312517Y-162715904D01*
X113534202Y-162760000D01*
X113534206Y-162760000D01*
X113609053Y-162774888D01*
X113683900Y-162760000D01*
X116484534Y-162760000D01*
X116461585Y-162799748D01*
X116380384Y-163038960D01*
X116396906Y-163291038D01*
X116508636Y-163517605D01*
X116698565Y-163684168D01*
X117491709Y-164142090D01*
X117491709Y-164580603D01*
X116388489Y-165683823D01*
X116222336Y-165615000D01*
X115571892Y-165615000D01*
X114970961Y-165863914D01*
X114511028Y-166323847D01*
X114262114Y-166924778D01*
X114262114Y-167575222D01*
X114511028Y-168176153D01*
X114970961Y-168636086D01*
X115571892Y-168885000D01*
X116222336Y-168885000D01*
X116823267Y-168636086D01*
X117283200Y-168176153D01*
X117532114Y-167575222D01*
X117532114Y-166924778D01*
X117463291Y-166758625D01*
X118736181Y-165485735D01*
X118799637Y-165443335D01*
X118908773Y-165280002D01*
X118967612Y-165191944D01*
X118994672Y-165055902D01*
X119011708Y-164970258D01*
X119011708Y-164970254D01*
X119026596Y-164895406D01*
X119011708Y-164820558D01*
X119011708Y-164495565D01*
X119141831Y-164347188D01*
X120041831Y-162788342D01*
X120123032Y-162549130D01*
X120106510Y-162297052D01*
X119994780Y-162070485D01*
X119986550Y-162063268D01*
X120391215Y-161895650D01*
X120823018Y-161463847D01*
X121056708Y-160899670D01*
X121056708Y-160289010D01*
X120823018Y-159724833D01*
X120391215Y-159293030D01*
X120281708Y-159247671D01*
X120281708Y-133306555D01*
X120296596Y-133231708D01*
X120281708Y-133156861D01*
X120281708Y-133156856D01*
X120237612Y-132935171D01*
X120069637Y-132683779D01*
X120006181Y-132641379D01*
X101334784Y-113969983D01*
X101379030Y-113961182D01*
X101722700Y-113961182D01*
X101735680Y-113992519D01*
X102128663Y-114385502D01*
X102642119Y-114598182D01*
X103197881Y-114598182D01*
X103711337Y-114385502D01*
X104104320Y-113992519D01*
X104317000Y-113479063D01*
X104317000Y-112923301D01*
X104104320Y-112409845D01*
X103711337Y-112016862D01*
X103197881Y-111804182D01*
X102642119Y-111804182D01*
X102128663Y-112016862D01*
X101735680Y-112409845D01*
X101722700Y-112441182D01*
X101618987Y-112441182D01*
X83187803Y-94010000D01*
X85433253Y-94010000D01*
X85365000Y-94174778D01*
X85365000Y-94825222D01*
X85613914Y-95426153D01*
X86073847Y-95886086D01*
X86674778Y-96135000D01*
X87325222Y-96135000D01*
X87926153Y-95886086D01*
X88386086Y-95426153D01*
X88635000Y-94825222D01*
X88635000Y-94174778D01*
X88386086Y-93573847D01*
X87926153Y-93113914D01*
X87325222Y-92865000D01*
X86674778Y-92865000D01*
X86508624Y-92933823D01*
X86340331Y-92765530D01*
X86297929Y-92702071D01*
X86046537Y-92534096D01*
X85824852Y-92490000D01*
X85824847Y-92490000D01*
X85750000Y-92475112D01*
X85675153Y-92490000D01*
X68324846Y-92490000D01*
X68249999Y-92475112D01*
X68175152Y-92490000D01*
X68175148Y-92490000D01*
X67953463Y-92534096D01*
X67953461Y-92534097D01*
X67953462Y-92534097D01*
X67765526Y-92659671D01*
X67765524Y-92659673D01*
X67702071Y-92702071D01*
X67659673Y-92765524D01*
X45935199Y-114490000D01*
X42824846Y-114490000D01*
X42749999Y-114475112D01*
X42675152Y-114490000D01*
X42675148Y-114490000D01*
X42453463Y-114534096D01*
X42453461Y-114534097D01*
X42453462Y-114534097D01*
X42265526Y-114659671D01*
X42265524Y-114659673D01*
X42202071Y-114702071D01*
X42159673Y-114765524D01*
X35015528Y-121909671D01*
X34952072Y-121952071D01*
X34909672Y-122015527D01*
X34909671Y-122015528D01*
X34784097Y-122203463D01*
X34725112Y-122500000D01*
X34740001Y-122574852D01*
X34740000Y-159509717D01*
X34157385Y-158150375D01*
X33215683Y-155563071D01*
X32419877Y-152927233D01*
X31772448Y-150251083D01*
X31275415Y-147542964D01*
X30930329Y-144811323D01*
X30738265Y-142064678D01*
X30699822Y-139311595D01*
X30815120Y-136560658D01*
X31083801Y-133820447D01*
X31505024Y-131099506D01*
X32077478Y-128406322D01*
X32799377Y-125749292D01*
X33668470Y-123136702D01*
X34682047Y-120576700D01*
X35836946Y-118077270D01*
X37129566Y-115646204D01*
X38555877Y-113291085D01*
X40111430Y-111019258D01*
X41791374Y-108837805D01*
X43590471Y-106753532D01*
X45503110Y-104772936D01*
X47523327Y-102902195D01*
X49644821Y-101147142D01*
X51860977Y-99513251D01*
X54164883Y-98005617D01*
X56549356Y-96628941D01*
X59006959Y-95387517D01*
X61530028Y-94285215D01*
X64110695Y-93325473D01*
X66740913Y-92511285D01*
X69412478Y-91845189D01*
X72117061Y-91329262D01*
X74846226Y-90965114D01*
X77591463Y-90753879D01*
X80344211Y-90696218D01*
X83095886Y-90792308D01*
G36*
X85433823Y-103008625D02*
X85365000Y-103174778D01*
X85365000Y-103825222D01*
X85613914Y-104426153D01*
X86073847Y-104886086D01*
X86674778Y-105135000D01*
X87325222Y-105135000D01*
X87926153Y-104886086D01*
X88386086Y-104426153D01*
X88635000Y-103825222D01*
X88635000Y-103419801D01*
X118761708Y-133546510D01*
X118761709Y-159247670D01*
X118652201Y-159293030D01*
X118220398Y-159724833D01*
X118175126Y-159834130D01*
X118174068Y-159834340D01*
X118174064Y-159834340D01*
X117952379Y-159878436D01*
X117925484Y-159896407D01*
X117764442Y-160004011D01*
X117764440Y-160004013D01*
X117700987Y-160046411D01*
X117658589Y-160109864D01*
X116528455Y-161240000D01*
X115162264Y-161240000D01*
X115711704Y-160288342D01*
X115792905Y-160049130D01*
X115776383Y-159797052D01*
X115664653Y-159570485D01*
X115656423Y-159563268D01*
X116061088Y-159395650D01*
X116492891Y-158963847D01*
X116726581Y-158399670D01*
X116726581Y-157789010D01*
X116492891Y-157224833D01*
X116061088Y-156793030D01*
X115951581Y-156747671D01*
X115951581Y-137163427D01*
X115966469Y-137088579D01*
X115951581Y-137013731D01*
X115951581Y-137013727D01*
X115907485Y-136792042D01*
X115739510Y-136540650D01*
X115676054Y-136498250D01*
X111225816Y-132048012D01*
X112876760Y-132048012D01*
X113058010Y-132223017D01*
X113604701Y-132123022D01*
X114071511Y-131821428D01*
X114324388Y-131491873D01*
X114263454Y-131247404D01*
X113169803Y-130954361D01*
X112876760Y-132048012D01*
X111225816Y-132048012D01*
X109954632Y-130776828D01*
X111655801Y-130776828D01*
X111755796Y-131323519D01*
X112057390Y-131790329D01*
X112386945Y-132043206D01*
X112631414Y-131982272D01*
X112924457Y-130888621D01*
X112254159Y-130709015D01*
X113235543Y-130709015D01*
X114329194Y-131002058D01*
X114504199Y-130820808D01*
X114404204Y-130274117D01*
X114102610Y-129807307D01*
X113773055Y-129554430D01*
X113528586Y-129615364D01*
X113235543Y-130709015D01*
X112254159Y-130709015D01*
X111830806Y-130595578D01*
X111655801Y-130776828D01*
X109954632Y-130776828D01*
X109283567Y-130105763D01*
X111835612Y-130105763D01*
X111896546Y-130350232D01*
X112990197Y-130643275D01*
X113283240Y-129549624D01*
X113101990Y-129374619D01*
X112555299Y-129474614D01*
X112088489Y-129776208D01*
X111835612Y-130105763D01*
X109283567Y-130105763D01*
X82050000Y-102872197D01*
X82050000Y-101346669D01*
X82159507Y-101301310D01*
X82591310Y-100869507D01*
X82797330Y-100372131D01*
X85433823Y-103008625D01*
X85433823Y-103008625D01*
G37*
X85433823Y-103008625D02*
X85365000Y-103174778D01*
X85365000Y-103825222D01*
X85613914Y-104426153D01*
X86073847Y-104886086D01*
X86674778Y-105135000D01*
X87325222Y-105135000D01*
X87926153Y-104886086D01*
X88386086Y-104426153D01*
X88635000Y-103825222D01*
X88635000Y-103419801D01*
X118761708Y-133546510D01*
X118761709Y-159247670D01*
X118652201Y-159293030D01*
X118220398Y-159724833D01*
X118175126Y-159834130D01*
X118174068Y-159834340D01*
X118174064Y-159834340D01*
X117952379Y-159878436D01*
X117925484Y-159896407D01*
X117764442Y-160004011D01*
X117764440Y-160004013D01*
X117700987Y-160046411D01*
X117658589Y-160109864D01*
X116528455Y-161240000D01*
X115162264Y-161240000D01*
X115711704Y-160288342D01*
X115792905Y-160049130D01*
X115776383Y-159797052D01*
X115664653Y-159570485D01*
X115656423Y-159563268D01*
X116061088Y-159395650D01*
X116492891Y-158963847D01*
X116726581Y-158399670D01*
X116726581Y-157789010D01*
X116492891Y-157224833D01*
X116061088Y-156793030D01*
X115951581Y-156747671D01*
X115951581Y-137163427D01*
X115966469Y-137088579D01*
X115951581Y-137013731D01*
X115951581Y-137013727D01*
X115907485Y-136792042D01*
X115739510Y-136540650D01*
X115676054Y-136498250D01*
X111225816Y-132048012D01*
X112876760Y-132048012D01*
X113058010Y-132223017D01*
X113604701Y-132123022D01*
X114071511Y-131821428D01*
X114324388Y-131491873D01*
X114263454Y-131247404D01*
X113169803Y-130954361D01*
X112876760Y-132048012D01*
X111225816Y-132048012D01*
X109954632Y-130776828D01*
X111655801Y-130776828D01*
X111755796Y-131323519D01*
X112057390Y-131790329D01*
X112386945Y-132043206D01*
X112631414Y-131982272D01*
X112924457Y-130888621D01*
X112254159Y-130709015D01*
X113235543Y-130709015D01*
X114329194Y-131002058D01*
X114504199Y-130820808D01*
X114404204Y-130274117D01*
X114102610Y-129807307D01*
X113773055Y-129554430D01*
X113528586Y-129615364D01*
X113235543Y-130709015D01*
X112254159Y-130709015D01*
X111830806Y-130595578D01*
X111655801Y-130776828D01*
X109954632Y-130776828D01*
X109283567Y-130105763D01*
X111835612Y-130105763D01*
X111896546Y-130350232D01*
X112990197Y-130643275D01*
X113283240Y-129549624D01*
X113101990Y-129374619D01*
X112555299Y-129474614D01*
X112088489Y-129776208D01*
X111835612Y-130105763D01*
X109283567Y-130105763D01*
X82050000Y-102872197D01*
X82050000Y-101346669D01*
X82159507Y-101301310D01*
X82591310Y-100869507D01*
X82797330Y-100372131D01*
X85433823Y-103008625D01*
G36*
X77202560Y-95900000D02*
X77251843Y-96147765D01*
X77392191Y-96357809D01*
X77602235Y-96498157D01*
X77850000Y-96547440D01*
X77990000Y-96547440D01*
X77990001Y-98452560D01*
X77850000Y-98452560D01*
X77602235Y-98501843D01*
X77392191Y-98642191D01*
X77251843Y-98852235D01*
X77202560Y-99100000D01*
X77202560Y-100900000D01*
X77251843Y-101147765D01*
X77392191Y-101357809D01*
X77602235Y-101498157D01*
X77850000Y-101547440D01*
X77990000Y-101547440D01*
X77990001Y-103452560D01*
X77850000Y-103452560D01*
X77602235Y-103501843D01*
X77392191Y-103642191D01*
X77251843Y-103852235D01*
X77202560Y-104100000D01*
X77202560Y-105900000D01*
X77251843Y-106147765D01*
X77392191Y-106357809D01*
X77602235Y-106498157D01*
X77850000Y-106547440D01*
X77990000Y-106547440D01*
X77990001Y-108452560D01*
X77850000Y-108452560D01*
X77602235Y-108501843D01*
X77392191Y-108642191D01*
X77251843Y-108852235D01*
X77202560Y-109100000D01*
X77202560Y-110900000D01*
X77251843Y-111147765D01*
X77392191Y-111357809D01*
X77602235Y-111498157D01*
X77850000Y-111547440D01*
X77990000Y-111547440D01*
X77990001Y-113452560D01*
X77850000Y-113452560D01*
X77602235Y-113501843D01*
X77392191Y-113642191D01*
X77251843Y-113852235D01*
X77202560Y-114100000D01*
X77202560Y-115900000D01*
X77251843Y-116147765D01*
X77392191Y-116357809D01*
X77602235Y-116498157D01*
X77850000Y-116547440D01*
X77990001Y-116547440D01*
X77990000Y-118452560D01*
X77850000Y-118452560D01*
X77602235Y-118501843D01*
X77392191Y-118642191D01*
X77251843Y-118852235D01*
X77202560Y-119100000D01*
X77202560Y-120900000D01*
X77251843Y-121147765D01*
X77392191Y-121357809D01*
X77602235Y-121498157D01*
X77850000Y-121547440D01*
X77990001Y-121547440D01*
X77990000Y-123452560D01*
X77850000Y-123452560D01*
X77602235Y-123501843D01*
X77392191Y-123642191D01*
X77251843Y-123852235D01*
X77202560Y-124100000D01*
X77202560Y-125900000D01*
X77251843Y-126147765D01*
X77392191Y-126357809D01*
X77602235Y-126498157D01*
X77850000Y-126547440D01*
X77990001Y-126547440D01*
X77990000Y-128952560D01*
X77850000Y-128952560D01*
X77602235Y-129001843D01*
X77392191Y-129142191D01*
X77251843Y-129352235D01*
X77202560Y-129600000D01*
X77202560Y-131400000D01*
X77251843Y-131647765D01*
X77392191Y-131857809D01*
X77602235Y-131998157D01*
X77850000Y-132047440D01*
X79650000Y-132047440D01*
X79897765Y-131998157D01*
X80107809Y-131857809D01*
X80248157Y-131647765D01*
X80251275Y-131632092D01*
X80420493Y-131801310D01*
X80984670Y-132035000D01*
X81595330Y-132035000D01*
X81704838Y-131989640D01*
X81705526Y-131990328D01*
X81705529Y-131990330D01*
X89350819Y-139635621D01*
X89350818Y-141559340D01*
X88905489Y-141559340D01*
X88341312Y-141793030D01*
X87909509Y-142224833D01*
X87864150Y-142334340D01*
X84266451Y-142334340D01*
X84835000Y-140961741D01*
X84835000Y-139038259D01*
X84098915Y-137261193D01*
X82738807Y-135901085D01*
X80961741Y-135165000D01*
X79038259Y-135165000D01*
X77261193Y-135901085D01*
X75901085Y-137261193D01*
X75165000Y-139038259D01*
X75165000Y-140961741D01*
X75901085Y-142738807D01*
X76927279Y-143765001D01*
X73701832Y-143765001D01*
X73068970Y-143132140D01*
X73026568Y-143068681D01*
X72775176Y-142900706D01*
X72553491Y-142856610D01*
X72553486Y-142856610D01*
X72552429Y-142856400D01*
X72507157Y-142747103D01*
X72075354Y-142315300D01*
X71511177Y-142081610D01*
X70900517Y-142081610D01*
X70336340Y-142315300D01*
X69904537Y-142747103D01*
X69670847Y-143311280D01*
X69670847Y-143921940D01*
X69789064Y-144207342D01*
X66231390Y-144207342D01*
X66156543Y-144192454D01*
X66081696Y-144207342D01*
X66081692Y-144207342D01*
X65860007Y-144251438D01*
X65860005Y-144251439D01*
X65860006Y-144251439D01*
X65672070Y-144377013D01*
X65672068Y-144377015D01*
X65608615Y-144419413D01*
X65566216Y-144482867D01*
X65185198Y-144863886D01*
X63744721Y-144863886D01*
X63669873Y-144848998D01*
X63595025Y-144863886D01*
X63595021Y-144863886D01*
X63373336Y-144907982D01*
X63121944Y-145075957D01*
X63079544Y-145139413D01*
X60728958Y-147490000D01*
X59288480Y-147490000D01*
X59213632Y-147475112D01*
X59138784Y-147490000D01*
X59138780Y-147490000D01*
X58965237Y-147524520D01*
X58917094Y-147534096D01*
X58788725Y-147619870D01*
X58665703Y-147702071D01*
X58623303Y-147765527D01*
X56435199Y-149953632D01*
X54994721Y-149953632D01*
X54919873Y-149938744D01*
X54845025Y-149953632D01*
X54845021Y-149953632D01*
X54623336Y-149997728D01*
X54371944Y-150165703D01*
X54329544Y-150229159D01*
X51935199Y-152623505D01*
X50494721Y-152623505D01*
X50419873Y-152608617D01*
X50345025Y-152623505D01*
X50345021Y-152623505D01*
X50171478Y-152658025D01*
X50123335Y-152667601D01*
X49980005Y-152763372D01*
X49871944Y-152835576D01*
X49829544Y-152899032D01*
X47884235Y-154844342D01*
X46443756Y-154844342D01*
X46368909Y-154829454D01*
X46294062Y-154844342D01*
X46294057Y-154844342D01*
X46072372Y-154888438D01*
X45820980Y-155056413D01*
X45778580Y-155119869D01*
X43408450Y-157490000D01*
X41967970Y-157490000D01*
X41893123Y-157475112D01*
X41818276Y-157490000D01*
X40417688Y-157490000D01*
X39669063Y-156741375D01*
X39737886Y-156575222D01*
X39737886Y-155924778D01*
X39488972Y-155323847D01*
X39029039Y-154863914D01*
X38727622Y-154739063D01*
X41956685Y-151510001D01*
X44262114Y-151510001D01*
X44262114Y-152075222D01*
X44511028Y-152676153D01*
X44970961Y-153136086D01*
X45571892Y-153385000D01*
X46222336Y-153385000D01*
X46823267Y-153136086D01*
X47283200Y-152676153D01*
X47532114Y-152075222D01*
X47532114Y-151424778D01*
X47283200Y-150823847D01*
X46823267Y-150363914D01*
X46222336Y-150115000D01*
X45571892Y-150115000D01*
X45413143Y-150180756D01*
X45193652Y-150034097D01*
X44971967Y-149990001D01*
X44971962Y-149990001D01*
X44897115Y-149975113D01*
X44822268Y-149990001D01*
X42840274Y-149990001D01*
X49984473Y-142845803D01*
X50047929Y-142803403D01*
X50090331Y-142739944D01*
X54734476Y-138095801D01*
X54797929Y-138053403D01*
X54840327Y-137989950D01*
X54840329Y-137989948D01*
X54924840Y-137863467D01*
X54965904Y-137802011D01*
X55010000Y-137580326D01*
X55010000Y-137580322D01*
X55024888Y-137505475D01*
X55010000Y-137430628D01*
X55010000Y-127073366D01*
X55062862Y-127051470D01*
X55466534Y-126647798D01*
X55685000Y-126120375D01*
X55685000Y-125549497D01*
X55652044Y-125469935D01*
X60066920Y-125469935D01*
X63514052Y-128917067D01*
X63503104Y-128910746D01*
X63420682Y-129053505D01*
X63282253Y-128833495D01*
X62842238Y-128775556D01*
X62276211Y-128899425D01*
X61800674Y-129230474D01*
X61790228Y-129489900D01*
X62824106Y-130086810D01*
X62834106Y-130069489D01*
X63054076Y-130196489D01*
X63044076Y-130213810D01*
X63061397Y-130223810D01*
X62934397Y-130443780D01*
X62917076Y-130433780D01*
X62907076Y-130451101D01*
X62687106Y-130324101D01*
X62697106Y-130306780D01*
X61663228Y-129709871D01*
X61443782Y-129848630D01*
X61394853Y-130425982D01*
X61569603Y-130975000D01*
X61454335Y-130975000D01*
X61021173Y-131061161D01*
X60529966Y-131389375D01*
X60201752Y-131880582D01*
X60086499Y-132460000D01*
X60201752Y-133039418D01*
X60529966Y-133530625D01*
X61021173Y-133858839D01*
X61454335Y-133945000D01*
X61746847Y-133945000D01*
X62180009Y-133858839D01*
X62296366Y-133781092D01*
X62401456Y-134309418D01*
X62729670Y-134800625D01*
X63220877Y-135128839D01*
X63654039Y-135215000D01*
X63946551Y-135215000D01*
X64219338Y-135160739D01*
X64196977Y-135226614D01*
X64213499Y-135478692D01*
X64325229Y-135705259D01*
X64515158Y-135871822D01*
X65987402Y-136721822D01*
X66226614Y-136803023D01*
X66478692Y-136786501D01*
X66705259Y-136674771D01*
X66871822Y-136484842D01*
X67721822Y-135012598D01*
X67803023Y-134773386D01*
X67786501Y-134521308D01*
X67674771Y-134294741D01*
X67618197Y-134245127D01*
X67849418Y-134199134D01*
X68340625Y-133870920D01*
X68668839Y-133379713D01*
X68784092Y-132800295D01*
X68668839Y-132220877D01*
X68340625Y-131729670D01*
X68264327Y-131678689D01*
X68404473Y-131538543D01*
X68467929Y-131496143D01*
X68532170Y-131400000D01*
X68635904Y-131244752D01*
X68661963Y-131113742D01*
X68680000Y-131023066D01*
X68680000Y-131023062D01*
X68694888Y-130948214D01*
X68680000Y-130873366D01*
X68680000Y-121197300D01*
X68711337Y-121184320D01*
X69104320Y-120791337D01*
X69190000Y-120584487D01*
X69275680Y-120791337D01*
X69668663Y-121184320D01*
X70182119Y-121397000D01*
X70737881Y-121397000D01*
X71251337Y-121184320D01*
X71644320Y-120791337D01*
X71730000Y-120584487D01*
X71815680Y-120791337D01*
X72208663Y-121184320D01*
X72722119Y-121397000D01*
X73277881Y-121397000D01*
X73791337Y-121184320D01*
X74184320Y-120791337D01*
X74397000Y-120277881D01*
X74397000Y-119722119D01*
X74184320Y-119208663D01*
X73791337Y-118815680D01*
X73277881Y-118603000D01*
X72722119Y-118603000D01*
X72208663Y-118815680D01*
X71815680Y-119208663D01*
X71730000Y-119415513D01*
X71644320Y-119208663D01*
X71251337Y-118815680D01*
X71220000Y-118802700D01*
X71220000Y-101854801D01*
X73484476Y-99590327D01*
X73547929Y-99547929D01*
X73590327Y-99484476D01*
X73590329Y-99484474D01*
X73715903Y-99296538D01*
X73715904Y-99296537D01*
X73760000Y-99074852D01*
X73760000Y-99074848D01*
X73774888Y-99000001D01*
X73760000Y-98925154D01*
X73760000Y-98679799D01*
X77202560Y-95237240D01*
X77202560Y-95900000D01*
X77202560Y-95900000D01*
G37*
X77202560Y-95900000D02*
X77251843Y-96147765D01*
X77392191Y-96357809D01*
X77602235Y-96498157D01*
X77850000Y-96547440D01*
X77990000Y-96547440D01*
X77990001Y-98452560D01*
X77850000Y-98452560D01*
X77602235Y-98501843D01*
X77392191Y-98642191D01*
X77251843Y-98852235D01*
X77202560Y-99100000D01*
X77202560Y-100900000D01*
X77251843Y-101147765D01*
X77392191Y-101357809D01*
X77602235Y-101498157D01*
X77850000Y-101547440D01*
X77990000Y-101547440D01*
X77990001Y-103452560D01*
X77850000Y-103452560D01*
X77602235Y-103501843D01*
X77392191Y-103642191D01*
X77251843Y-103852235D01*
X77202560Y-104100000D01*
X77202560Y-105900000D01*
X77251843Y-106147765D01*
X77392191Y-106357809D01*
X77602235Y-106498157D01*
X77850000Y-106547440D01*
X77990000Y-106547440D01*
X77990001Y-108452560D01*
X77850000Y-108452560D01*
X77602235Y-108501843D01*
X77392191Y-108642191D01*
X77251843Y-108852235D01*
X77202560Y-109100000D01*
X77202560Y-110900000D01*
X77251843Y-111147765D01*
X77392191Y-111357809D01*
X77602235Y-111498157D01*
X77850000Y-111547440D01*
X77990000Y-111547440D01*
X77990001Y-113452560D01*
X77850000Y-113452560D01*
X77602235Y-113501843D01*
X77392191Y-113642191D01*
X77251843Y-113852235D01*
X77202560Y-114100000D01*
X77202560Y-115900000D01*
X77251843Y-116147765D01*
X77392191Y-116357809D01*
X77602235Y-116498157D01*
X77850000Y-116547440D01*
X77990001Y-116547440D01*
X77990000Y-118452560D01*
X77850000Y-118452560D01*
X77602235Y-118501843D01*
X77392191Y-118642191D01*
X77251843Y-118852235D01*
X77202560Y-119100000D01*
X77202560Y-120900000D01*
X77251843Y-121147765D01*
X77392191Y-121357809D01*
X77602235Y-121498157D01*
X77850000Y-121547440D01*
X77990001Y-121547440D01*
X77990000Y-123452560D01*
X77850000Y-123452560D01*
X77602235Y-123501843D01*
X77392191Y-123642191D01*
X77251843Y-123852235D01*
X77202560Y-124100000D01*
X77202560Y-125900000D01*
X77251843Y-126147765D01*
X77392191Y-126357809D01*
X77602235Y-126498157D01*
X77850000Y-126547440D01*
X77990001Y-126547440D01*
X77990000Y-128952560D01*
X77850000Y-128952560D01*
X77602235Y-129001843D01*
X77392191Y-129142191D01*
X77251843Y-129352235D01*
X77202560Y-129600000D01*
X77202560Y-131400000D01*
X77251843Y-131647765D01*
X77392191Y-131857809D01*
X77602235Y-131998157D01*
X77850000Y-132047440D01*
X79650000Y-132047440D01*
X79897765Y-131998157D01*
X80107809Y-131857809D01*
X80248157Y-131647765D01*
X80251275Y-131632092D01*
X80420493Y-131801310D01*
X80984670Y-132035000D01*
X81595330Y-132035000D01*
X81704838Y-131989640D01*
X81705526Y-131990328D01*
X81705529Y-131990330D01*
X89350819Y-139635621D01*
X89350818Y-141559340D01*
X88905489Y-141559340D01*
X88341312Y-141793030D01*
X87909509Y-142224833D01*
X87864150Y-142334340D01*
X84266451Y-142334340D01*
X84835000Y-140961741D01*
X84835000Y-139038259D01*
X84098915Y-137261193D01*
X82738807Y-135901085D01*
X80961741Y-135165000D01*
X79038259Y-135165000D01*
X77261193Y-135901085D01*
X75901085Y-137261193D01*
X75165000Y-139038259D01*
X75165000Y-140961741D01*
X75901085Y-142738807D01*
X76927279Y-143765001D01*
X73701832Y-143765001D01*
X73068970Y-143132140D01*
X73026568Y-143068681D01*
X72775176Y-142900706D01*
X72553491Y-142856610D01*
X72553486Y-142856610D01*
X72552429Y-142856400D01*
X72507157Y-142747103D01*
X72075354Y-142315300D01*
X71511177Y-142081610D01*
X70900517Y-142081610D01*
X70336340Y-142315300D01*
X69904537Y-142747103D01*
X69670847Y-143311280D01*
X69670847Y-143921940D01*
X69789064Y-144207342D01*
X66231390Y-144207342D01*
X66156543Y-144192454D01*
X66081696Y-144207342D01*
X66081692Y-144207342D01*
X65860007Y-144251438D01*
X65860005Y-144251439D01*
X65860006Y-144251439D01*
X65672070Y-144377013D01*
X65672068Y-144377015D01*
X65608615Y-144419413D01*
X65566216Y-144482867D01*
X65185198Y-144863886D01*
X63744721Y-144863886D01*
X63669873Y-144848998D01*
X63595025Y-144863886D01*
X63595021Y-144863886D01*
X63373336Y-144907982D01*
X63121944Y-145075957D01*
X63079544Y-145139413D01*
X60728958Y-147490000D01*
X59288480Y-147490000D01*
X59213632Y-147475112D01*
X59138784Y-147490000D01*
X59138780Y-147490000D01*
X58965237Y-147524520D01*
X58917094Y-147534096D01*
X58788725Y-147619870D01*
X58665703Y-147702071D01*
X58623303Y-147765527D01*
X56435199Y-149953632D01*
X54994721Y-149953632D01*
X54919873Y-149938744D01*
X54845025Y-149953632D01*
X54845021Y-149953632D01*
X54623336Y-149997728D01*
X54371944Y-150165703D01*
X54329544Y-150229159D01*
X51935199Y-152623505D01*
X50494721Y-152623505D01*
X50419873Y-152608617D01*
X50345025Y-152623505D01*
X50345021Y-152623505D01*
X50171478Y-152658025D01*
X50123335Y-152667601D01*
X49980005Y-152763372D01*
X49871944Y-152835576D01*
X49829544Y-152899032D01*
X47884235Y-154844342D01*
X46443756Y-154844342D01*
X46368909Y-154829454D01*
X46294062Y-154844342D01*
X46294057Y-154844342D01*
X46072372Y-154888438D01*
X45820980Y-155056413D01*
X45778580Y-155119869D01*
X43408450Y-157490000D01*
X41967970Y-157490000D01*
X41893123Y-157475112D01*
X41818276Y-157490000D01*
X40417688Y-157490000D01*
X39669063Y-156741375D01*
X39737886Y-156575222D01*
X39737886Y-155924778D01*
X39488972Y-155323847D01*
X39029039Y-154863914D01*
X38727622Y-154739063D01*
X41956685Y-151510001D01*
X44262114Y-151510001D01*
X44262114Y-152075222D01*
X44511028Y-152676153D01*
X44970961Y-153136086D01*
X45571892Y-153385000D01*
X46222336Y-153385000D01*
X46823267Y-153136086D01*
X47283200Y-152676153D01*
X47532114Y-152075222D01*
X47532114Y-151424778D01*
X47283200Y-150823847D01*
X46823267Y-150363914D01*
X46222336Y-150115000D01*
X45571892Y-150115000D01*
X45413143Y-150180756D01*
X45193652Y-150034097D01*
X44971967Y-149990001D01*
X44971962Y-149990001D01*
X44897115Y-149975113D01*
X44822268Y-149990001D01*
X42840274Y-149990001D01*
X49984473Y-142845803D01*
X50047929Y-142803403D01*
X50090331Y-142739944D01*
X54734476Y-138095801D01*
X54797929Y-138053403D01*
X54840327Y-137989950D01*
X54840329Y-137989948D01*
X54924840Y-137863467D01*
X54965904Y-137802011D01*
X55010000Y-137580326D01*
X55010000Y-137580322D01*
X55024888Y-137505475D01*
X55010000Y-137430628D01*
X55010000Y-127073366D01*
X55062862Y-127051470D01*
X55466534Y-126647798D01*
X55685000Y-126120375D01*
X55685000Y-125549497D01*
X55652044Y-125469935D01*
X60066920Y-125469935D01*
X63514052Y-128917067D01*
X63503104Y-128910746D01*
X63420682Y-129053505D01*
X63282253Y-128833495D01*
X62842238Y-128775556D01*
X62276211Y-128899425D01*
X61800674Y-129230474D01*
X61790228Y-129489900D01*
X62824106Y-130086810D01*
X62834106Y-130069489D01*
X63054076Y-130196489D01*
X63044076Y-130213810D01*
X63061397Y-130223810D01*
X62934397Y-130443780D01*
X62917076Y-130433780D01*
X62907076Y-130451101D01*
X62687106Y-130324101D01*
X62697106Y-130306780D01*
X61663228Y-129709871D01*
X61443782Y-129848630D01*
X61394853Y-130425982D01*
X61569603Y-130975000D01*
X61454335Y-130975000D01*
X61021173Y-131061161D01*
X60529966Y-131389375D01*
X60201752Y-131880582D01*
X60086499Y-132460000D01*
X60201752Y-133039418D01*
X60529966Y-133530625D01*
X61021173Y-133858839D01*
X61454335Y-133945000D01*
X61746847Y-133945000D01*
X62180009Y-133858839D01*
X62296366Y-133781092D01*
X62401456Y-134309418D01*
X62729670Y-134800625D01*
X63220877Y-135128839D01*
X63654039Y-135215000D01*
X63946551Y-135215000D01*
X64219338Y-135160739D01*
X64196977Y-135226614D01*
X64213499Y-135478692D01*
X64325229Y-135705259D01*
X64515158Y-135871822D01*
X65987402Y-136721822D01*
X66226614Y-136803023D01*
X66478692Y-136786501D01*
X66705259Y-136674771D01*
X66871822Y-136484842D01*
X67721822Y-135012598D01*
X67803023Y-134773386D01*
X67786501Y-134521308D01*
X67674771Y-134294741D01*
X67618197Y-134245127D01*
X67849418Y-134199134D01*
X68340625Y-133870920D01*
X68668839Y-133379713D01*
X68784092Y-132800295D01*
X68668839Y-132220877D01*
X68340625Y-131729670D01*
X68264327Y-131678689D01*
X68404473Y-131538543D01*
X68467929Y-131496143D01*
X68532170Y-131400000D01*
X68635904Y-131244752D01*
X68661963Y-131113742D01*
X68680000Y-131023066D01*
X68680000Y-131023062D01*
X68694888Y-130948214D01*
X68680000Y-130873366D01*
X68680000Y-121197300D01*
X68711337Y-121184320D01*
X69104320Y-120791337D01*
X69190000Y-120584487D01*
X69275680Y-120791337D01*
X69668663Y-121184320D01*
X70182119Y-121397000D01*
X70737881Y-121397000D01*
X71251337Y-121184320D01*
X71644320Y-120791337D01*
X71730000Y-120584487D01*
X71815680Y-120791337D01*
X72208663Y-121184320D01*
X72722119Y-121397000D01*
X73277881Y-121397000D01*
X73791337Y-121184320D01*
X74184320Y-120791337D01*
X74397000Y-120277881D01*
X74397000Y-119722119D01*
X74184320Y-119208663D01*
X73791337Y-118815680D01*
X73277881Y-118603000D01*
X72722119Y-118603000D01*
X72208663Y-118815680D01*
X71815680Y-119208663D01*
X71730000Y-119415513D01*
X71644320Y-119208663D01*
X71251337Y-118815680D01*
X71220000Y-118802700D01*
X71220000Y-101854801D01*
X73484476Y-99590327D01*
X73547929Y-99547929D01*
X73590327Y-99484476D01*
X73590329Y-99484474D01*
X73715903Y-99296538D01*
X73715904Y-99296537D01*
X73760000Y-99074852D01*
X73760000Y-99074848D01*
X73774888Y-99000001D01*
X73760000Y-98925154D01*
X73760000Y-98679799D01*
X77202560Y-95237240D01*
X77202560Y-95900000D01*
G36*
X99141077Y-152799748D02*
X99059876Y-153038960D01*
X99076398Y-153291038D01*
X99188128Y-153517605D01*
X99378057Y-153684168D01*
X100396665Y-154272261D01*
X100053925Y-154615001D01*
X82643687Y-154615001D01*
X82696965Y-154466777D01*
X82669778Y-153896546D01*
X82503864Y-153495995D01*
X82257745Y-153421861D01*
X81429605Y-154250000D01*
X81443748Y-154264143D01*
X81264143Y-154443748D01*
X81250000Y-154429605D01*
X81235858Y-154443748D01*
X81056253Y-154264143D01*
X81070395Y-154250000D01*
X80242255Y-153421861D01*
X80194693Y-153436187D01*
X80149002Y-153206481D01*
X80432637Y-153206481D01*
X80421861Y-153242255D01*
X81250000Y-154070395D01*
X82078139Y-153242255D01*
X82067363Y-153206481D01*
X96392272Y-153206481D01*
X96467119Y-153221369D01*
X96541966Y-153206481D01*
X96541971Y-153206481D01*
X96763656Y-153162385D01*
X97015048Y-152994410D01*
X97057450Y-152930951D01*
X98634062Y-151354340D01*
X99975584Y-151354340D01*
X99141077Y-152799748D01*
X99141077Y-152799748D01*
G37*
X99141077Y-152799748D02*
X99059876Y-153038960D01*
X99076398Y-153291038D01*
X99188128Y-153517605D01*
X99378057Y-153684168D01*
X100396665Y-154272261D01*
X100053925Y-154615001D01*
X82643687Y-154615001D01*
X82696965Y-154466777D01*
X82669778Y-153896546D01*
X82503864Y-153495995D01*
X82257745Y-153421861D01*
X81429605Y-154250000D01*
X81443748Y-154264143D01*
X81264143Y-154443748D01*
X81250000Y-154429605D01*
X81235858Y-154443748D01*
X81056253Y-154264143D01*
X81070395Y-154250000D01*
X80242255Y-153421861D01*
X80194693Y-153436187D01*
X80149002Y-153206481D01*
X80432637Y-153206481D01*
X80421861Y-153242255D01*
X81250000Y-154070395D01*
X82078139Y-153242255D01*
X82067363Y-153206481D01*
X96392272Y-153206481D01*
X96467119Y-153221369D01*
X96541966Y-153206481D01*
X96541971Y-153206481D01*
X96763656Y-153162385D01*
X97015048Y-152994410D01*
X97057450Y-152930951D01*
X98634062Y-151354340D01*
X99975584Y-151354340D01*
X99141077Y-152799748D01*
G36*
X72515528Y-97774669D02*
X72452072Y-97817069D01*
X72284096Y-98068461D01*
X72240000Y-98290146D01*
X72240000Y-98290151D01*
X72225112Y-98364998D01*
X72240000Y-98439845D01*
X72240000Y-98685197D01*
X69975528Y-100949671D01*
X69912072Y-100992071D01*
X69869672Y-101055527D01*
X69869671Y-101055528D01*
X69744097Y-101243463D01*
X69685112Y-101540000D01*
X69700001Y-101614852D01*
X69700000Y-118802700D01*
X69668663Y-118815680D01*
X69275680Y-119208663D01*
X69190000Y-119415513D01*
X69104320Y-119208663D01*
X68711337Y-118815680D01*
X68197881Y-118603000D01*
X67642119Y-118603000D01*
X67128663Y-118815680D01*
X66735680Y-119208663D01*
X66523000Y-119722119D01*
X66523000Y-120277881D01*
X66735680Y-120791337D01*
X67128663Y-121184320D01*
X67160000Y-121197300D01*
X67160001Y-130413413D01*
X60972052Y-124225465D01*
X60929650Y-124162006D01*
X60678258Y-123994031D01*
X60456573Y-123949935D01*
X60456568Y-123949935D01*
X60384149Y-123935530D01*
X60494413Y-123727110D01*
X60563471Y-123202559D01*
X60381699Y-122983687D01*
X59142462Y-123315740D01*
X59090863Y-123264141D01*
X58911255Y-123443749D01*
X59142460Y-123674954D01*
X59216141Y-123949935D01*
X58953181Y-123949935D01*
X58831374Y-123495348D01*
X58882973Y-123443749D01*
X58703365Y-123264141D01*
X58472160Y-123495346D01*
X57478269Y-123761658D01*
X57446054Y-123949935D01*
X53784845Y-123949935D01*
X53709998Y-123935047D01*
X53635151Y-123949935D01*
X53635147Y-123949935D01*
X53413462Y-123994031D01*
X53162070Y-124162006D01*
X53119670Y-124225462D01*
X52515528Y-124829605D01*
X52452072Y-124872005D01*
X52409672Y-124935461D01*
X52409671Y-124935462D01*
X52284097Y-125123397D01*
X52225112Y-125419934D01*
X52240001Y-125494786D01*
X52240000Y-126761570D01*
X52187138Y-126783466D01*
X51783466Y-127187138D01*
X51761570Y-127240000D01*
X48314802Y-127240000D01*
X44384020Y-123309218D01*
X44388898Y-123297441D01*
X57230757Y-123297441D01*
X57412529Y-123516313D01*
X58741571Y-123160197D01*
X58385456Y-121831155D01*
X58105021Y-121783172D01*
X57603985Y-122197949D01*
X57299815Y-122772890D01*
X57230757Y-123297441D01*
X44388898Y-123297441D01*
X44397000Y-123277881D01*
X44397000Y-122722119D01*
X44184320Y-122208663D01*
X43885191Y-121909534D01*
X44034538Y-121879827D01*
X44181067Y-121781920D01*
X44222119Y-121798924D01*
X44777881Y-121798924D01*
X44858779Y-121765415D01*
X58630801Y-121765415D01*
X58986917Y-123094457D01*
X60315959Y-122738342D01*
X60363942Y-122457907D01*
X59949165Y-121956871D01*
X59374224Y-121652701D01*
X58849673Y-121583643D01*
X58630801Y-121765415D01*
X44858779Y-121765415D01*
X45291337Y-121586244D01*
X45684320Y-121193261D01*
X45697300Y-121161924D01*
X49376115Y-121161924D01*
X49450962Y-121176812D01*
X49525809Y-121161924D01*
X49525814Y-121161924D01*
X49747499Y-121117828D01*
X49998891Y-120949853D01*
X50041293Y-120886394D01*
X50611511Y-120316177D01*
X50777664Y-120385000D01*
X51428108Y-120385000D01*
X52029039Y-120136086D01*
X52488972Y-119676153D01*
X52737886Y-119075222D01*
X52737886Y-118424778D01*
X52488972Y-117823847D01*
X52029039Y-117363914D01*
X51428108Y-117115000D01*
X50777664Y-117115000D01*
X50176733Y-117363914D01*
X49716800Y-117823847D01*
X49467886Y-118424778D01*
X49467886Y-119075222D01*
X49536709Y-119241375D01*
X49136161Y-119641924D01*
X45697300Y-119641924D01*
X45684320Y-119610587D01*
X45291337Y-119217604D01*
X44777881Y-119004924D01*
X44222119Y-119004924D01*
X43708663Y-119217604D01*
X43315680Y-119610587D01*
X43103000Y-120124043D01*
X43103000Y-120413762D01*
X42930778Y-120448019D01*
X42679386Y-120615994D01*
X42636986Y-120679450D01*
X41428529Y-121887908D01*
X41365070Y-121930310D01*
X41197095Y-122181703D01*
X41152999Y-122403388D01*
X41152999Y-122403392D01*
X41138111Y-122478239D01*
X41152999Y-122553086D01*
X41153000Y-129338147D01*
X41138111Y-129412999D01*
X41197096Y-129709536D01*
X41262425Y-129807307D01*
X41365071Y-129960928D01*
X41428527Y-130003328D01*
X48740000Y-137314802D01*
X48740001Y-141940671D01*
X36260000Y-154420673D01*
X36260000Y-122814801D01*
X43064803Y-116010000D01*
X46175153Y-116010000D01*
X46250000Y-116024888D01*
X46324847Y-116010000D01*
X46324852Y-116010000D01*
X46546537Y-115965904D01*
X46797929Y-115797929D01*
X46840331Y-115734470D01*
X68564803Y-94010000D01*
X76280196Y-94010000D01*
X72515528Y-97774669D01*
X72515528Y-97774669D01*
G37*
X72515528Y-97774669D02*
X72452072Y-97817069D01*
X72284096Y-98068461D01*
X72240000Y-98290146D01*
X72240000Y-98290151D01*
X72225112Y-98364998D01*
X72240000Y-98439845D01*
X72240000Y-98685197D01*
X69975528Y-100949671D01*
X69912072Y-100992071D01*
X69869672Y-101055527D01*
X69869671Y-101055528D01*
X69744097Y-101243463D01*
X69685112Y-101540000D01*
X69700001Y-101614852D01*
X69700000Y-118802700D01*
X69668663Y-118815680D01*
X69275680Y-119208663D01*
X69190000Y-119415513D01*
X69104320Y-119208663D01*
X68711337Y-118815680D01*
X68197881Y-118603000D01*
X67642119Y-118603000D01*
X67128663Y-118815680D01*
X66735680Y-119208663D01*
X66523000Y-119722119D01*
X66523000Y-120277881D01*
X66735680Y-120791337D01*
X67128663Y-121184320D01*
X67160000Y-121197300D01*
X67160001Y-130413413D01*
X60972052Y-124225465D01*
X60929650Y-124162006D01*
X60678258Y-123994031D01*
X60456573Y-123949935D01*
X60456568Y-123949935D01*
X60384149Y-123935530D01*
X60494413Y-123727110D01*
X60563471Y-123202559D01*
X60381699Y-122983687D01*
X59142462Y-123315740D01*
X59090863Y-123264141D01*
X58911255Y-123443749D01*
X59142460Y-123674954D01*
X59216141Y-123949935D01*
X58953181Y-123949935D01*
X58831374Y-123495348D01*
X58882973Y-123443749D01*
X58703365Y-123264141D01*
X58472160Y-123495346D01*
X57478269Y-123761658D01*
X57446054Y-123949935D01*
X53784845Y-123949935D01*
X53709998Y-123935047D01*
X53635151Y-123949935D01*
X53635147Y-123949935D01*
X53413462Y-123994031D01*
X53162070Y-124162006D01*
X53119670Y-124225462D01*
X52515528Y-124829605D01*
X52452072Y-124872005D01*
X52409672Y-124935461D01*
X52409671Y-124935462D01*
X52284097Y-125123397D01*
X52225112Y-125419934D01*
X52240001Y-125494786D01*
X52240000Y-126761570D01*
X52187138Y-126783466D01*
X51783466Y-127187138D01*
X51761570Y-127240000D01*
X48314802Y-127240000D01*
X44384020Y-123309218D01*
X44388898Y-123297441D01*
X57230757Y-123297441D01*
X57412529Y-123516313D01*
X58741571Y-123160197D01*
X58385456Y-121831155D01*
X58105021Y-121783172D01*
X57603985Y-122197949D01*
X57299815Y-122772890D01*
X57230757Y-123297441D01*
X44388898Y-123297441D01*
X44397000Y-123277881D01*
X44397000Y-122722119D01*
X44184320Y-122208663D01*
X43885191Y-121909534D01*
X44034538Y-121879827D01*
X44181067Y-121781920D01*
X44222119Y-121798924D01*
X44777881Y-121798924D01*
X44858779Y-121765415D01*
X58630801Y-121765415D01*
X58986917Y-123094457D01*
X60315959Y-122738342D01*
X60363942Y-122457907D01*
X59949165Y-121956871D01*
X59374224Y-121652701D01*
X58849673Y-121583643D01*
X58630801Y-121765415D01*
X44858779Y-121765415D01*
X45291337Y-121586244D01*
X45684320Y-121193261D01*
X45697300Y-121161924D01*
X49376115Y-121161924D01*
X49450962Y-121176812D01*
X49525809Y-121161924D01*
X49525814Y-121161924D01*
X49747499Y-121117828D01*
X49998891Y-120949853D01*
X50041293Y-120886394D01*
X50611511Y-120316177D01*
X50777664Y-120385000D01*
X51428108Y-120385000D01*
X52029039Y-120136086D01*
X52488972Y-119676153D01*
X52737886Y-119075222D01*
X52737886Y-118424778D01*
X52488972Y-117823847D01*
X52029039Y-117363914D01*
X51428108Y-117115000D01*
X50777664Y-117115000D01*
X50176733Y-117363914D01*
X49716800Y-117823847D01*
X49467886Y-118424778D01*
X49467886Y-119075222D01*
X49536709Y-119241375D01*
X49136161Y-119641924D01*
X45697300Y-119641924D01*
X45684320Y-119610587D01*
X45291337Y-119217604D01*
X44777881Y-119004924D01*
X44222119Y-119004924D01*
X43708663Y-119217604D01*
X43315680Y-119610587D01*
X43103000Y-120124043D01*
X43103000Y-120413762D01*
X42930778Y-120448019D01*
X42679386Y-120615994D01*
X42636986Y-120679450D01*
X41428529Y-121887908D01*
X41365070Y-121930310D01*
X41197095Y-122181703D01*
X41152999Y-122403388D01*
X41152999Y-122403392D01*
X41138111Y-122478239D01*
X41152999Y-122553086D01*
X41153000Y-129338147D01*
X41138111Y-129412999D01*
X41197096Y-129709536D01*
X41262425Y-129807307D01*
X41365071Y-129960928D01*
X41428527Y-130003328D01*
X48740000Y-137314802D01*
X48740001Y-141940671D01*
X36260000Y-154420673D01*
X36260000Y-122814801D01*
X43064803Y-116010000D01*
X46175153Y-116010000D01*
X46250000Y-116024888D01*
X46324847Y-116010000D01*
X46324852Y-116010000D01*
X46546537Y-115965904D01*
X46797929Y-115797929D01*
X46840331Y-115734470D01*
X68564803Y-94010000D01*
X76280196Y-94010000D01*
X72515528Y-97774669D01*
G04 #@! TD*
M02*
