G04 #@! TF.GenerationSoftware,KiCad,Pcbnew,5.0.2-bee76a0~70~ubuntu18.04.1*
G04 #@! TF.CreationDate,2019-02-23T22:01:51+01:00*
G04 #@! TF.ProjectId,led-spindel,6c65642d-7370-4696-9e64-656c2e6b6963,rev?*
G04 #@! TF.SameCoordinates,Original*
G04 #@! TF.FileFunction,Soldermask,Bot*
G04 #@! TF.FilePolarity,Negative*
%FSLAX46Y46*%
G04 Gerber Fmt 4.6, Leading zero omitted, Abs format (unit mm)*
G04 Created by KiCad (PCBNEW 5.0.2-bee76a0~70~ubuntu18.04.1) date Sa 23 Feb 2019 22:01:51 CET*
%MOMM*%
%LPD*%
G01*
G04 APERTURE LIST*
%ADD10C,0.100000*%
G04 APERTURE END LIST*
D10*
G36*
X84036821Y-183021313D02*
X84036824Y-183021314D01*
X84036825Y-183021314D01*
X84197239Y-183069975D01*
X84197241Y-183069976D01*
X84197244Y-183069977D01*
X84345078Y-183148995D01*
X84474659Y-183255341D01*
X84581005Y-183384922D01*
X84660023Y-183532756D01*
X84708687Y-183693179D01*
X84725117Y-183860000D01*
X84708687Y-184026821D01*
X84660023Y-184187244D01*
X84581005Y-184335078D01*
X84474659Y-184464659D01*
X84345078Y-184571005D01*
X84197244Y-184650023D01*
X84197241Y-184650024D01*
X84197239Y-184650025D01*
X84036825Y-184698686D01*
X84036824Y-184698686D01*
X84036821Y-184698687D01*
X83911804Y-184711000D01*
X83828196Y-184711000D01*
X83703179Y-184698687D01*
X83703176Y-184698686D01*
X83703175Y-184698686D01*
X83542761Y-184650025D01*
X83542759Y-184650024D01*
X83542756Y-184650023D01*
X83394922Y-184571005D01*
X83265341Y-184464659D01*
X83158995Y-184335078D01*
X83079977Y-184187244D01*
X83031313Y-184026821D01*
X83014883Y-183860000D01*
X83031313Y-183693179D01*
X83079977Y-183532756D01*
X83158995Y-183384922D01*
X83265341Y-183255341D01*
X83394922Y-183148995D01*
X83542756Y-183069977D01*
X83542759Y-183069976D01*
X83542761Y-183069975D01*
X83703175Y-183021314D01*
X83703176Y-183021314D01*
X83703179Y-183021313D01*
X83828196Y-183009000D01*
X83911804Y-183009000D01*
X84036821Y-183021313D01*
X84036821Y-183021313D01*
G37*
G36*
X76416821Y-183021313D02*
X76416824Y-183021314D01*
X76416825Y-183021314D01*
X76577239Y-183069975D01*
X76577241Y-183069976D01*
X76577244Y-183069977D01*
X76725078Y-183148995D01*
X76854659Y-183255341D01*
X76961005Y-183384922D01*
X77040023Y-183532756D01*
X77088687Y-183693179D01*
X77105117Y-183860000D01*
X77088687Y-184026821D01*
X77040023Y-184187244D01*
X76961005Y-184335078D01*
X76854659Y-184464659D01*
X76725078Y-184571005D01*
X76577244Y-184650023D01*
X76577241Y-184650024D01*
X76577239Y-184650025D01*
X76416825Y-184698686D01*
X76416824Y-184698686D01*
X76416821Y-184698687D01*
X76291804Y-184711000D01*
X76208196Y-184711000D01*
X76083179Y-184698687D01*
X76083176Y-184698686D01*
X76083175Y-184698686D01*
X75922761Y-184650025D01*
X75922759Y-184650024D01*
X75922756Y-184650023D01*
X75774922Y-184571005D01*
X75645341Y-184464659D01*
X75538995Y-184335078D01*
X75459977Y-184187244D01*
X75411313Y-184026821D01*
X75394883Y-183860000D01*
X75411313Y-183693179D01*
X75459977Y-183532756D01*
X75538995Y-183384922D01*
X75645341Y-183255341D01*
X75774922Y-183148995D01*
X75922756Y-183069977D01*
X75922759Y-183069976D01*
X75922761Y-183069975D01*
X76083175Y-183021314D01*
X76083176Y-183021314D01*
X76083179Y-183021313D01*
X76208196Y-183009000D01*
X76291804Y-183009000D01*
X76416821Y-183021313D01*
X76416821Y-183021313D01*
G37*
G36*
X84036821Y-180481313D02*
X84036824Y-180481314D01*
X84036825Y-180481314D01*
X84197239Y-180529975D01*
X84197241Y-180529976D01*
X84197244Y-180529977D01*
X84345078Y-180608995D01*
X84474659Y-180715341D01*
X84581005Y-180844922D01*
X84660023Y-180992756D01*
X84708687Y-181153179D01*
X84725117Y-181320000D01*
X84708687Y-181486821D01*
X84660023Y-181647244D01*
X84581005Y-181795078D01*
X84474659Y-181924659D01*
X84345078Y-182031005D01*
X84197244Y-182110023D01*
X84197241Y-182110024D01*
X84197239Y-182110025D01*
X84036825Y-182158686D01*
X84036824Y-182158686D01*
X84036821Y-182158687D01*
X83911804Y-182171000D01*
X83828196Y-182171000D01*
X83703179Y-182158687D01*
X83703176Y-182158686D01*
X83703175Y-182158686D01*
X83542761Y-182110025D01*
X83542759Y-182110024D01*
X83542756Y-182110023D01*
X83394922Y-182031005D01*
X83265341Y-181924659D01*
X83158995Y-181795078D01*
X83079977Y-181647244D01*
X83031313Y-181486821D01*
X83014883Y-181320000D01*
X83031313Y-181153179D01*
X83079977Y-180992756D01*
X83158995Y-180844922D01*
X83265341Y-180715341D01*
X83394922Y-180608995D01*
X83542756Y-180529977D01*
X83542759Y-180529976D01*
X83542761Y-180529975D01*
X83703175Y-180481314D01*
X83703176Y-180481314D01*
X83703179Y-180481313D01*
X83828196Y-180469000D01*
X83911804Y-180469000D01*
X84036821Y-180481313D01*
X84036821Y-180481313D01*
G37*
G36*
X76416821Y-180481313D02*
X76416824Y-180481314D01*
X76416825Y-180481314D01*
X76577239Y-180529975D01*
X76577241Y-180529976D01*
X76577244Y-180529977D01*
X76725078Y-180608995D01*
X76854659Y-180715341D01*
X76961005Y-180844922D01*
X77040023Y-180992756D01*
X77088687Y-181153179D01*
X77105117Y-181320000D01*
X77088687Y-181486821D01*
X77040023Y-181647244D01*
X76961005Y-181795078D01*
X76854659Y-181924659D01*
X76725078Y-182031005D01*
X76577244Y-182110023D01*
X76577241Y-182110024D01*
X76577239Y-182110025D01*
X76416825Y-182158686D01*
X76416824Y-182158686D01*
X76416821Y-182158687D01*
X76291804Y-182171000D01*
X76208196Y-182171000D01*
X76083179Y-182158687D01*
X76083176Y-182158686D01*
X76083175Y-182158686D01*
X75922761Y-182110025D01*
X75922759Y-182110024D01*
X75922756Y-182110023D01*
X75774922Y-182031005D01*
X75645341Y-181924659D01*
X75538995Y-181795078D01*
X75459977Y-181647244D01*
X75411313Y-181486821D01*
X75394883Y-181320000D01*
X75411313Y-181153179D01*
X75459977Y-180992756D01*
X75538995Y-180844922D01*
X75645341Y-180715341D01*
X75774922Y-180608995D01*
X75922756Y-180529977D01*
X75922759Y-180529976D01*
X75922761Y-180529975D01*
X76083175Y-180481314D01*
X76083176Y-180481314D01*
X76083179Y-180481313D01*
X76208196Y-180469000D01*
X76291804Y-180469000D01*
X76416821Y-180481313D01*
X76416821Y-180481313D01*
G37*
G36*
X84036821Y-177941313D02*
X84036824Y-177941314D01*
X84036825Y-177941314D01*
X84197239Y-177989975D01*
X84197241Y-177989976D01*
X84197244Y-177989977D01*
X84345078Y-178068995D01*
X84474659Y-178175341D01*
X84581005Y-178304922D01*
X84660023Y-178452756D01*
X84708687Y-178613179D01*
X84725117Y-178780000D01*
X84708687Y-178946821D01*
X84660023Y-179107244D01*
X84581005Y-179255078D01*
X84474659Y-179384659D01*
X84345078Y-179491005D01*
X84197244Y-179570023D01*
X84197241Y-179570024D01*
X84197239Y-179570025D01*
X84036825Y-179618686D01*
X84036824Y-179618686D01*
X84036821Y-179618687D01*
X83911804Y-179631000D01*
X83828196Y-179631000D01*
X83703179Y-179618687D01*
X83703176Y-179618686D01*
X83703175Y-179618686D01*
X83542761Y-179570025D01*
X83542759Y-179570024D01*
X83542756Y-179570023D01*
X83394922Y-179491005D01*
X83265341Y-179384659D01*
X83158995Y-179255078D01*
X83079977Y-179107244D01*
X83031313Y-178946821D01*
X83014883Y-178780000D01*
X83031313Y-178613179D01*
X83079977Y-178452756D01*
X83158995Y-178304922D01*
X83265341Y-178175341D01*
X83394922Y-178068995D01*
X83542756Y-177989977D01*
X83542759Y-177989976D01*
X83542761Y-177989975D01*
X83703175Y-177941314D01*
X83703176Y-177941314D01*
X83703179Y-177941313D01*
X83828196Y-177929000D01*
X83911804Y-177929000D01*
X84036821Y-177941313D01*
X84036821Y-177941313D01*
G37*
G36*
X76416821Y-177941313D02*
X76416824Y-177941314D01*
X76416825Y-177941314D01*
X76577239Y-177989975D01*
X76577241Y-177989976D01*
X76577244Y-177989977D01*
X76725078Y-178068995D01*
X76854659Y-178175341D01*
X76961005Y-178304922D01*
X77040023Y-178452756D01*
X77088687Y-178613179D01*
X77105117Y-178780000D01*
X77088687Y-178946821D01*
X77040023Y-179107244D01*
X76961005Y-179255078D01*
X76854659Y-179384659D01*
X76725078Y-179491005D01*
X76577244Y-179570023D01*
X76577241Y-179570024D01*
X76577239Y-179570025D01*
X76416825Y-179618686D01*
X76416824Y-179618686D01*
X76416821Y-179618687D01*
X76291804Y-179631000D01*
X76208196Y-179631000D01*
X76083179Y-179618687D01*
X76083176Y-179618686D01*
X76083175Y-179618686D01*
X75922761Y-179570025D01*
X75922759Y-179570024D01*
X75922756Y-179570023D01*
X75774922Y-179491005D01*
X75645341Y-179384659D01*
X75538995Y-179255078D01*
X75459977Y-179107244D01*
X75411313Y-178946821D01*
X75394883Y-178780000D01*
X75411313Y-178613179D01*
X75459977Y-178452756D01*
X75538995Y-178304922D01*
X75645341Y-178175341D01*
X75774922Y-178068995D01*
X75922756Y-177989977D01*
X75922759Y-177989976D01*
X75922761Y-177989975D01*
X76083175Y-177941314D01*
X76083176Y-177941314D01*
X76083179Y-177941313D01*
X76208196Y-177929000D01*
X76291804Y-177929000D01*
X76416821Y-177941313D01*
X76416821Y-177941313D01*
G37*
G36*
X84036821Y-175401313D02*
X84036824Y-175401314D01*
X84036825Y-175401314D01*
X84197239Y-175449975D01*
X84197241Y-175449976D01*
X84197244Y-175449977D01*
X84345078Y-175528995D01*
X84474659Y-175635341D01*
X84581005Y-175764922D01*
X84660023Y-175912756D01*
X84708687Y-176073179D01*
X84725117Y-176240000D01*
X84708687Y-176406821D01*
X84660023Y-176567244D01*
X84581005Y-176715078D01*
X84474659Y-176844659D01*
X84345078Y-176951005D01*
X84197244Y-177030023D01*
X84197241Y-177030024D01*
X84197239Y-177030025D01*
X84036825Y-177078686D01*
X84036824Y-177078686D01*
X84036821Y-177078687D01*
X83911804Y-177091000D01*
X83828196Y-177091000D01*
X83703179Y-177078687D01*
X83703176Y-177078686D01*
X83703175Y-177078686D01*
X83542761Y-177030025D01*
X83542759Y-177030024D01*
X83542756Y-177030023D01*
X83394922Y-176951005D01*
X83265341Y-176844659D01*
X83158995Y-176715078D01*
X83079977Y-176567244D01*
X83031313Y-176406821D01*
X83014883Y-176240000D01*
X83031313Y-176073179D01*
X83079977Y-175912756D01*
X83158995Y-175764922D01*
X83265341Y-175635341D01*
X83394922Y-175528995D01*
X83542756Y-175449977D01*
X83542759Y-175449976D01*
X83542761Y-175449975D01*
X83703175Y-175401314D01*
X83703176Y-175401314D01*
X83703179Y-175401313D01*
X83828196Y-175389000D01*
X83911804Y-175389000D01*
X84036821Y-175401313D01*
X84036821Y-175401313D01*
G37*
G36*
X76416821Y-175401313D02*
X76416824Y-175401314D01*
X76416825Y-175401314D01*
X76577239Y-175449975D01*
X76577241Y-175449976D01*
X76577244Y-175449977D01*
X76725078Y-175528995D01*
X76854659Y-175635341D01*
X76961005Y-175764922D01*
X77040023Y-175912756D01*
X77088687Y-176073179D01*
X77105117Y-176240000D01*
X77088687Y-176406821D01*
X77040023Y-176567244D01*
X76961005Y-176715078D01*
X76854659Y-176844659D01*
X76725078Y-176951005D01*
X76577244Y-177030023D01*
X76577241Y-177030024D01*
X76577239Y-177030025D01*
X76416825Y-177078686D01*
X76416824Y-177078686D01*
X76416821Y-177078687D01*
X76291804Y-177091000D01*
X76208196Y-177091000D01*
X76083179Y-177078687D01*
X76083176Y-177078686D01*
X76083175Y-177078686D01*
X75922761Y-177030025D01*
X75922759Y-177030024D01*
X75922756Y-177030023D01*
X75774922Y-176951005D01*
X75645341Y-176844659D01*
X75538995Y-176715078D01*
X75459977Y-176567244D01*
X75411313Y-176406821D01*
X75394883Y-176240000D01*
X75411313Y-176073179D01*
X75459977Y-175912756D01*
X75538995Y-175764922D01*
X75645341Y-175635341D01*
X75774922Y-175528995D01*
X75922756Y-175449977D01*
X75922759Y-175449976D01*
X75922761Y-175449975D01*
X76083175Y-175401314D01*
X76083176Y-175401314D01*
X76083179Y-175401313D01*
X76208196Y-175389000D01*
X76291804Y-175389000D01*
X76416821Y-175401313D01*
X76416821Y-175401313D01*
G37*
G36*
X84036821Y-172861313D02*
X84036824Y-172861314D01*
X84036825Y-172861314D01*
X84197239Y-172909975D01*
X84197241Y-172909976D01*
X84197244Y-172909977D01*
X84345078Y-172988995D01*
X84474659Y-173095341D01*
X84581005Y-173224922D01*
X84660023Y-173372756D01*
X84708687Y-173533179D01*
X84725117Y-173700000D01*
X84708687Y-173866821D01*
X84660023Y-174027244D01*
X84581005Y-174175078D01*
X84474659Y-174304659D01*
X84345078Y-174411005D01*
X84197244Y-174490023D01*
X84197241Y-174490024D01*
X84197239Y-174490025D01*
X84036825Y-174538686D01*
X84036824Y-174538686D01*
X84036821Y-174538687D01*
X83911804Y-174551000D01*
X83828196Y-174551000D01*
X83703179Y-174538687D01*
X83703176Y-174538686D01*
X83703175Y-174538686D01*
X83542761Y-174490025D01*
X83542759Y-174490024D01*
X83542756Y-174490023D01*
X83394922Y-174411005D01*
X83265341Y-174304659D01*
X83158995Y-174175078D01*
X83079977Y-174027244D01*
X83031313Y-173866821D01*
X83014883Y-173700000D01*
X83031313Y-173533179D01*
X83079977Y-173372756D01*
X83158995Y-173224922D01*
X83265341Y-173095341D01*
X83394922Y-172988995D01*
X83542756Y-172909977D01*
X83542759Y-172909976D01*
X83542761Y-172909975D01*
X83703175Y-172861314D01*
X83703176Y-172861314D01*
X83703179Y-172861313D01*
X83828196Y-172849000D01*
X83911804Y-172849000D01*
X84036821Y-172861313D01*
X84036821Y-172861313D01*
G37*
G36*
X76416821Y-172861313D02*
X76416824Y-172861314D01*
X76416825Y-172861314D01*
X76577239Y-172909975D01*
X76577241Y-172909976D01*
X76577244Y-172909977D01*
X76725078Y-172988995D01*
X76854659Y-173095341D01*
X76961005Y-173224922D01*
X77040023Y-173372756D01*
X77088687Y-173533179D01*
X77105117Y-173700000D01*
X77088687Y-173866821D01*
X77040023Y-174027244D01*
X76961005Y-174175078D01*
X76854659Y-174304659D01*
X76725078Y-174411005D01*
X76577244Y-174490023D01*
X76577241Y-174490024D01*
X76577239Y-174490025D01*
X76416825Y-174538686D01*
X76416824Y-174538686D01*
X76416821Y-174538687D01*
X76291804Y-174551000D01*
X76208196Y-174551000D01*
X76083179Y-174538687D01*
X76083176Y-174538686D01*
X76083175Y-174538686D01*
X75922761Y-174490025D01*
X75922759Y-174490024D01*
X75922756Y-174490023D01*
X75774922Y-174411005D01*
X75645341Y-174304659D01*
X75538995Y-174175078D01*
X75459977Y-174027244D01*
X75411313Y-173866821D01*
X75394883Y-173700000D01*
X75411313Y-173533179D01*
X75459977Y-173372756D01*
X75538995Y-173224922D01*
X75645341Y-173095341D01*
X75774922Y-172988995D01*
X75922756Y-172909977D01*
X75922759Y-172909976D01*
X75922761Y-172909975D01*
X76083175Y-172861314D01*
X76083176Y-172861314D01*
X76083179Y-172861313D01*
X76208196Y-172849000D01*
X76291804Y-172849000D01*
X76416821Y-172861313D01*
X76416821Y-172861313D01*
G37*
G36*
X84036821Y-170321313D02*
X84036824Y-170321314D01*
X84036825Y-170321314D01*
X84197239Y-170369975D01*
X84197241Y-170369976D01*
X84197244Y-170369977D01*
X84345078Y-170448995D01*
X84474659Y-170555341D01*
X84581005Y-170684922D01*
X84660023Y-170832756D01*
X84708687Y-170993179D01*
X84725117Y-171160000D01*
X84708687Y-171326821D01*
X84660023Y-171487244D01*
X84581005Y-171635078D01*
X84474659Y-171764659D01*
X84345078Y-171871005D01*
X84197244Y-171950023D01*
X84197241Y-171950024D01*
X84197239Y-171950025D01*
X84036825Y-171998686D01*
X84036824Y-171998686D01*
X84036821Y-171998687D01*
X83911804Y-172011000D01*
X83828196Y-172011000D01*
X83703179Y-171998687D01*
X83703176Y-171998686D01*
X83703175Y-171998686D01*
X83542761Y-171950025D01*
X83542759Y-171950024D01*
X83542756Y-171950023D01*
X83394922Y-171871005D01*
X83265341Y-171764659D01*
X83158995Y-171635078D01*
X83079977Y-171487244D01*
X83031313Y-171326821D01*
X83014883Y-171160000D01*
X83031313Y-170993179D01*
X83079977Y-170832756D01*
X83158995Y-170684922D01*
X83265341Y-170555341D01*
X83394922Y-170448995D01*
X83542756Y-170369977D01*
X83542759Y-170369976D01*
X83542761Y-170369975D01*
X83703175Y-170321314D01*
X83703176Y-170321314D01*
X83703179Y-170321313D01*
X83828196Y-170309000D01*
X83911804Y-170309000D01*
X84036821Y-170321313D01*
X84036821Y-170321313D01*
G37*
G36*
X76416821Y-170321313D02*
X76416824Y-170321314D01*
X76416825Y-170321314D01*
X76577239Y-170369975D01*
X76577241Y-170369976D01*
X76577244Y-170369977D01*
X76725078Y-170448995D01*
X76854659Y-170555341D01*
X76961005Y-170684922D01*
X77040023Y-170832756D01*
X77088687Y-170993179D01*
X77105117Y-171160000D01*
X77088687Y-171326821D01*
X77040023Y-171487244D01*
X76961005Y-171635078D01*
X76854659Y-171764659D01*
X76725078Y-171871005D01*
X76577244Y-171950023D01*
X76577241Y-171950024D01*
X76577239Y-171950025D01*
X76416825Y-171998686D01*
X76416824Y-171998686D01*
X76416821Y-171998687D01*
X76291804Y-172011000D01*
X76208196Y-172011000D01*
X76083179Y-171998687D01*
X76083176Y-171998686D01*
X76083175Y-171998686D01*
X75922761Y-171950025D01*
X75922759Y-171950024D01*
X75922756Y-171950023D01*
X75774922Y-171871005D01*
X75645341Y-171764659D01*
X75538995Y-171635078D01*
X75459977Y-171487244D01*
X75411313Y-171326821D01*
X75394883Y-171160000D01*
X75411313Y-170993179D01*
X75459977Y-170832756D01*
X75538995Y-170684922D01*
X75645341Y-170555341D01*
X75774922Y-170448995D01*
X75922756Y-170369977D01*
X75922759Y-170369976D01*
X75922761Y-170369975D01*
X76083175Y-170321314D01*
X76083176Y-170321314D01*
X76083179Y-170321313D01*
X76208196Y-170309000D01*
X76291804Y-170309000D01*
X76416821Y-170321313D01*
X76416821Y-170321313D01*
G37*
G36*
X76416821Y-167781313D02*
X76416824Y-167781314D01*
X76416825Y-167781314D01*
X76577239Y-167829975D01*
X76577241Y-167829976D01*
X76577244Y-167829977D01*
X76725078Y-167908995D01*
X76854659Y-168015341D01*
X76961005Y-168144922D01*
X77040023Y-168292756D01*
X77088687Y-168453179D01*
X77105117Y-168620000D01*
X77088687Y-168786821D01*
X77040023Y-168947244D01*
X76961005Y-169095078D01*
X76854659Y-169224659D01*
X76725078Y-169331005D01*
X76577244Y-169410023D01*
X76577241Y-169410024D01*
X76577239Y-169410025D01*
X76416825Y-169458686D01*
X76416824Y-169458686D01*
X76416821Y-169458687D01*
X76291804Y-169471000D01*
X76208196Y-169471000D01*
X76083179Y-169458687D01*
X76083176Y-169458686D01*
X76083175Y-169458686D01*
X75922761Y-169410025D01*
X75922759Y-169410024D01*
X75922756Y-169410023D01*
X75774922Y-169331005D01*
X75645341Y-169224659D01*
X75538995Y-169095078D01*
X75459977Y-168947244D01*
X75411313Y-168786821D01*
X75394883Y-168620000D01*
X75411313Y-168453179D01*
X75459977Y-168292756D01*
X75538995Y-168144922D01*
X75645341Y-168015341D01*
X75774922Y-167908995D01*
X75922756Y-167829977D01*
X75922759Y-167829976D01*
X75922761Y-167829975D01*
X76083175Y-167781314D01*
X76083176Y-167781314D01*
X76083179Y-167781313D01*
X76208196Y-167769000D01*
X76291804Y-167769000D01*
X76416821Y-167781313D01*
X76416821Y-167781313D01*
G37*
G36*
X84036821Y-167781313D02*
X84036824Y-167781314D01*
X84036825Y-167781314D01*
X84197239Y-167829975D01*
X84197241Y-167829976D01*
X84197244Y-167829977D01*
X84345078Y-167908995D01*
X84474659Y-168015341D01*
X84581005Y-168144922D01*
X84660023Y-168292756D01*
X84708687Y-168453179D01*
X84725117Y-168620000D01*
X84708687Y-168786821D01*
X84660023Y-168947244D01*
X84581005Y-169095078D01*
X84474659Y-169224659D01*
X84345078Y-169331005D01*
X84197244Y-169410023D01*
X84197241Y-169410024D01*
X84197239Y-169410025D01*
X84036825Y-169458686D01*
X84036824Y-169458686D01*
X84036821Y-169458687D01*
X83911804Y-169471000D01*
X83828196Y-169471000D01*
X83703179Y-169458687D01*
X83703176Y-169458686D01*
X83703175Y-169458686D01*
X83542761Y-169410025D01*
X83542759Y-169410024D01*
X83542756Y-169410023D01*
X83394922Y-169331005D01*
X83265341Y-169224659D01*
X83158995Y-169095078D01*
X83079977Y-168947244D01*
X83031313Y-168786821D01*
X83014883Y-168620000D01*
X83031313Y-168453179D01*
X83079977Y-168292756D01*
X83158995Y-168144922D01*
X83265341Y-168015341D01*
X83394922Y-167908995D01*
X83542756Y-167829977D01*
X83542759Y-167829976D01*
X83542761Y-167829975D01*
X83703175Y-167781314D01*
X83703176Y-167781314D01*
X83703179Y-167781313D01*
X83828196Y-167769000D01*
X83911804Y-167769000D01*
X84036821Y-167781313D01*
X84036821Y-167781313D01*
G37*
G36*
X116203679Y-166239389D02*
X116394948Y-166318615D01*
X116567090Y-166433637D01*
X116713477Y-166580024D01*
X116828499Y-166752166D01*
X116907725Y-166943435D01*
X116948114Y-167146484D01*
X116948114Y-167353516D01*
X116907725Y-167556565D01*
X116828499Y-167747834D01*
X116713477Y-167919976D01*
X116567090Y-168066363D01*
X116394948Y-168181385D01*
X116203679Y-168260611D01*
X116000630Y-168301000D01*
X115793598Y-168301000D01*
X115590549Y-168260611D01*
X115399280Y-168181385D01*
X115227138Y-168066363D01*
X115080751Y-167919976D01*
X114965729Y-167747834D01*
X114886503Y-167556565D01*
X114846114Y-167353516D01*
X114846114Y-167146484D01*
X114886503Y-166943435D01*
X114965729Y-166752166D01*
X115080751Y-166580024D01*
X115227138Y-166433637D01*
X115399280Y-166318615D01*
X115590549Y-166239389D01*
X115793598Y-166199000D01*
X116000630Y-166199000D01*
X116203679Y-166239389D01*
X116203679Y-166239389D01*
G37*
G36*
X76416821Y-165241313D02*
X76416824Y-165241314D01*
X76416825Y-165241314D01*
X76577239Y-165289975D01*
X76577241Y-165289976D01*
X76577244Y-165289977D01*
X76725078Y-165368995D01*
X76854659Y-165475341D01*
X76961005Y-165604922D01*
X77040023Y-165752756D01*
X77088687Y-165913179D01*
X77105117Y-166080000D01*
X77088687Y-166246821D01*
X77088686Y-166246824D01*
X77088686Y-166246825D01*
X77066909Y-166318615D01*
X77040023Y-166407244D01*
X76961005Y-166555078D01*
X76854659Y-166684659D01*
X76725078Y-166791005D01*
X76577244Y-166870023D01*
X76577241Y-166870024D01*
X76577239Y-166870025D01*
X76416825Y-166918686D01*
X76416824Y-166918686D01*
X76416821Y-166918687D01*
X76291804Y-166931000D01*
X76208196Y-166931000D01*
X76083179Y-166918687D01*
X76083176Y-166918686D01*
X76083175Y-166918686D01*
X75922761Y-166870025D01*
X75922759Y-166870024D01*
X75922756Y-166870023D01*
X75774922Y-166791005D01*
X75645341Y-166684659D01*
X75538995Y-166555078D01*
X75459977Y-166407244D01*
X75433092Y-166318615D01*
X75411314Y-166246825D01*
X75411314Y-166246824D01*
X75411313Y-166246821D01*
X75394883Y-166080000D01*
X75411313Y-165913179D01*
X75459977Y-165752756D01*
X75538995Y-165604922D01*
X75645341Y-165475341D01*
X75774922Y-165368995D01*
X75922756Y-165289977D01*
X75922759Y-165289976D01*
X75922761Y-165289975D01*
X76083175Y-165241314D01*
X76083176Y-165241314D01*
X76083179Y-165241313D01*
X76208196Y-165229000D01*
X76291804Y-165229000D01*
X76416821Y-165241313D01*
X76416821Y-165241313D01*
G37*
G36*
X84036821Y-165241313D02*
X84036824Y-165241314D01*
X84036825Y-165241314D01*
X84197239Y-165289975D01*
X84197241Y-165289976D01*
X84197244Y-165289977D01*
X84345078Y-165368995D01*
X84474659Y-165475341D01*
X84581005Y-165604922D01*
X84660023Y-165752756D01*
X84708687Y-165913179D01*
X84725117Y-166080000D01*
X84708687Y-166246821D01*
X84708686Y-166246824D01*
X84708686Y-166246825D01*
X84686909Y-166318615D01*
X84660023Y-166407244D01*
X84581005Y-166555078D01*
X84474659Y-166684659D01*
X84345078Y-166791005D01*
X84197244Y-166870023D01*
X84197241Y-166870024D01*
X84197239Y-166870025D01*
X84036825Y-166918686D01*
X84036824Y-166918686D01*
X84036821Y-166918687D01*
X83911804Y-166931000D01*
X83828196Y-166931000D01*
X83703179Y-166918687D01*
X83703176Y-166918686D01*
X83703175Y-166918686D01*
X83542761Y-166870025D01*
X83542759Y-166870024D01*
X83542756Y-166870023D01*
X83394922Y-166791005D01*
X83265341Y-166684659D01*
X83158995Y-166555078D01*
X83079977Y-166407244D01*
X83053092Y-166318615D01*
X83031314Y-166246825D01*
X83031314Y-166246824D01*
X83031313Y-166246821D01*
X83014883Y-166080000D01*
X83031313Y-165913179D01*
X83079977Y-165752756D01*
X83158995Y-165604922D01*
X83265341Y-165475341D01*
X83394922Y-165368995D01*
X83542756Y-165289977D01*
X83542759Y-165289976D01*
X83542761Y-165289975D01*
X83703175Y-165241314D01*
X83703176Y-165241314D01*
X83703179Y-165241313D01*
X83828196Y-165229000D01*
X83911804Y-165229000D01*
X84036821Y-165241313D01*
X84036821Y-165241313D01*
G37*
G36*
X43332873Y-163740138D02*
X41685693Y-164691138D01*
X40734693Y-163043958D01*
X42381873Y-162092958D01*
X43332873Y-163740138D01*
X43332873Y-163740138D01*
G37*
G36*
X76416821Y-162701313D02*
X76416824Y-162701314D01*
X76416825Y-162701314D01*
X76577239Y-162749975D01*
X76577241Y-162749976D01*
X76577244Y-162749977D01*
X76725078Y-162828995D01*
X76854659Y-162935341D01*
X76961005Y-163064922D01*
X77040023Y-163212756D01*
X77040024Y-163212759D01*
X77040025Y-163212761D01*
X77088686Y-163373175D01*
X77088687Y-163373179D01*
X77105117Y-163540000D01*
X77088687Y-163706821D01*
X77088686Y-163706824D01*
X77088686Y-163706825D01*
X77072371Y-163760610D01*
X77040023Y-163867244D01*
X76961005Y-164015078D01*
X76854659Y-164144659D01*
X76725078Y-164251005D01*
X76577244Y-164330023D01*
X76577241Y-164330024D01*
X76577239Y-164330025D01*
X76416825Y-164378686D01*
X76416824Y-164378686D01*
X76416821Y-164378687D01*
X76291804Y-164391000D01*
X76208196Y-164391000D01*
X76083179Y-164378687D01*
X76083176Y-164378686D01*
X76083175Y-164378686D01*
X75922761Y-164330025D01*
X75922759Y-164330024D01*
X75922756Y-164330023D01*
X75774922Y-164251005D01*
X75645341Y-164144659D01*
X75538995Y-164015078D01*
X75459977Y-163867244D01*
X75427630Y-163760610D01*
X75411314Y-163706825D01*
X75411314Y-163706824D01*
X75411313Y-163706821D01*
X75394883Y-163540000D01*
X75411313Y-163373179D01*
X75411314Y-163373175D01*
X75459975Y-163212761D01*
X75459976Y-163212759D01*
X75459977Y-163212756D01*
X75538995Y-163064922D01*
X75645341Y-162935341D01*
X75774922Y-162828995D01*
X75922756Y-162749977D01*
X75922759Y-162749976D01*
X75922761Y-162749975D01*
X76083175Y-162701314D01*
X76083176Y-162701314D01*
X76083179Y-162701313D01*
X76208196Y-162689000D01*
X76291804Y-162689000D01*
X76416821Y-162701313D01*
X76416821Y-162701313D01*
G37*
G36*
X84036821Y-162701313D02*
X84036824Y-162701314D01*
X84036825Y-162701314D01*
X84197239Y-162749975D01*
X84197241Y-162749976D01*
X84197244Y-162749977D01*
X84345078Y-162828995D01*
X84474659Y-162935341D01*
X84581005Y-163064922D01*
X84660023Y-163212756D01*
X84660024Y-163212759D01*
X84660025Y-163212761D01*
X84708686Y-163373175D01*
X84708687Y-163373179D01*
X84725117Y-163540000D01*
X84708687Y-163706821D01*
X84708686Y-163706824D01*
X84708686Y-163706825D01*
X84692371Y-163760610D01*
X84660023Y-163867244D01*
X84581005Y-164015078D01*
X84474659Y-164144659D01*
X84345078Y-164251005D01*
X84197244Y-164330023D01*
X84197241Y-164330024D01*
X84197239Y-164330025D01*
X84036825Y-164378686D01*
X84036824Y-164378686D01*
X84036821Y-164378687D01*
X83911804Y-164391000D01*
X83828196Y-164391000D01*
X83703179Y-164378687D01*
X83703176Y-164378686D01*
X83703175Y-164378686D01*
X83542761Y-164330025D01*
X83542759Y-164330024D01*
X83542756Y-164330023D01*
X83394922Y-164251005D01*
X83265341Y-164144659D01*
X83158995Y-164015078D01*
X83079977Y-163867244D01*
X83047630Y-163760610D01*
X83031314Y-163706825D01*
X83031314Y-163706824D01*
X83031313Y-163706821D01*
X83014883Y-163540000D01*
X83031313Y-163373179D01*
X83031314Y-163373175D01*
X83079975Y-163212761D01*
X83079976Y-163212759D01*
X83079977Y-163212756D01*
X83158995Y-163064922D01*
X83265341Y-162935341D01*
X83394922Y-162828995D01*
X83542756Y-162749977D01*
X83542759Y-162749976D01*
X83542761Y-162749975D01*
X83703175Y-162701314D01*
X83703176Y-162701314D01*
X83703179Y-162701313D01*
X83828196Y-162689000D01*
X83911804Y-162689000D01*
X84036821Y-162701313D01*
X84036821Y-162701313D01*
G37*
G36*
X119550798Y-162445955D02*
X118599798Y-164093135D01*
X116952618Y-163142135D01*
X117903618Y-161494955D01*
X119550798Y-162445955D01*
X119550798Y-162445955D01*
G37*
G36*
X108409451Y-161739389D02*
X108600720Y-161818615D01*
X108772862Y-161933637D01*
X108919249Y-162080024D01*
X109034271Y-162252166D01*
X109113497Y-162443435D01*
X109153886Y-162646484D01*
X109153886Y-162853516D01*
X109113497Y-163056565D01*
X109034271Y-163247834D01*
X108919249Y-163419976D01*
X108772862Y-163566363D01*
X108600720Y-163681385D01*
X108409451Y-163760611D01*
X108206402Y-163801000D01*
X107999370Y-163801000D01*
X107796321Y-163760611D01*
X107605052Y-163681385D01*
X107432910Y-163566363D01*
X107286523Y-163419976D01*
X107171501Y-163247834D01*
X107092275Y-163056565D01*
X107051886Y-162853516D01*
X107051886Y-162646484D01*
X107092275Y-162443435D01*
X107171501Y-162252166D01*
X107286523Y-162080024D01*
X107432910Y-161933637D01*
X107605052Y-161818615D01*
X107796321Y-161739389D01*
X107999370Y-161699000D01*
X108206402Y-161699000D01*
X108409451Y-161739389D01*
X108409451Y-161739389D01*
G37*
G36*
X47663000Y-161240138D02*
X46015820Y-162191138D01*
X45064820Y-160543958D01*
X46712000Y-159592958D01*
X47663000Y-161240138D01*
X47663000Y-161240138D01*
G37*
G36*
X41041179Y-160277889D02*
X41214249Y-160349577D01*
X41370013Y-160453655D01*
X41502471Y-160586113D01*
X41606549Y-160741877D01*
X41678237Y-160914947D01*
X41714783Y-161098676D01*
X41714783Y-161286010D01*
X41678237Y-161469739D01*
X41606549Y-161642809D01*
X41502471Y-161798573D01*
X41370013Y-161931031D01*
X41214249Y-162035109D01*
X41041179Y-162106797D01*
X40857450Y-162143343D01*
X40670116Y-162143343D01*
X40486387Y-162106797D01*
X40313317Y-162035109D01*
X40157553Y-161931031D01*
X40025095Y-161798573D01*
X39921017Y-161642809D01*
X39849329Y-161469739D01*
X39812783Y-161286010D01*
X39812783Y-161098676D01*
X39849329Y-160914947D01*
X39921017Y-160741877D01*
X40025095Y-160586113D01*
X40157553Y-160453655D01*
X40313317Y-160349577D01*
X40486387Y-160277889D01*
X40670116Y-160241343D01*
X40857450Y-160241343D01*
X41041179Y-160277889D01*
X41041179Y-160277889D01*
G37*
G36*
X77101000Y-161851000D02*
X75399000Y-161851000D01*
X75399000Y-160149000D01*
X77101000Y-160149000D01*
X77101000Y-161851000D01*
X77101000Y-161851000D01*
G37*
G36*
X84036821Y-160161313D02*
X84036824Y-160161314D01*
X84036825Y-160161314D01*
X84197239Y-160209975D01*
X84197241Y-160209976D01*
X84197244Y-160209977D01*
X84345078Y-160288995D01*
X84474659Y-160395341D01*
X84581005Y-160524922D01*
X84660023Y-160672756D01*
X84660024Y-160672759D01*
X84660025Y-160672761D01*
X84680991Y-160741877D01*
X84708687Y-160833179D01*
X84725117Y-161000000D01*
X84708687Y-161166821D01*
X84708686Y-161166824D01*
X84708686Y-161166825D01*
X84672532Y-161286010D01*
X84660023Y-161327244D01*
X84581005Y-161475078D01*
X84474659Y-161604659D01*
X84345078Y-161711005D01*
X84197244Y-161790023D01*
X84197241Y-161790024D01*
X84197239Y-161790025D01*
X84036825Y-161838686D01*
X84036824Y-161838686D01*
X84036821Y-161838687D01*
X83911804Y-161851000D01*
X83828196Y-161851000D01*
X83703179Y-161838687D01*
X83703176Y-161838686D01*
X83703175Y-161838686D01*
X83542761Y-161790025D01*
X83542759Y-161790024D01*
X83542756Y-161790023D01*
X83394922Y-161711005D01*
X83265341Y-161604659D01*
X83158995Y-161475078D01*
X83079977Y-161327244D01*
X83067469Y-161286010D01*
X83031314Y-161166825D01*
X83031314Y-161166824D01*
X83031313Y-161166821D01*
X83014883Y-161000000D01*
X83031313Y-160833179D01*
X83059009Y-160741877D01*
X83079975Y-160672761D01*
X83079976Y-160672759D01*
X83079977Y-160672756D01*
X83158995Y-160524922D01*
X83265341Y-160395341D01*
X83394922Y-160288995D01*
X83542756Y-160209977D01*
X83542759Y-160209976D01*
X83542761Y-160209975D01*
X83703175Y-160161314D01*
X83703176Y-160161314D01*
X83703179Y-160161313D01*
X83828196Y-160149000D01*
X83911804Y-160149000D01*
X84036821Y-160161313D01*
X84036821Y-160161313D01*
G37*
G36*
X115220671Y-159945955D02*
X114269671Y-161593135D01*
X112622491Y-160642135D01*
X113573491Y-158994955D01*
X115220671Y-159945955D01*
X115220671Y-159945955D01*
G37*
G36*
X119799104Y-159679886D02*
X119972174Y-159751574D01*
X120127938Y-159855652D01*
X120260396Y-159988110D01*
X120364474Y-160143874D01*
X120436162Y-160316944D01*
X120472708Y-160500673D01*
X120472708Y-160688007D01*
X120436162Y-160871736D01*
X120364474Y-161044806D01*
X120260396Y-161200570D01*
X120127938Y-161333028D01*
X119972174Y-161437106D01*
X119799104Y-161508794D01*
X119615375Y-161545340D01*
X119428041Y-161545340D01*
X119244312Y-161508794D01*
X119071242Y-161437106D01*
X118915478Y-161333028D01*
X118783020Y-161200570D01*
X118678942Y-161044806D01*
X118607254Y-160871736D01*
X118570708Y-160688007D01*
X118570708Y-160500673D01*
X118607254Y-160316944D01*
X118678942Y-160143874D01*
X118783020Y-159988110D01*
X118915478Y-159855652D01*
X119071242Y-159751574D01*
X119244312Y-159679886D01*
X119428041Y-159643340D01*
X119615375Y-159643340D01*
X119799104Y-159679886D01*
X119799104Y-159679886D01*
G37*
G36*
X51993127Y-158740138D02*
X50345947Y-159691138D01*
X49394947Y-158043958D01*
X51042127Y-157092958D01*
X51993127Y-158740138D01*
X51993127Y-158740138D01*
G37*
G36*
X45371306Y-157777889D02*
X45544376Y-157849577D01*
X45700140Y-157953655D01*
X45832598Y-158086113D01*
X45936676Y-158241877D01*
X46008364Y-158414947D01*
X46044910Y-158598676D01*
X46044910Y-158786010D01*
X46008364Y-158969739D01*
X45936676Y-159142809D01*
X45832598Y-159298573D01*
X45700140Y-159431031D01*
X45544376Y-159535109D01*
X45371306Y-159606797D01*
X45187577Y-159643343D01*
X45000243Y-159643343D01*
X44816514Y-159606797D01*
X44643444Y-159535109D01*
X44487680Y-159431031D01*
X44355222Y-159298573D01*
X44251144Y-159142809D01*
X44179456Y-158969739D01*
X44142910Y-158786010D01*
X44142910Y-158598676D01*
X44179456Y-158414947D01*
X44251144Y-158241877D01*
X44355222Y-158086113D01*
X44487680Y-157953655D01*
X44643444Y-157849577D01*
X44816514Y-157777889D01*
X45000243Y-157741343D01*
X45187577Y-157741343D01*
X45371306Y-157777889D01*
X45371306Y-157777889D01*
G37*
G36*
X110890544Y-157445955D02*
X109939544Y-159093135D01*
X108292364Y-158142135D01*
X109243364Y-156494955D01*
X110890544Y-157445955D01*
X110890544Y-157445955D01*
G37*
G36*
X115468977Y-157179886D02*
X115642047Y-157251574D01*
X115797811Y-157355652D01*
X115930269Y-157488110D01*
X116034347Y-157643874D01*
X116106035Y-157816944D01*
X116142581Y-158000673D01*
X116142581Y-158188007D01*
X116106035Y-158371736D01*
X116034347Y-158544806D01*
X115930269Y-158700570D01*
X115797811Y-158833028D01*
X115642047Y-158937106D01*
X115468977Y-159008794D01*
X115285248Y-159045340D01*
X115097914Y-159045340D01*
X114914185Y-159008794D01*
X114741115Y-158937106D01*
X114585351Y-158833028D01*
X114452893Y-158700570D01*
X114348815Y-158544806D01*
X114277127Y-158371736D01*
X114240581Y-158188007D01*
X114240581Y-158000673D01*
X114277127Y-157816944D01*
X114348815Y-157643874D01*
X114452893Y-157488110D01*
X114585351Y-157355652D01*
X114741115Y-157251574D01*
X114914185Y-157179886D01*
X115097914Y-157143340D01*
X115285248Y-157143340D01*
X115468977Y-157179886D01*
X115468977Y-157179886D01*
G37*
G36*
X38409451Y-155239389D02*
X38600720Y-155318615D01*
X38772862Y-155433637D01*
X38919249Y-155580024D01*
X39034271Y-155752166D01*
X39113497Y-155943435D01*
X39153886Y-156146484D01*
X39153886Y-156353516D01*
X39113497Y-156556565D01*
X39034271Y-156747834D01*
X38919249Y-156919976D01*
X38772862Y-157066363D01*
X38600720Y-157181385D01*
X38409451Y-157260611D01*
X38206402Y-157301000D01*
X37999370Y-157301000D01*
X37796321Y-157260611D01*
X37605052Y-157181385D01*
X37432910Y-157066363D01*
X37286523Y-156919976D01*
X37171501Y-156747834D01*
X37092275Y-156556565D01*
X37051886Y-156353516D01*
X37051886Y-156146484D01*
X37092275Y-155943435D01*
X37171501Y-155752166D01*
X37286523Y-155580024D01*
X37432910Y-155433637D01*
X37605052Y-155318615D01*
X37796321Y-155239389D01*
X37999370Y-155199000D01*
X38206402Y-155199000D01*
X38409451Y-155239389D01*
X38409451Y-155239389D01*
G37*
G36*
X56323254Y-156240138D02*
X54676074Y-157191138D01*
X53725074Y-155543958D01*
X55372254Y-154592958D01*
X56323254Y-156240138D01*
X56323254Y-156240138D01*
G37*
G36*
X49701433Y-155277889D02*
X49874503Y-155349577D01*
X50030267Y-155453655D01*
X50162725Y-155586113D01*
X50266803Y-155741877D01*
X50338491Y-155914947D01*
X50375037Y-156098676D01*
X50375037Y-156286010D01*
X50338491Y-156469739D01*
X50266803Y-156642809D01*
X50162725Y-156798573D01*
X50030267Y-156931031D01*
X49874503Y-157035109D01*
X49701433Y-157106797D01*
X49517704Y-157143343D01*
X49330370Y-157143343D01*
X49146641Y-157106797D01*
X48973571Y-157035109D01*
X48817807Y-156931031D01*
X48685349Y-156798573D01*
X48581271Y-156642809D01*
X48509583Y-156469739D01*
X48473037Y-156286010D01*
X48473037Y-156098676D01*
X48509583Y-155914947D01*
X48581271Y-155741877D01*
X48685349Y-155586113D01*
X48817807Y-155453655D01*
X48973571Y-155349577D01*
X49146641Y-155277889D01*
X49330370Y-155241343D01*
X49517704Y-155241343D01*
X49701433Y-155277889D01*
X49701433Y-155277889D01*
G37*
G36*
X106560417Y-154945955D02*
X105609417Y-156593135D01*
X103962237Y-155642135D01*
X104913237Y-153994955D01*
X106560417Y-154945955D01*
X106560417Y-154945955D01*
G37*
G36*
X111138850Y-154679886D02*
X111311920Y-154751574D01*
X111467684Y-154855652D01*
X111600142Y-154988110D01*
X111704220Y-155143874D01*
X111775908Y-155316944D01*
X111812454Y-155500673D01*
X111812454Y-155688007D01*
X111775908Y-155871736D01*
X111704220Y-156044806D01*
X111600142Y-156200570D01*
X111467684Y-156333028D01*
X111311920Y-156437106D01*
X111138850Y-156508794D01*
X110955121Y-156545340D01*
X110767787Y-156545340D01*
X110584058Y-156508794D01*
X110410988Y-156437106D01*
X110255224Y-156333028D01*
X110122766Y-156200570D01*
X110018688Y-156044806D01*
X109947000Y-155871736D01*
X109910454Y-155688007D01*
X109910454Y-155500673D01*
X109947000Y-155316944D01*
X110018688Y-155143874D01*
X110122766Y-154988110D01*
X110255224Y-154855652D01*
X110410988Y-154751574D01*
X110584058Y-154679886D01*
X110767787Y-154643340D01*
X110955121Y-154643340D01*
X111138850Y-154679886D01*
X111138850Y-154679886D01*
G37*
G36*
X79601000Y-155101000D02*
X77899000Y-155101000D01*
X77899000Y-153399000D01*
X79601000Y-153399000D01*
X79601000Y-155101000D01*
X79601000Y-155101000D01*
G37*
G36*
X81498228Y-153431703D02*
X81653100Y-153495853D01*
X81792481Y-153588985D01*
X81911015Y-153707519D01*
X82004147Y-153846900D01*
X82068297Y-154001772D01*
X82101000Y-154166184D01*
X82101000Y-154333816D01*
X82068297Y-154498228D01*
X82004147Y-154653100D01*
X81911015Y-154792481D01*
X81792481Y-154911015D01*
X81653100Y-155004147D01*
X81498228Y-155068297D01*
X81333816Y-155101000D01*
X81166184Y-155101000D01*
X81001772Y-155068297D01*
X80846900Y-155004147D01*
X80707519Y-154911015D01*
X80588985Y-154792481D01*
X80495853Y-154653100D01*
X80431703Y-154498228D01*
X80399000Y-154333816D01*
X80399000Y-154166184D01*
X80431703Y-154001772D01*
X80495853Y-153846900D01*
X80588985Y-153707519D01*
X80707519Y-153588985D01*
X80846900Y-153495853D01*
X81001772Y-153431703D01*
X81166184Y-153399000D01*
X81333816Y-153399000D01*
X81498228Y-153431703D01*
X81498228Y-153431703D01*
G37*
G36*
X60653381Y-153740138D02*
X59006201Y-154691138D01*
X58055201Y-153043958D01*
X59702381Y-152092958D01*
X60653381Y-153740138D01*
X60653381Y-153740138D01*
G37*
G36*
X54031560Y-152777889D02*
X54204630Y-152849577D01*
X54360394Y-152953655D01*
X54492852Y-153086113D01*
X54596930Y-153241877D01*
X54668618Y-153414947D01*
X54705164Y-153598676D01*
X54705164Y-153786010D01*
X54668618Y-153969739D01*
X54596930Y-154142809D01*
X54492852Y-154298573D01*
X54360394Y-154431031D01*
X54204630Y-154535109D01*
X54031560Y-154606797D01*
X53847831Y-154643343D01*
X53660497Y-154643343D01*
X53476768Y-154606797D01*
X53303698Y-154535109D01*
X53147934Y-154431031D01*
X53015476Y-154298573D01*
X52911398Y-154142809D01*
X52839710Y-153969739D01*
X52803164Y-153786010D01*
X52803164Y-153598676D01*
X52839710Y-153414947D01*
X52911398Y-153241877D01*
X53015476Y-153086113D01*
X53147934Y-152953655D01*
X53303698Y-152849577D01*
X53476768Y-152777889D01*
X53660497Y-152741343D01*
X53847831Y-152741343D01*
X54031560Y-152777889D01*
X54031560Y-152777889D01*
G37*
G36*
X102230290Y-152445955D02*
X101279290Y-154093135D01*
X99632110Y-153142135D01*
X100583110Y-151494955D01*
X102230290Y-152445955D01*
X102230290Y-152445955D01*
G37*
G36*
X106808723Y-152179886D02*
X106981793Y-152251574D01*
X107137557Y-152355652D01*
X107270015Y-152488110D01*
X107374093Y-152643874D01*
X107445781Y-152816944D01*
X107482327Y-153000673D01*
X107482327Y-153188007D01*
X107445781Y-153371736D01*
X107374093Y-153544806D01*
X107270015Y-153700570D01*
X107137557Y-153833028D01*
X106981793Y-153937106D01*
X106808723Y-154008794D01*
X106624994Y-154045340D01*
X106437660Y-154045340D01*
X106253931Y-154008794D01*
X106080861Y-153937106D01*
X105925097Y-153833028D01*
X105792639Y-153700570D01*
X105688561Y-153544806D01*
X105616873Y-153371736D01*
X105580327Y-153188007D01*
X105580327Y-153000673D01*
X105616873Y-152816944D01*
X105688561Y-152643874D01*
X105792639Y-152488110D01*
X105925097Y-152355652D01*
X106080861Y-152251574D01*
X106253931Y-152179886D01*
X106437660Y-152143340D01*
X106624994Y-152143340D01*
X106808723Y-152179886D01*
X106808723Y-152179886D01*
G37*
G36*
X46203679Y-150739389D02*
X46394948Y-150818615D01*
X46567090Y-150933637D01*
X46713477Y-151080024D01*
X46828499Y-151252166D01*
X46907725Y-151443435D01*
X46948114Y-151646484D01*
X46948114Y-151853516D01*
X46907725Y-152056565D01*
X46828499Y-152247834D01*
X46713477Y-152419976D01*
X46567090Y-152566363D01*
X46394948Y-152681385D01*
X46203679Y-152760611D01*
X46000630Y-152801000D01*
X45793598Y-152801000D01*
X45590549Y-152760611D01*
X45399280Y-152681385D01*
X45227138Y-152566363D01*
X45080751Y-152419976D01*
X44965729Y-152247834D01*
X44886503Y-152056565D01*
X44846114Y-151853516D01*
X44846114Y-151646484D01*
X44886503Y-151443435D01*
X44965729Y-151252166D01*
X45080751Y-151080024D01*
X45227138Y-150933637D01*
X45399280Y-150818615D01*
X45590549Y-150739389D01*
X45793598Y-150699000D01*
X46000630Y-150699000D01*
X46203679Y-150739389D01*
X46203679Y-150739389D01*
G37*
G36*
X64983508Y-151240138D02*
X63336328Y-152191138D01*
X62385328Y-150543958D01*
X64032508Y-149592958D01*
X64983508Y-151240138D01*
X64983508Y-151240138D01*
G37*
G36*
X58361687Y-150277889D02*
X58534757Y-150349577D01*
X58690521Y-150453655D01*
X58822979Y-150586113D01*
X58927057Y-150741877D01*
X58998745Y-150914947D01*
X59035291Y-151098676D01*
X59035291Y-151286010D01*
X58998745Y-151469739D01*
X58927057Y-151642809D01*
X58822979Y-151798573D01*
X58690521Y-151931031D01*
X58534757Y-152035109D01*
X58361687Y-152106797D01*
X58177958Y-152143343D01*
X57990624Y-152143343D01*
X57806895Y-152106797D01*
X57633825Y-152035109D01*
X57478061Y-151931031D01*
X57345603Y-151798573D01*
X57241525Y-151642809D01*
X57169837Y-151469739D01*
X57133291Y-151286010D01*
X57133291Y-151098676D01*
X57169837Y-150914947D01*
X57241525Y-150741877D01*
X57345603Y-150586113D01*
X57478061Y-150453655D01*
X57633825Y-150349577D01*
X57806895Y-150277889D01*
X57990624Y-150241343D01*
X58177958Y-150241343D01*
X58361687Y-150277889D01*
X58361687Y-150277889D01*
G37*
G36*
X97900163Y-149945955D02*
X96949163Y-151593135D01*
X95301983Y-150642135D01*
X96252983Y-148994955D01*
X97900163Y-149945955D01*
X97900163Y-149945955D01*
G37*
G36*
X102478596Y-149679886D02*
X102651666Y-149751574D01*
X102807430Y-149855652D01*
X102939888Y-149988110D01*
X103043966Y-150143874D01*
X103115654Y-150316944D01*
X103152200Y-150500673D01*
X103152200Y-150688007D01*
X103115654Y-150871736D01*
X103043966Y-151044806D01*
X102939888Y-151200570D01*
X102807430Y-151333028D01*
X102651666Y-151437106D01*
X102478596Y-151508794D01*
X102294867Y-151545340D01*
X102107533Y-151545340D01*
X101923804Y-151508794D01*
X101750734Y-151437106D01*
X101594970Y-151333028D01*
X101462512Y-151200570D01*
X101358434Y-151044806D01*
X101286746Y-150871736D01*
X101250200Y-150688007D01*
X101250200Y-150500673D01*
X101286746Y-150316944D01*
X101358434Y-150143874D01*
X101462512Y-149988110D01*
X101594970Y-149855652D01*
X101750734Y-149751574D01*
X101923804Y-149679886D01*
X102107533Y-149643340D01*
X102294867Y-149643340D01*
X102478596Y-149679886D01*
X102478596Y-149679886D01*
G37*
G36*
X69313635Y-148740138D02*
X67666455Y-149691138D01*
X66715455Y-148043958D01*
X68362635Y-147092958D01*
X69313635Y-148740138D01*
X69313635Y-148740138D01*
G37*
G36*
X62691814Y-147777889D02*
X62864884Y-147849577D01*
X63020648Y-147953655D01*
X63153106Y-148086113D01*
X63257184Y-148241877D01*
X63328872Y-148414947D01*
X63365418Y-148598676D01*
X63365418Y-148786010D01*
X63328872Y-148969739D01*
X63257184Y-149142809D01*
X63153106Y-149298573D01*
X63020648Y-149431031D01*
X62864884Y-149535109D01*
X62691814Y-149606797D01*
X62508085Y-149643343D01*
X62320751Y-149643343D01*
X62137022Y-149606797D01*
X61963952Y-149535109D01*
X61808188Y-149431031D01*
X61675730Y-149298573D01*
X61571652Y-149142809D01*
X61499964Y-148969739D01*
X61463418Y-148786010D01*
X61463418Y-148598676D01*
X61499964Y-148414947D01*
X61571652Y-148241877D01*
X61675730Y-148086113D01*
X61808188Y-147953655D01*
X61963952Y-147849577D01*
X62137022Y-147777889D01*
X62320751Y-147741343D01*
X62508085Y-147741343D01*
X62691814Y-147777889D01*
X62691814Y-147777889D01*
G37*
G36*
X93570036Y-147445955D02*
X92619036Y-149093135D01*
X90971856Y-148142135D01*
X91922856Y-146494955D01*
X93570036Y-147445955D01*
X93570036Y-147445955D01*
G37*
G36*
X98148469Y-147179886D02*
X98321539Y-147251574D01*
X98477303Y-147355652D01*
X98609761Y-147488110D01*
X98713839Y-147643874D01*
X98785527Y-147816944D01*
X98822073Y-148000673D01*
X98822073Y-148188007D01*
X98785527Y-148371736D01*
X98713839Y-148544806D01*
X98609761Y-148700570D01*
X98477303Y-148833028D01*
X98321539Y-148937106D01*
X98148469Y-149008794D01*
X97964740Y-149045340D01*
X97777406Y-149045340D01*
X97593677Y-149008794D01*
X97420607Y-148937106D01*
X97264843Y-148833028D01*
X97132385Y-148700570D01*
X97028307Y-148544806D01*
X96956619Y-148371736D01*
X96920073Y-148188007D01*
X96920073Y-148000673D01*
X96956619Y-147816944D01*
X97028307Y-147643874D01*
X97132385Y-147488110D01*
X97264843Y-147355652D01*
X97420607Y-147251574D01*
X97593677Y-147179886D01*
X97777406Y-147143340D01*
X97964740Y-147143340D01*
X98148469Y-147179886D01*
X98148469Y-147179886D01*
G37*
G36*
X67021941Y-145277889D02*
X67195011Y-145349577D01*
X67350775Y-145453655D01*
X67483233Y-145586113D01*
X67587311Y-145741877D01*
X67658999Y-145914947D01*
X67695545Y-146098676D01*
X67695545Y-146286010D01*
X67658999Y-146469739D01*
X67587311Y-146642809D01*
X67483233Y-146798573D01*
X67350775Y-146931031D01*
X67195011Y-147035109D01*
X67021941Y-147106797D01*
X66838212Y-147143343D01*
X66650878Y-147143343D01*
X66467149Y-147106797D01*
X66294079Y-147035109D01*
X66138315Y-146931031D01*
X66005857Y-146798573D01*
X65901779Y-146642809D01*
X65830091Y-146469739D01*
X65793545Y-146286010D01*
X65793545Y-146098676D01*
X65830091Y-145914947D01*
X65901779Y-145741877D01*
X66005857Y-145586113D01*
X66138315Y-145453655D01*
X66294079Y-145349577D01*
X66467149Y-145277889D01*
X66650878Y-145241343D01*
X66838212Y-145241343D01*
X67021941Y-145277889D01*
X67021941Y-145277889D01*
G37*
G36*
X73774937Y-146164405D02*
X72127757Y-147115405D01*
X71176757Y-145468225D01*
X72823937Y-144517225D01*
X73774937Y-146164405D01*
X73774937Y-146164405D01*
G37*
G36*
X89239909Y-144945955D02*
X88288909Y-146593135D01*
X86641729Y-145642135D01*
X87592729Y-143994955D01*
X89239909Y-144945955D01*
X89239909Y-144945955D01*
G37*
G36*
X93818342Y-144679886D02*
X93991412Y-144751574D01*
X94147176Y-144855652D01*
X94279634Y-144988110D01*
X94383712Y-145143874D01*
X94455400Y-145316944D01*
X94491946Y-145500673D01*
X94491946Y-145688007D01*
X94455400Y-145871736D01*
X94383712Y-146044806D01*
X94279634Y-146200570D01*
X94147176Y-146333028D01*
X93991412Y-146437106D01*
X93818342Y-146508794D01*
X93634613Y-146545340D01*
X93447279Y-146545340D01*
X93263550Y-146508794D01*
X93090480Y-146437106D01*
X92934716Y-146333028D01*
X92802258Y-146200570D01*
X92698180Y-146044806D01*
X92626492Y-145871736D01*
X92589946Y-145688007D01*
X92589946Y-145500673D01*
X92626492Y-145316944D01*
X92698180Y-145143874D01*
X92802258Y-144988110D01*
X92934716Y-144855652D01*
X93090480Y-144751574D01*
X93263550Y-144679886D01*
X93447279Y-144643340D01*
X93634613Y-144643340D01*
X93818342Y-144679886D01*
X93818342Y-144679886D01*
G37*
G36*
X71483243Y-142702156D02*
X71656313Y-142773844D01*
X71812077Y-142877922D01*
X71944535Y-143010380D01*
X72048613Y-143166144D01*
X72120301Y-143339214D01*
X72156847Y-143522943D01*
X72156847Y-143710277D01*
X72120301Y-143894006D01*
X72048613Y-144067076D01*
X71944535Y-144222840D01*
X71812077Y-144355298D01*
X71656313Y-144459376D01*
X71483243Y-144531064D01*
X71299514Y-144567610D01*
X71112180Y-144567610D01*
X70928451Y-144531064D01*
X70755381Y-144459376D01*
X70599617Y-144355298D01*
X70467159Y-144222840D01*
X70363081Y-144067076D01*
X70291393Y-143894006D01*
X70254847Y-143710277D01*
X70254847Y-143522943D01*
X70291393Y-143339214D01*
X70363081Y-143166144D01*
X70467159Y-143010380D01*
X70599617Y-142877922D01*
X70755381Y-142773844D01*
X70928451Y-142702156D01*
X71112180Y-142665610D01*
X71299514Y-142665610D01*
X71483243Y-142702156D01*
X71483243Y-142702156D01*
G37*
G36*
X80829329Y-135830681D02*
X81239971Y-135912363D01*
X82013604Y-136232812D01*
X82707501Y-136696460D01*
X82709858Y-136698035D01*
X83301965Y-137290142D01*
X83301967Y-137290145D01*
X83767188Y-137986396D01*
X84087637Y-138760029D01*
X84251000Y-139581313D01*
X84251000Y-140418687D01*
X84087637Y-141239971D01*
X83767188Y-142013604D01*
X83346055Y-142643873D01*
X83301965Y-142709858D01*
X82709858Y-143301965D01*
X82709855Y-143301967D01*
X82013604Y-143767188D01*
X81239971Y-144087637D01*
X80829329Y-144169319D01*
X80418688Y-144251000D01*
X79581312Y-144251000D01*
X79170671Y-144169319D01*
X78760029Y-144087637D01*
X77986396Y-143767188D01*
X77290145Y-143301967D01*
X77290142Y-143301965D01*
X76698035Y-142709858D01*
X76653945Y-142643873D01*
X76232812Y-142013604D01*
X75912363Y-141239971D01*
X75749000Y-140418687D01*
X75749000Y-139581313D01*
X75912363Y-138760029D01*
X76232812Y-137986396D01*
X76698033Y-137290145D01*
X76698035Y-137290142D01*
X77290142Y-136698035D01*
X77292499Y-136696460D01*
X77986396Y-136232812D01*
X78760029Y-135912363D01*
X79170671Y-135830681D01*
X79581312Y-135749000D01*
X80418688Y-135749000D01*
X80829329Y-135830681D01*
X80829329Y-135830681D01*
G37*
G36*
X89488215Y-142179886D02*
X89661285Y-142251574D01*
X89817049Y-142355652D01*
X89949507Y-142488110D01*
X90053585Y-142643874D01*
X90125273Y-142816944D01*
X90161819Y-143000673D01*
X90161819Y-143188007D01*
X90125273Y-143371736D01*
X90053585Y-143544806D01*
X89949507Y-143700570D01*
X89817049Y-143833028D01*
X89661285Y-143937106D01*
X89488215Y-144008794D01*
X89304486Y-144045340D01*
X89117152Y-144045340D01*
X88933423Y-144008794D01*
X88760353Y-143937106D01*
X88604589Y-143833028D01*
X88472131Y-143700570D01*
X88368053Y-143544806D01*
X88296365Y-143371736D01*
X88259819Y-143188007D01*
X88259819Y-143000673D01*
X88296365Y-142816944D01*
X88368053Y-142643874D01*
X88472131Y-142488110D01*
X88604589Y-142355652D01*
X88760353Y-142251574D01*
X88933423Y-142179886D01*
X89117152Y-142143340D01*
X89304486Y-142143340D01*
X89488215Y-142179886D01*
X89488215Y-142179886D01*
G37*
G36*
X67230789Y-134670211D02*
X66329789Y-136230789D01*
X64769211Y-135329789D01*
X65670211Y-133769211D01*
X67230789Y-134670211D01*
X67230789Y-134670211D01*
G37*
G36*
X63910737Y-132835518D02*
X63976922Y-132842037D01*
X64090148Y-132876384D01*
X64146762Y-132893557D01*
X64276658Y-132962989D01*
X64303286Y-132977222D01*
X64339024Y-133006552D01*
X64440481Y-133089814D01*
X64487216Y-133146762D01*
X64553073Y-133227009D01*
X64553074Y-133227011D01*
X64636738Y-133383533D01*
X64636738Y-133383534D01*
X64688258Y-133553373D01*
X64705654Y-133730000D01*
X64688258Y-133906627D01*
X64653911Y-134019853D01*
X64636738Y-134076467D01*
X64562643Y-134215087D01*
X64553073Y-134232991D01*
X64523743Y-134268729D01*
X64440481Y-134370186D01*
X64339024Y-134453448D01*
X64303286Y-134482778D01*
X64303284Y-134482779D01*
X64146762Y-134566443D01*
X64090148Y-134583616D01*
X63976922Y-134617963D01*
X63910737Y-134624482D01*
X63844555Y-134631000D01*
X63756035Y-134631000D01*
X63689853Y-134624482D01*
X63623668Y-134617963D01*
X63510442Y-134583616D01*
X63453828Y-134566443D01*
X63297306Y-134482779D01*
X63297304Y-134482778D01*
X63261566Y-134453448D01*
X63160109Y-134370186D01*
X63076847Y-134268729D01*
X63047517Y-134232991D01*
X63037947Y-134215087D01*
X62963852Y-134076467D01*
X62946679Y-134019853D01*
X62912332Y-133906627D01*
X62894936Y-133730000D01*
X62912332Y-133553373D01*
X62963852Y-133383534D01*
X62963852Y-133383533D01*
X63047516Y-133227011D01*
X63047517Y-133227009D01*
X63113374Y-133146762D01*
X63160109Y-133089814D01*
X63261566Y-133006552D01*
X63297304Y-132977222D01*
X63323932Y-132962989D01*
X63453828Y-132893557D01*
X63510442Y-132876384D01*
X63623668Y-132842037D01*
X63689853Y-132835518D01*
X63756035Y-132829000D01*
X63844555Y-132829000D01*
X63910737Y-132835518D01*
X63910737Y-132835518D01*
G37*
G36*
X67380443Y-131905814D02*
X67446627Y-131912332D01*
X67559853Y-131946679D01*
X67616467Y-131963852D01*
X67746363Y-132033284D01*
X67772991Y-132047517D01*
X67808729Y-132076847D01*
X67910186Y-132160109D01*
X67993448Y-132261566D01*
X68022778Y-132297304D01*
X68022779Y-132297306D01*
X68106443Y-132453828D01*
X68106443Y-132453829D01*
X68157963Y-132623668D01*
X68175359Y-132800295D01*
X68157963Y-132976922D01*
X68123718Y-133089814D01*
X68106443Y-133146762D01*
X68063549Y-133227009D01*
X68022778Y-133303286D01*
X67993448Y-133339024D01*
X67910186Y-133440481D01*
X67808729Y-133523743D01*
X67772991Y-133553073D01*
X67772989Y-133553074D01*
X67616467Y-133636738D01*
X67559853Y-133653911D01*
X67446627Y-133688258D01*
X67380442Y-133694777D01*
X67314260Y-133701295D01*
X67225740Y-133701295D01*
X67159558Y-133694777D01*
X67093373Y-133688258D01*
X66980147Y-133653911D01*
X66923533Y-133636738D01*
X66767011Y-133553074D01*
X66767009Y-133553073D01*
X66731271Y-133523743D01*
X66629814Y-133440481D01*
X66546552Y-133339024D01*
X66517222Y-133303286D01*
X66476451Y-133227009D01*
X66433557Y-133146762D01*
X66416282Y-133089814D01*
X66382037Y-132976922D01*
X66364641Y-132800295D01*
X66382037Y-132623668D01*
X66433557Y-132453829D01*
X66433557Y-132453828D01*
X66517221Y-132297306D01*
X66517222Y-132297304D01*
X66546552Y-132261566D01*
X66629814Y-132160109D01*
X66731271Y-132076847D01*
X66767009Y-132047517D01*
X66793637Y-132033284D01*
X66923533Y-131963852D01*
X66980147Y-131946679D01*
X67093373Y-131912332D01*
X67159557Y-131905814D01*
X67225740Y-131899295D01*
X67314260Y-131899295D01*
X67380443Y-131905814D01*
X67380443Y-131905814D01*
G37*
G36*
X61711034Y-131565519D02*
X61777218Y-131572037D01*
X61890444Y-131606384D01*
X61947058Y-131623557D01*
X62085678Y-131697652D01*
X62103582Y-131707222D01*
X62139320Y-131736552D01*
X62240777Y-131819814D01*
X62287512Y-131876762D01*
X62353369Y-131957009D01*
X62353370Y-131957011D01*
X62437034Y-132113533D01*
X62437034Y-132113534D01*
X62488554Y-132283373D01*
X62505950Y-132460000D01*
X62488554Y-132636627D01*
X62454207Y-132749853D01*
X62437034Y-132806467D01*
X62418021Y-132842037D01*
X62353369Y-132962991D01*
X62324039Y-132998729D01*
X62240777Y-133100186D01*
X62139320Y-133183448D01*
X62103582Y-133212778D01*
X62103580Y-133212779D01*
X61947058Y-133296443D01*
X61924499Y-133303286D01*
X61777218Y-133347963D01*
X61711034Y-133354481D01*
X61644851Y-133361000D01*
X61556331Y-133361000D01*
X61490148Y-133354481D01*
X61423964Y-133347963D01*
X61276683Y-133303286D01*
X61254124Y-133296443D01*
X61097602Y-133212779D01*
X61097600Y-133212778D01*
X61061862Y-133183448D01*
X60960405Y-133100186D01*
X60877143Y-132998729D01*
X60847813Y-132962991D01*
X60783161Y-132842037D01*
X60764148Y-132806467D01*
X60746975Y-132749853D01*
X60712628Y-132636627D01*
X60695232Y-132460000D01*
X60712628Y-132283373D01*
X60764148Y-132113534D01*
X60764148Y-132113533D01*
X60847812Y-131957011D01*
X60847813Y-131957009D01*
X60913670Y-131876762D01*
X60960405Y-131819814D01*
X61061862Y-131736552D01*
X61097600Y-131707222D01*
X61115504Y-131697652D01*
X61254124Y-131623557D01*
X61310738Y-131606384D01*
X61423964Y-131572037D01*
X61490148Y-131565519D01*
X61556331Y-131559000D01*
X61644851Y-131559000D01*
X61711034Y-131565519D01*
X61711034Y-131565519D01*
G37*
G36*
X65180738Y-130635814D02*
X65246922Y-130642332D01*
X65360148Y-130676679D01*
X65416762Y-130693852D01*
X65546658Y-130763284D01*
X65573286Y-130777517D01*
X65609024Y-130806847D01*
X65710481Y-130890109D01*
X65793743Y-130991566D01*
X65823073Y-131027304D01*
X65823074Y-131027306D01*
X65906738Y-131183828D01*
X65906738Y-131183829D01*
X65958258Y-131353668D01*
X65975654Y-131530295D01*
X65958258Y-131706922D01*
X65924013Y-131819814D01*
X65906738Y-131876762D01*
X65887725Y-131912332D01*
X65823073Y-132033286D01*
X65793743Y-132069024D01*
X65710481Y-132170481D01*
X65609024Y-132253743D01*
X65573286Y-132283073D01*
X65573284Y-132283074D01*
X65416762Y-132366738D01*
X65360148Y-132383911D01*
X65246922Y-132418258D01*
X65180738Y-132424776D01*
X65114555Y-132431295D01*
X65026035Y-132431295D01*
X64959852Y-132424776D01*
X64893668Y-132418258D01*
X64780442Y-132383911D01*
X64723828Y-132366738D01*
X64567306Y-132283074D01*
X64567304Y-132283073D01*
X64531566Y-132253743D01*
X64430109Y-132170481D01*
X64346847Y-132069024D01*
X64317517Y-132033286D01*
X64252865Y-131912332D01*
X64233852Y-131876762D01*
X64216577Y-131819814D01*
X64182332Y-131706922D01*
X64164936Y-131530295D01*
X64182332Y-131353668D01*
X64233852Y-131183829D01*
X64233852Y-131183828D01*
X64317516Y-131027306D01*
X64317517Y-131027304D01*
X64346847Y-130991566D01*
X64430109Y-130890109D01*
X64531566Y-130806847D01*
X64567304Y-130777517D01*
X64593932Y-130763284D01*
X64723828Y-130693852D01*
X64780442Y-130676679D01*
X64893668Y-130642332D01*
X64959852Y-130635814D01*
X65026035Y-130629295D01*
X65114555Y-130629295D01*
X65180738Y-130635814D01*
X65180738Y-130635814D01*
G37*
G36*
X113317142Y-130017060D02*
X113465102Y-130078348D01*
X113598258Y-130167320D01*
X113711498Y-130280560D01*
X113800470Y-130413716D01*
X113861758Y-130561676D01*
X113893000Y-130718743D01*
X113893000Y-130878893D01*
X113861758Y-131035960D01*
X113800470Y-131183920D01*
X113711498Y-131317076D01*
X113598258Y-131430316D01*
X113465102Y-131519288D01*
X113317142Y-131580576D01*
X113160075Y-131611818D01*
X112999925Y-131611818D01*
X112842858Y-131580576D01*
X112694898Y-131519288D01*
X112561742Y-131430316D01*
X112448502Y-131317076D01*
X112359530Y-131183920D01*
X112298242Y-131035960D01*
X112267000Y-130878893D01*
X112267000Y-130718743D01*
X112298242Y-130561676D01*
X112359530Y-130413716D01*
X112448502Y-130280560D01*
X112561742Y-130167320D01*
X112694898Y-130078348D01*
X112842858Y-130017060D01*
X112999925Y-129985818D01*
X113160075Y-129985818D01*
X113317142Y-130017060D01*
X113317142Y-130017060D01*
G37*
G36*
X79701000Y-131451000D02*
X77799000Y-131451000D01*
X77799000Y-129549000D01*
X79701000Y-129549000D01*
X79701000Y-131451000D01*
X79701000Y-131451000D01*
G37*
G36*
X81567396Y-129585546D02*
X81740466Y-129657234D01*
X81896230Y-129761312D01*
X82028688Y-129893770D01*
X82132766Y-130049534D01*
X82204454Y-130222604D01*
X82241000Y-130406333D01*
X82241000Y-130593667D01*
X82204454Y-130777396D01*
X82132766Y-130950466D01*
X82028688Y-131106230D01*
X81896230Y-131238688D01*
X81740466Y-131342766D01*
X81567396Y-131414454D01*
X81383667Y-131451000D01*
X81196333Y-131451000D01*
X81012604Y-131414454D01*
X80839534Y-131342766D01*
X80683770Y-131238688D01*
X80551312Y-131106230D01*
X80447234Y-130950466D01*
X80375546Y-130777396D01*
X80339000Y-130593667D01*
X80339000Y-130406333D01*
X80375546Y-130222604D01*
X80447234Y-130049534D01*
X80551312Y-129893770D01*
X80683770Y-129761312D01*
X80839534Y-129657234D01*
X81012604Y-129585546D01*
X81196333Y-129549000D01*
X81383667Y-129549000D01*
X81567396Y-129585546D01*
X81567396Y-129585546D01*
G37*
G36*
X62981033Y-129365813D02*
X63047218Y-129372332D01*
X63160444Y-129406679D01*
X63217058Y-129423852D01*
X63355678Y-129497947D01*
X63373582Y-129507517D01*
X63409320Y-129536847D01*
X63510777Y-129620109D01*
X63594039Y-129721566D01*
X63623369Y-129757304D01*
X63623370Y-129757306D01*
X63707034Y-129913828D01*
X63707034Y-129913829D01*
X63758554Y-130083668D01*
X63775950Y-130260295D01*
X63758554Y-130436922D01*
X63724207Y-130550148D01*
X63707034Y-130606762D01*
X63688021Y-130642332D01*
X63623369Y-130763286D01*
X63594039Y-130799024D01*
X63510777Y-130900481D01*
X63409320Y-130983743D01*
X63373582Y-131013073D01*
X63373580Y-131013074D01*
X63217058Y-131096738D01*
X63185776Y-131106227D01*
X63047218Y-131148258D01*
X62981034Y-131154776D01*
X62914851Y-131161295D01*
X62826331Y-131161295D01*
X62760148Y-131154776D01*
X62693964Y-131148258D01*
X62555406Y-131106227D01*
X62524124Y-131096738D01*
X62367602Y-131013074D01*
X62367600Y-131013073D01*
X62331862Y-130983743D01*
X62230405Y-130900481D01*
X62147143Y-130799024D01*
X62117813Y-130763286D01*
X62053161Y-130642332D01*
X62034148Y-130606762D01*
X62016975Y-130550148D01*
X61982628Y-130436922D01*
X61965232Y-130260295D01*
X61982628Y-130083668D01*
X62034148Y-129913829D01*
X62034148Y-129913828D01*
X62117812Y-129757306D01*
X62117813Y-129757304D01*
X62147143Y-129721566D01*
X62230405Y-129620109D01*
X62331862Y-129536847D01*
X62367600Y-129507517D01*
X62385504Y-129497947D01*
X62524124Y-129423852D01*
X62580738Y-129406679D01*
X62693964Y-129372332D01*
X62760149Y-129365813D01*
X62826331Y-129359295D01*
X62914851Y-129359295D01*
X62981033Y-129365813D01*
X62981033Y-129365813D01*
G37*
G36*
X53248228Y-127181703D02*
X53403100Y-127245853D01*
X53542481Y-127338985D01*
X53661015Y-127457519D01*
X53754147Y-127596900D01*
X53818297Y-127751772D01*
X53851000Y-127916184D01*
X53851000Y-128083816D01*
X53818297Y-128248228D01*
X53754147Y-128403100D01*
X53661015Y-128542481D01*
X53542481Y-128661015D01*
X53403100Y-128754147D01*
X53248228Y-128818297D01*
X53083816Y-128851000D01*
X52916184Y-128851000D01*
X52751772Y-128818297D01*
X52596900Y-128754147D01*
X52457519Y-128661015D01*
X52338985Y-128542481D01*
X52245853Y-128403100D01*
X52181703Y-128248228D01*
X52149000Y-128083816D01*
X52149000Y-127916184D01*
X52181703Y-127751772D01*
X52245853Y-127596900D01*
X52338985Y-127457519D01*
X52457519Y-127338985D01*
X52596900Y-127245853D01*
X52751772Y-127181703D01*
X52916184Y-127149000D01*
X53083816Y-127149000D01*
X53248228Y-127181703D01*
X53248228Y-127181703D01*
G37*
G36*
X54498228Y-125016639D02*
X54653100Y-125080789D01*
X54792481Y-125173921D01*
X54911015Y-125292455D01*
X55004147Y-125431836D01*
X55068297Y-125586708D01*
X55101000Y-125751120D01*
X55101000Y-125918752D01*
X55068297Y-126083164D01*
X55004147Y-126238036D01*
X54911015Y-126377417D01*
X54792481Y-126495951D01*
X54653100Y-126589083D01*
X54498228Y-126653233D01*
X54333816Y-126685936D01*
X54166184Y-126685936D01*
X54001772Y-126653233D01*
X53846900Y-126589083D01*
X53707519Y-126495951D01*
X53588985Y-126377417D01*
X53495853Y-126238036D01*
X53431703Y-126083164D01*
X53399000Y-125918752D01*
X53399000Y-125751120D01*
X53431703Y-125586708D01*
X53495853Y-125431836D01*
X53588985Y-125292455D01*
X53707519Y-125173921D01*
X53846900Y-125080789D01*
X54001772Y-125016639D01*
X54166184Y-124983936D01*
X54333816Y-124983936D01*
X54498228Y-125016639D01*
X54498228Y-125016639D01*
G37*
G36*
X81567396Y-124085546D02*
X81740466Y-124157234D01*
X81896230Y-124261312D01*
X82028688Y-124393770D01*
X82132766Y-124549534D01*
X82204454Y-124722604D01*
X82241000Y-124906333D01*
X82241000Y-125093667D01*
X82204454Y-125277396D01*
X82132766Y-125450466D01*
X82028688Y-125606230D01*
X81896230Y-125738688D01*
X81740466Y-125842766D01*
X81567396Y-125914454D01*
X81383667Y-125951000D01*
X81196333Y-125951000D01*
X81012604Y-125914454D01*
X80839534Y-125842766D01*
X80683770Y-125738688D01*
X80551312Y-125606230D01*
X80447234Y-125450466D01*
X80375546Y-125277396D01*
X80339000Y-125093667D01*
X80339000Y-124906333D01*
X80375546Y-124722604D01*
X80447234Y-124549534D01*
X80551312Y-124393770D01*
X80683770Y-124261312D01*
X80839534Y-124157234D01*
X81012604Y-124085546D01*
X81196333Y-124049000D01*
X81383667Y-124049000D01*
X81567396Y-124085546D01*
X81567396Y-124085546D01*
G37*
G36*
X79701000Y-125951000D02*
X77799000Y-125951000D01*
X77799000Y-124049000D01*
X79701000Y-124049000D01*
X79701000Y-125951000D01*
X79701000Y-125951000D01*
G37*
G36*
X59203679Y-122239389D02*
X59394948Y-122318615D01*
X59567090Y-122433637D01*
X59713477Y-122580024D01*
X59828499Y-122752166D01*
X59907725Y-122943435D01*
X59948114Y-123146484D01*
X59948114Y-123353516D01*
X59907725Y-123556565D01*
X59828499Y-123747834D01*
X59713477Y-123919976D01*
X59567090Y-124066363D01*
X59394948Y-124181385D01*
X59203679Y-124260611D01*
X59000630Y-124301000D01*
X58793598Y-124301000D01*
X58590549Y-124260611D01*
X58399280Y-124181385D01*
X58227138Y-124066363D01*
X58080751Y-123919976D01*
X57965729Y-123747834D01*
X57886503Y-123556565D01*
X57846114Y-123353516D01*
X57846114Y-123146484D01*
X57886503Y-122943435D01*
X57965729Y-122752166D01*
X58080751Y-122580024D01*
X58227138Y-122433637D01*
X58399280Y-122318615D01*
X58590549Y-122239389D01*
X58793598Y-122199000D01*
X59000630Y-122199000D01*
X59203679Y-122239389D01*
X59203679Y-122239389D01*
G37*
G36*
X43237142Y-122218242D02*
X43385102Y-122279530D01*
X43518258Y-122368502D01*
X43631498Y-122481742D01*
X43720470Y-122614898D01*
X43781758Y-122762858D01*
X43813000Y-122919925D01*
X43813000Y-123080075D01*
X43781758Y-123237142D01*
X43720470Y-123385102D01*
X43631498Y-123518258D01*
X43518258Y-123631498D01*
X43385102Y-123720470D01*
X43237142Y-123781758D01*
X43080075Y-123813000D01*
X42919925Y-123813000D01*
X42762858Y-123781758D01*
X42614898Y-123720470D01*
X42481742Y-123631498D01*
X42368502Y-123518258D01*
X42279530Y-123385102D01*
X42218242Y-123237142D01*
X42187000Y-123080075D01*
X42187000Y-122919925D01*
X42218242Y-122762858D01*
X42279530Y-122614898D01*
X42368502Y-122481742D01*
X42481742Y-122368502D01*
X42614898Y-122279530D01*
X42762858Y-122218242D01*
X42919925Y-122187000D01*
X43080075Y-122187000D01*
X43237142Y-122218242D01*
X43237142Y-122218242D01*
G37*
G36*
X44737142Y-119620166D02*
X44851583Y-119667570D01*
X44884936Y-119681385D01*
X44885102Y-119681454D01*
X44946687Y-119722604D01*
X45018257Y-119770425D01*
X45131499Y-119883667D01*
X45155726Y-119919926D01*
X45220470Y-120016822D01*
X45281758Y-120164782D01*
X45313000Y-120321849D01*
X45313000Y-120481999D01*
X45281758Y-120639066D01*
X45240492Y-120738690D01*
X45220471Y-120787024D01*
X45135326Y-120914454D01*
X45131498Y-120920182D01*
X45018258Y-121033422D01*
X44885102Y-121122394D01*
X44737142Y-121183682D01*
X44580075Y-121214924D01*
X44419925Y-121214924D01*
X44262858Y-121183682D01*
X44114898Y-121122394D01*
X43981742Y-121033422D01*
X43868502Y-120920182D01*
X43864675Y-120914454D01*
X43779529Y-120787024D01*
X43759508Y-120738690D01*
X43718242Y-120639066D01*
X43687000Y-120481999D01*
X43687000Y-120321849D01*
X43718242Y-120164782D01*
X43779530Y-120016822D01*
X43844274Y-119919926D01*
X43868501Y-119883667D01*
X43981743Y-119770425D01*
X44053313Y-119722604D01*
X44114898Y-119681454D01*
X44115065Y-119681385D01*
X44148417Y-119667570D01*
X44262858Y-119620166D01*
X44419925Y-119588924D01*
X44580075Y-119588924D01*
X44737142Y-119620166D01*
X44737142Y-119620166D01*
G37*
G36*
X79701000Y-120951000D02*
X77799000Y-120951000D01*
X77799000Y-119049000D01*
X79701000Y-119049000D01*
X79701000Y-120951000D01*
X79701000Y-120951000D01*
G37*
G36*
X81567396Y-119085546D02*
X81740466Y-119157234D01*
X81896230Y-119261312D01*
X82028688Y-119393770D01*
X82132766Y-119549534D01*
X82204454Y-119722604D01*
X82241000Y-119906333D01*
X82241000Y-120093667D01*
X82204454Y-120277396D01*
X82132766Y-120450466D01*
X82028688Y-120606230D01*
X81896230Y-120738688D01*
X81740466Y-120842766D01*
X81567396Y-120914454D01*
X81383667Y-120951000D01*
X81196333Y-120951000D01*
X81012604Y-120914454D01*
X80839534Y-120842766D01*
X80683770Y-120738688D01*
X80551312Y-120606230D01*
X80447234Y-120450466D01*
X80375546Y-120277396D01*
X80339000Y-120093667D01*
X80339000Y-119906333D01*
X80375546Y-119722604D01*
X80447234Y-119549534D01*
X80551312Y-119393770D01*
X80683770Y-119261312D01*
X80839534Y-119157234D01*
X81012604Y-119085546D01*
X81196333Y-119049000D01*
X81383667Y-119049000D01*
X81567396Y-119085546D01*
X81567396Y-119085546D01*
G37*
G36*
X73237142Y-119218242D02*
X73385102Y-119279530D01*
X73518258Y-119368502D01*
X73631498Y-119481742D01*
X73720470Y-119614898D01*
X73781758Y-119762858D01*
X73813000Y-119919925D01*
X73813000Y-120080075D01*
X73781758Y-120237142D01*
X73720470Y-120385102D01*
X73675683Y-120452130D01*
X73631499Y-120518257D01*
X73518257Y-120631499D01*
X73452130Y-120675683D01*
X73385102Y-120720470D01*
X73237142Y-120781758D01*
X73080075Y-120813000D01*
X72919925Y-120813000D01*
X72762858Y-120781758D01*
X72614898Y-120720470D01*
X72547870Y-120675683D01*
X72481743Y-120631499D01*
X72368501Y-120518257D01*
X72324317Y-120452130D01*
X72279530Y-120385102D01*
X72218242Y-120237142D01*
X72187000Y-120080075D01*
X72187000Y-119919925D01*
X72218242Y-119762858D01*
X72279530Y-119614898D01*
X72368502Y-119481742D01*
X72481742Y-119368502D01*
X72614898Y-119279530D01*
X72762858Y-119218242D01*
X72919925Y-119187000D01*
X73080075Y-119187000D01*
X73237142Y-119218242D01*
X73237142Y-119218242D01*
G37*
G36*
X70697142Y-119218242D02*
X70845102Y-119279530D01*
X70978258Y-119368502D01*
X71091498Y-119481742D01*
X71180470Y-119614898D01*
X71241758Y-119762858D01*
X71273000Y-119919925D01*
X71273000Y-120080075D01*
X71241758Y-120237142D01*
X71180470Y-120385102D01*
X71135683Y-120452130D01*
X71091499Y-120518257D01*
X70978257Y-120631499D01*
X70912130Y-120675683D01*
X70845102Y-120720470D01*
X70697142Y-120781758D01*
X70540075Y-120813000D01*
X70379925Y-120813000D01*
X70222858Y-120781758D01*
X70074898Y-120720470D01*
X70007870Y-120675683D01*
X69941743Y-120631499D01*
X69828501Y-120518257D01*
X69784317Y-120452130D01*
X69739530Y-120385102D01*
X69678242Y-120237142D01*
X69647000Y-120080075D01*
X69647000Y-119919925D01*
X69678242Y-119762858D01*
X69739530Y-119614898D01*
X69828502Y-119481742D01*
X69941742Y-119368502D01*
X70074898Y-119279530D01*
X70222858Y-119218242D01*
X70379925Y-119187000D01*
X70540075Y-119187000D01*
X70697142Y-119218242D01*
X70697142Y-119218242D01*
G37*
G36*
X68157142Y-119218242D02*
X68305102Y-119279530D01*
X68438258Y-119368502D01*
X68551498Y-119481742D01*
X68640470Y-119614898D01*
X68701758Y-119762858D01*
X68733000Y-119919925D01*
X68733000Y-120080075D01*
X68701758Y-120237142D01*
X68640470Y-120385102D01*
X68595683Y-120452130D01*
X68551499Y-120518257D01*
X68438257Y-120631499D01*
X68372130Y-120675683D01*
X68305102Y-120720470D01*
X68157142Y-120781758D01*
X68000075Y-120813000D01*
X67839925Y-120813000D01*
X67682858Y-120781758D01*
X67534898Y-120720470D01*
X67467870Y-120675683D01*
X67401743Y-120631499D01*
X67288501Y-120518257D01*
X67244317Y-120452130D01*
X67199530Y-120385102D01*
X67138242Y-120237142D01*
X67107000Y-120080075D01*
X67107000Y-119919925D01*
X67138242Y-119762858D01*
X67199530Y-119614898D01*
X67288502Y-119481742D01*
X67401742Y-119368502D01*
X67534898Y-119279530D01*
X67682858Y-119218242D01*
X67839925Y-119187000D01*
X68000075Y-119187000D01*
X68157142Y-119218242D01*
X68157142Y-119218242D01*
G37*
G36*
X51409451Y-117739389D02*
X51600720Y-117818615D01*
X51772862Y-117933637D01*
X51919249Y-118080024D01*
X52034271Y-118252166D01*
X52113497Y-118443435D01*
X52153886Y-118646484D01*
X52153886Y-118853516D01*
X52113497Y-119056565D01*
X52034271Y-119247834D01*
X51919249Y-119419976D01*
X51772862Y-119566363D01*
X51600720Y-119681385D01*
X51409451Y-119760611D01*
X51206402Y-119801000D01*
X50999370Y-119801000D01*
X50796321Y-119760611D01*
X50605052Y-119681385D01*
X50432910Y-119566363D01*
X50286523Y-119419976D01*
X50171501Y-119247834D01*
X50092275Y-119056565D01*
X50051886Y-118853516D01*
X50051886Y-118646484D01*
X50092275Y-118443435D01*
X50171501Y-118252166D01*
X50286523Y-118080024D01*
X50432910Y-117933637D01*
X50605052Y-117818615D01*
X50796321Y-117739389D01*
X50999370Y-117699000D01*
X51206402Y-117699000D01*
X51409451Y-117739389D01*
X51409451Y-117739389D01*
G37*
G36*
X81567396Y-114085546D02*
X81740466Y-114157234D01*
X81896230Y-114261312D01*
X82028688Y-114393770D01*
X82132766Y-114549534D01*
X82204454Y-114722604D01*
X82241000Y-114906333D01*
X82241000Y-115093667D01*
X82204454Y-115277396D01*
X82132766Y-115450466D01*
X82028688Y-115606230D01*
X81896230Y-115738688D01*
X81740466Y-115842766D01*
X81567396Y-115914454D01*
X81383667Y-115951000D01*
X81196333Y-115951000D01*
X81012604Y-115914454D01*
X80839534Y-115842766D01*
X80683770Y-115738688D01*
X80551312Y-115606230D01*
X80447234Y-115450466D01*
X80375546Y-115277396D01*
X80339000Y-115093667D01*
X80339000Y-114906333D01*
X80375546Y-114722604D01*
X80447234Y-114549534D01*
X80551312Y-114393770D01*
X80683770Y-114261312D01*
X80839534Y-114157234D01*
X81012604Y-114085546D01*
X81196333Y-114049000D01*
X81383667Y-114049000D01*
X81567396Y-114085546D01*
X81567396Y-114085546D01*
G37*
G36*
X79701000Y-115951000D02*
X77799000Y-115951000D01*
X77799000Y-114049000D01*
X79701000Y-114049000D01*
X79701000Y-115951000D01*
X79701000Y-115951000D01*
G37*
G36*
X103157142Y-112419424D02*
X103305102Y-112480712D01*
X103438258Y-112569684D01*
X103551498Y-112682924D01*
X103640470Y-112816080D01*
X103701758Y-112964040D01*
X103733000Y-113121107D01*
X103733000Y-113281257D01*
X103701758Y-113438324D01*
X103640470Y-113586284D01*
X103551498Y-113719440D01*
X103438258Y-113832680D01*
X103305102Y-113921652D01*
X103157142Y-113982940D01*
X103000075Y-114014182D01*
X102839925Y-114014182D01*
X102682858Y-113982940D01*
X102534898Y-113921652D01*
X102401742Y-113832680D01*
X102288502Y-113719440D01*
X102199530Y-113586284D01*
X102138242Y-113438324D01*
X102107000Y-113281257D01*
X102107000Y-113121107D01*
X102138242Y-112964040D01*
X102199530Y-112816080D01*
X102288502Y-112682924D01*
X102401742Y-112569684D01*
X102534898Y-112480712D01*
X102682858Y-112419424D01*
X102839925Y-112388182D01*
X103000075Y-112388182D01*
X103157142Y-112419424D01*
X103157142Y-112419424D01*
G37*
G36*
X79701000Y-110951000D02*
X77799000Y-110951000D01*
X77799000Y-109049000D01*
X79701000Y-109049000D01*
X79701000Y-110951000D01*
X79701000Y-110951000D01*
G37*
G36*
X81567396Y-109085546D02*
X81740466Y-109157234D01*
X81896230Y-109261312D01*
X82028688Y-109393770D01*
X82132766Y-109549534D01*
X82204454Y-109722604D01*
X82241000Y-109906333D01*
X82241000Y-110093667D01*
X82204454Y-110277396D01*
X82132766Y-110450466D01*
X82028688Y-110606230D01*
X81896230Y-110738688D01*
X81740466Y-110842766D01*
X81567396Y-110914454D01*
X81383667Y-110951000D01*
X81196333Y-110951000D01*
X81012604Y-110914454D01*
X80839534Y-110842766D01*
X80683770Y-110738688D01*
X80551312Y-110606230D01*
X80447234Y-110450466D01*
X80375546Y-110277396D01*
X80339000Y-110093667D01*
X80339000Y-109906333D01*
X80375546Y-109722604D01*
X80447234Y-109549534D01*
X80551312Y-109393770D01*
X80683770Y-109261312D01*
X80839534Y-109157234D01*
X81012604Y-109085546D01*
X81196333Y-109049000D01*
X81383667Y-109049000D01*
X81567396Y-109085546D01*
X81567396Y-109085546D01*
G37*
G36*
X79701000Y-105951000D02*
X77799000Y-105951000D01*
X77799000Y-104049000D01*
X79701000Y-104049000D01*
X79701000Y-105951000D01*
X79701000Y-105951000D01*
G37*
G36*
X81567396Y-104085546D02*
X81740466Y-104157234D01*
X81896230Y-104261312D01*
X82028688Y-104393770D01*
X82132766Y-104549534D01*
X82204454Y-104722604D01*
X82241000Y-104906333D01*
X82241000Y-105093667D01*
X82204454Y-105277396D01*
X82132766Y-105450466D01*
X82028688Y-105606230D01*
X81896230Y-105738688D01*
X81740466Y-105842766D01*
X81567396Y-105914454D01*
X81383667Y-105951000D01*
X81196333Y-105951000D01*
X81012604Y-105914454D01*
X80839534Y-105842766D01*
X80683770Y-105738688D01*
X80551312Y-105606230D01*
X80447234Y-105450466D01*
X80375546Y-105277396D01*
X80339000Y-105093667D01*
X80339000Y-104906333D01*
X80375546Y-104722604D01*
X80447234Y-104549534D01*
X80551312Y-104393770D01*
X80683770Y-104261312D01*
X80839534Y-104157234D01*
X81012604Y-104085546D01*
X81196333Y-104049000D01*
X81383667Y-104049000D01*
X81567396Y-104085546D01*
X81567396Y-104085546D01*
G37*
G36*
X87306565Y-102489389D02*
X87497834Y-102568615D01*
X87669976Y-102683637D01*
X87816363Y-102830024D01*
X87931385Y-103002166D01*
X88010611Y-103193435D01*
X88051000Y-103396484D01*
X88051000Y-103603516D01*
X88010611Y-103806565D01*
X87931385Y-103997834D01*
X87816363Y-104169976D01*
X87669976Y-104316363D01*
X87497834Y-104431385D01*
X87306565Y-104510611D01*
X87103516Y-104551000D01*
X86896484Y-104551000D01*
X86693435Y-104510611D01*
X86502166Y-104431385D01*
X86330024Y-104316363D01*
X86183637Y-104169976D01*
X86068615Y-103997834D01*
X85989389Y-103806565D01*
X85949000Y-103603516D01*
X85949000Y-103396484D01*
X85989389Y-103193435D01*
X86068615Y-103002166D01*
X86183637Y-102830024D01*
X86330024Y-102683637D01*
X86502166Y-102568615D01*
X86693435Y-102489389D01*
X86896484Y-102449000D01*
X87103516Y-102449000D01*
X87306565Y-102489389D01*
X87306565Y-102489389D01*
G37*
G36*
X81567396Y-99085546D02*
X81740466Y-99157234D01*
X81896230Y-99261312D01*
X82028688Y-99393770D01*
X82132766Y-99549534D01*
X82204454Y-99722604D01*
X82241000Y-99906333D01*
X82241000Y-100093667D01*
X82204454Y-100277396D01*
X82132766Y-100450466D01*
X82028688Y-100606230D01*
X81896230Y-100738688D01*
X81740466Y-100842766D01*
X81567396Y-100914454D01*
X81383667Y-100951000D01*
X81196333Y-100951000D01*
X81012604Y-100914454D01*
X80839534Y-100842766D01*
X80683770Y-100738688D01*
X80551312Y-100606230D01*
X80447234Y-100450466D01*
X80375546Y-100277396D01*
X80339000Y-100093667D01*
X80339000Y-99906333D01*
X80375546Y-99722604D01*
X80447234Y-99549534D01*
X80551312Y-99393770D01*
X80683770Y-99261312D01*
X80839534Y-99157234D01*
X81012604Y-99085546D01*
X81196333Y-99049000D01*
X81383667Y-99049000D01*
X81567396Y-99085546D01*
X81567396Y-99085546D01*
G37*
G36*
X79701000Y-100951000D02*
X77799000Y-100951000D01*
X77799000Y-99049000D01*
X79701000Y-99049000D01*
X79701000Y-100951000D01*
X79701000Y-100951000D01*
G37*
G36*
X79701000Y-95951000D02*
X77799000Y-95951000D01*
X77799000Y-94049000D01*
X79701000Y-94049000D01*
X79701000Y-95951000D01*
X79701000Y-95951000D01*
G37*
G36*
X81567396Y-94085546D02*
X81740466Y-94157234D01*
X81896230Y-94261312D01*
X82028688Y-94393770D01*
X82132766Y-94549534D01*
X82204454Y-94722604D01*
X82241000Y-94906333D01*
X82241000Y-95093667D01*
X82204454Y-95277396D01*
X82132766Y-95450466D01*
X82028688Y-95606230D01*
X81896230Y-95738688D01*
X81740466Y-95842766D01*
X81567396Y-95914454D01*
X81383667Y-95951000D01*
X81196333Y-95951000D01*
X81012604Y-95914454D01*
X80839534Y-95842766D01*
X80683770Y-95738688D01*
X80551312Y-95606230D01*
X80447234Y-95450466D01*
X80375546Y-95277396D01*
X80339000Y-95093667D01*
X80339000Y-94906333D01*
X80375546Y-94722604D01*
X80447234Y-94549534D01*
X80551312Y-94393770D01*
X80683770Y-94261312D01*
X80839534Y-94157234D01*
X81012604Y-94085546D01*
X81196333Y-94049000D01*
X81383667Y-94049000D01*
X81567396Y-94085546D01*
X81567396Y-94085546D01*
G37*
G36*
X87306565Y-93489389D02*
X87497834Y-93568615D01*
X87669976Y-93683637D01*
X87816363Y-93830024D01*
X87931385Y-94002166D01*
X88010611Y-94193435D01*
X88051000Y-94396484D01*
X88051000Y-94603516D01*
X88010611Y-94806565D01*
X87931385Y-94997834D01*
X87816363Y-95169976D01*
X87669976Y-95316363D01*
X87497834Y-95431385D01*
X87306565Y-95510611D01*
X87103516Y-95551000D01*
X86896484Y-95551000D01*
X86693435Y-95510611D01*
X86502166Y-95431385D01*
X86330024Y-95316363D01*
X86183637Y-95169976D01*
X86068615Y-94997834D01*
X85989389Y-94806565D01*
X85949000Y-94603516D01*
X85949000Y-94396484D01*
X85989389Y-94193435D01*
X86068615Y-94002166D01*
X86183637Y-93830024D01*
X86330024Y-93683637D01*
X86502166Y-93568615D01*
X86693435Y-93489389D01*
X86896484Y-93449000D01*
X87103516Y-93449000D01*
X87306565Y-93489389D01*
X87306565Y-93489389D01*
G37*
M02*
